<svg width="91" height="109" viewBox="0 0 91 109" fill="none" xmlns="http://www.w3.org/2000/svg">
<path d="M90.09 44.9502C90.09 42.0634 89.01 39.3569 87.21 37.3721C85.95 35.9287 85.23 34.1244 85.23 32.1397C85.23 31.5984 85.23 31.0571 85.41 30.5158C85.59 29.7941 85.59 28.8919 85.59 28.1702C85.59 23.2985 82.35 18.7878 77.67 17.3443C75.33 16.6226 73.53 14.6379 72.63 12.2922C72.27 11.0292 71.55 9.76622 70.83 8.86406C68.67 6.1576 65.43 4.53372 61.83 4.53372C61.11 4.53372 60.21 4.71415 59.49 4.71415C56.97 5.25544 54.45 4.53372 52.65 2.90984C48.33 -0.879207 41.85 -1.05964 37.53 2.90984L37.35 3.09027C35.55 4.71415 33.03 5.43587 30.69 4.89458C29.97 4.71415 29.25 4.71415 28.35 4.71415C24.93 4.71415 21.51 6.33803 19.35 9.04449C18.45 10.1271 17.91 11.2097 17.55 12.4727C16.65 14.6379 14.85 16.4422 12.51 17.1639C7.83 18.7878 4.59 23.1181 4.59 27.9897C4.59 28.7115 4.77 29.6136 4.77 30.3353C4.95 30.8766 4.95 31.4179 4.95 31.9592C4.95 33.944 4.23 35.7483 2.97 37.1917C-0.99 41.5221 -0.99 48.198 2.97 52.5283C4.23 53.9718 4.95 55.7761 4.95 57.7608C4.95 58.3021 4.95 58.8434 4.77 59.3847C4.59 60.1064 4.59 61.0086 4.59 61.7303C4.59 66.602 7.83 71.1127 12.51 72.5562C13.23 72.7366 13.77 73.0975 14.49 73.6388L3.87 93.847C3.33 94.7492 3.69 95.8318 4.59 96.1926C4.77 96.3731 5.13 96.3731 5.31 96.3731L18.27 97.2752L26.55 107.379C26.91 107.74 27.45 108.101 27.99 108.101H28.17C28.71 108.101 29.25 107.74 29.61 107.199L39.33 88.4341C42.93 90.5993 47.43 90.5993 51.03 88.4341L60.75 107.199C61.11 107.74 61.47 108.101 62.19 108.101H62.37C62.91 108.101 63.45 107.921 63.81 107.379L72.09 97.2752L85.05 96.3731C86.13 96.3731 86.85 95.4709 86.67 94.3883C86.67 94.2079 86.67 93.847 86.49 93.6666L76.05 73.4583C76.59 73.0975 77.31 72.7366 78.03 72.5562C82.71 70.9323 85.95 66.602 85.95 61.7303C85.95 61.0086 85.77 60.1064 85.77 59.3847C85.59 58.8434 85.59 58.3021 85.59 57.7608C85.59 55.7761 86.31 53.9718 87.57 52.5283C89.01 50.5436 90.09 47.8371 90.09 44.9502ZM18.09 93.847L8.37 93.1253L17.01 76.5257C17.01 76.5257 17.01 76.5257 17.01 76.7061C17.19 77.067 17.37 77.4278 17.37 77.7887C18.27 80.6756 20.43 83.0212 22.95 84.4646L18.09 93.847ZM27.63 103.049L21.33 95.4709L26.55 85.3668C27.99 85.5472 29.25 85.5472 30.69 85.1863C31.23 85.0059 31.77 85.0059 32.31 85.0059C32.49 85.0059 32.67 85.0059 32.85 85.0059C33.93 85.0059 35.01 85.3668 36.09 85.9081C36.27 85.9081 36.27 86.0885 36.45 86.0885L27.63 103.049ZM62.55 103.049L53.91 86.2689C54.27 86.0885 54.63 85.9081 55.17 85.7276C55.89 85.3668 56.79 85.3668 57.51 85.1863C57.69 85.1863 57.87 85.1863 58.05 85.1863C58.59 85.1863 58.95 85.1863 59.49 85.3668H59.67C60.21 85.5472 60.57 85.5472 60.93 85.5472C61.11 85.5472 61.29 85.5472 61.47 85.5472C61.65 85.5472 61.83 85.5472 61.83 85.5472H62.01C62.55 85.5472 63.09 85.5472 63.63 85.3668L68.85 95.4709L62.55 103.049ZM81.81 93.1253L72.09 93.847L67.23 84.2842C67.41 84.2842 67.41 84.1038 67.59 84.1038C67.77 83.9233 67.95 83.9233 68.13 83.7429C68.31 83.5625 68.67 83.382 68.85 83.2016C69.21 82.8407 69.57 82.6603 69.93 82.2995C70.11 82.119 70.29 81.9386 70.29 81.7582C70.47 81.5777 70.83 81.2169 71.01 81.0364C71.19 80.856 71.19 80.6756 71.37 80.4951C71.55 80.1343 71.73 79.9538 71.91 79.593C71.91 79.4126 72.09 79.2321 72.09 79.0517C72.27 78.5104 72.63 77.9691 72.81 77.6082C72.99 77.2474 73.17 76.8865 73.35 76.5257L81.81 93.1253ZM84.51 50.1827C82.71 52.3479 81.63 55.0544 81.63 57.7608C81.63 58.4826 81.63 59.3847 81.81 60.1065C81.99 60.6477 81.99 61.189 81.99 61.7303C81.99 65.1585 79.83 68.2258 76.59 69.128C74.61 69.8497 72.81 70.9323 71.55 72.5562L71.37 72.7366C71.19 72.917 71.01 73.2779 70.83 73.4583C70.83 73.6388 70.65 73.6388 70.65 73.8192C70.47 74.1801 70.29 74.3605 70.11 74.7214C70.11 74.9018 69.93 74.9018 69.93 75.0822C69.75 75.4431 69.57 75.9844 69.39 76.3452C69.21 76.7061 69.21 77.067 69.03 77.4278C69.03 77.6082 68.85 77.6082 68.85 77.7887C68.67 77.9691 68.67 78.1495 68.49 78.33C68.49 78.5104 68.31 78.5104 68.13 78.6908C67.95 78.8713 67.95 79.0517 67.77 79.0517C67.23 79.593 66.69 80.1343 65.97 80.4951C65.97 80.4951 65.97 80.4951 65.79 80.4951C65.61 80.6756 65.25 80.856 65.07 80.856C64.71 81.0364 64.53 81.0364 64.17 81.2169C63.99 81.2169 63.99 81.2169 63.81 81.2169C63.63 81.2169 63.45 81.3973 63.09 81.3973C62.73 81.3973 62.37 81.3973 62.01 81.3973C61.83 81.3973 61.83 81.3973 61.65 81.3973C61.47 81.3973 61.47 81.3973 61.29 81.3973C60.93 81.3973 60.57 81.3973 60.21 81.2169C59.67 81.2169 59.31 81.0364 58.77 81.0364C58.59 81.0364 58.41 81.0364 58.23 81.0364C58.05 81.0364 57.69 81.0364 57.51 81.0364C57.15 81.0364 56.79 81.0364 56.43 81.2169H56.25C54.99 81.3973 53.73 81.7582 52.65 82.4799C52.29 82.6603 51.93 82.8407 51.57 83.0212C51.57 83.0212 51.57 83.0212 51.39 83.0212C51.03 83.2016 50.85 83.382 50.49 83.7429C50.49 83.7429 50.31 83.7429 50.31 83.9233C50.31 83.9233 50.31 83.9233 50.13 83.9233C47.07 86.6298 42.75 86.6298 39.69 83.9233C39.69 83.9233 39.69 83.9233 39.51 83.9233C39.33 83.7429 39.15 83.5625 38.97 83.5625C38.79 83.382 38.61 83.382 38.43 83.2016C38.25 83.2016 38.25 83.0212 38.07 83.0212C37.89 82.8407 37.53 82.6603 37.35 82.6603H37.17C34.83 81.3973 32.31 81.0364 29.61 81.5777C28.35 81.9386 27.09 81.7582 25.83 81.3973C23.31 80.6756 21.33 78.6908 20.61 76.3452C20.07 74.5409 18.99 72.917 17.73 71.654C16.47 70.391 15.03 69.4889 13.41 69.128C10.17 68.0454 8.01 64.9781 8.01 61.7303C8.01 61.189 8.01 60.6477 8.19 60.1065C8.37 59.3847 8.37 58.663 8.37 57.7608C8.37 54.8739 7.29 52.1675 5.49 50.1827C2.79 47.1154 2.79 42.6046 5.49 39.7178C7.29 37.5526 8.37 34.8461 8.37 32.1397C8.37 31.4179 8.37 30.5158 8.19 29.7941C8.01 29.2528 8.01 28.7115 8.01 28.1702C8.01 24.742 10.17 21.6747 13.41 20.7725C16.83 19.6899 19.53 16.9835 20.79 13.5553C21.15 12.6531 21.51 11.9314 22.05 11.2097C23.49 9.40536 25.83 8.14234 28.17 8.14234C28.71 8.14234 29.25 8.14234 29.79 8.32277C33.39 8.86406 36.99 7.96191 39.69 5.61631L39.87 5.43587C42.93 2.72941 47.43 2.72941 50.31 5.43587C53.01 7.78148 56.61 8.86406 60.21 8.14234C60.75 7.96191 61.29 7.96191 61.83 7.96191C64.17 7.96191 66.51 9.04449 67.95 11.0292C68.49 11.751 69.03 12.4727 69.21 13.3748C70.29 16.803 72.99 19.5095 76.41 20.5921C79.65 21.6747 81.81 24.742 81.81 27.9897C81.81 28.531 81.81 29.0723 81.63 29.6136C81.45 30.3353 81.45 31.0571 81.45 31.9592C81.45 34.8461 82.53 37.5526 84.33 39.5373C87.21 42.7851 87.21 47.1154 84.51 50.1827Z" fill="#EC555F"/>
</svg>
