<svg width="37" height="37" viewBox="0 0 37 37" fill="none" xmlns="http://www.w3.org/2000/svg">
<path fill-rule="evenodd" clip-rule="evenodd" d="M3.08325 9.24935C3.08325 8.4316 3.4081 7.64734 3.98634 7.0691C4.56458 6.49087 5.34883 6.16602 6.16659 6.16602H30.8333C31.651 6.16602 32.4353 6.49087 33.0135 7.0691C33.5917 7.64734 33.9166 8.4316 33.9166 9.24935C33.9166 10.0671 33.5917 10.8514 33.0135 11.4296C32.4353 12.0078 31.651 12.3327 30.8333 12.3327H6.16659C5.34883 12.3327 4.56458 12.0078 3.98634 11.4296C3.4081 10.8514 3.08325 10.0671 3.08325 9.24935ZM3.08325 18.4993C3.08325 17.6816 3.4081 16.8973 3.98634 16.3191C4.56458 15.7409 5.34883 15.416 6.16659 15.416H30.8333C31.651 15.416 32.4353 15.7409 33.0135 16.3191C33.5917 16.8973 33.9166 17.6816 33.9166 18.4993C33.9166 19.3171 33.5917 20.1014 33.0135 20.6796C32.4353 21.2578 31.651 21.5827 30.8333 21.5827H6.16659C5.34883 21.5827 4.56458 21.2578 3.98634 20.6796C3.4081 20.1014 3.08325 19.3171 3.08325 18.4993ZM3.08325 27.7493C3.08325 26.9316 3.4081 26.1473 3.98634 25.5691C4.56458 24.9909 5.34883 24.666 6.16659 24.666H30.8333C31.651 24.666 32.4353 24.9909 33.0135 25.5691C33.5917 26.1473 33.9166 26.9316 33.9166 27.7493C33.9166 28.5671 33.5917 29.3514 33.0135 29.9296C32.4353 30.5078 31.651 30.8327 30.8333 30.8327H6.16659C5.34883 30.8327 4.56458 30.5078 3.98634 29.9296C3.4081 29.3514 3.08325 28.5671 3.08325 27.7493Z" fill="white"/>
</svg>
