<svg width="140" height="144" viewBox="0 0 140 144" fill="none" xmlns="http://www.w3.org/2000/svg">
<g clip-path="url(#clip0)">
<path d="M95.6352 38.4366V29.6095C95.6352 27.1757 93.7168 25.2048 91.3625 25.2048C89.0041 25.2048 87.0898 27.1757 87.0898 29.6095V38.4365C87.0898 40.8702 89.0082 42.8411 91.3625 42.8411C93.721 42.8412 95.6352 40.8703 95.6352 38.4366Z" fill="url(#paint0_linear)"/>
<path d="M108.454 51.6594H31.5449V56.0685H108.454V51.6594Z" fill="url(#paint1_linear)"/>
<path d="M49.7042 42.8412C51.4732 42.8412 52.9087 41.3687 52.9087 39.5257V28.5204C52.9087 26.6907 51.4773 25.2048 49.7042 25.2048H47.5679C45.7989 25.2048 44.3633 26.6774 44.3633 28.5204V39.5212C44.3633 41.3553 45.7946 42.8412 47.5679 42.8412H49.7042Z" fill="url(#paint2_linear)"/>
<path d="M82.8199 34.0229H57.1836V38.432H82.8199V34.0229Z" fill="black"/>
<path d="M23 113.387C23 117.796 27.7 117.796 27.7 117.796H112.727C112.727 117.796 117 117.796 117 113.387V34.0229H99.9092V38.432H112.727V113.387H27.2727V38.4322H40.091V34.0229H23V113.387Z" fill="black"/>
<path d="M88.9601 74.1106C88.1823 72.5143 88.5925 73.3609 88.9601 74.1106V74.1106Z" fill="white"/>
<path d="M63.1003 94.8713H59.2827V76.4301L53.6509 78.3547V75.1207L62.6113 71.8237H63.1003V94.8713ZM86.0533 85.2011C86.0533 88.5034 85.4328 90.9959 84.1918 92.6786C82.9613 94.3508 81.0841 95.1868 78.56 95.1868C76.0781 95.1868 74.2061 94.3718 72.9441 92.7417C71.6925 91.1011 71.051 88.6769 71.0195 85.4693V81.4939C71.0195 78.1916 71.6347 75.7149 72.8652 74.0638C74.1062 72.4127 75.9939 71.5871 78.5285 71.5871C81.042 71.5871 82.914 72.3916 84.1445 74.0007C85.3855 75.6098 86.0217 78.0181 86.0533 81.2258V85.2011ZM82.2199 80.9102C82.2199 78.7543 81.9254 77.1768 81.3365 76.1777C80.7475 75.1681 79.8115 74.6633 78.5285 74.6633C77.277 74.6633 76.3568 75.1418 75.7678 76.0988C75.1789 77.0453 74.8686 78.5282 74.8371 80.5474V85.7532C74.8371 87.8987 75.1368 89.4972 75.7363 90.5489C76.3357 91.6006 77.277 92.1264 78.56 92.1264C79.7905 92.1264 80.7002 91.6427 81.2892 90.6751C81.8781 89.6971 82.1883 88.1721 82.2199 86.1003V80.9102Z" fill="url(#paint3_linear)"/>
</g>
<defs>
<linearGradient id="paint0_linear" x1="91.3625" y1="25.2048" x2="91.3625" y2="42.8411" gradientUnits="userSpaceOnUse">
<stop stop-color="#FF7209"/>
<stop offset="1" stop-color="#FFC266"/>
</linearGradient>
<linearGradient id="paint1_linear" x1="69.9994" y1="51.6594" x2="69.9994" y2="56.0685" gradientUnits="userSpaceOnUse">
<stop stop-color="#FF7209"/>
<stop offset="1" stop-color="#FFC266"/>
</linearGradient>
<linearGradient id="paint2_linear" x1="48.636" y1="25.2048" x2="48.636" y2="42.8412" gradientUnits="userSpaceOnUse">
<stop stop-color="#FF7209"/>
<stop offset="1" stop-color="#FFC266"/>
</linearGradient>
<linearGradient id="paint3_linear" x1="69.3631" y1="64.8713" x2="69.3631" y2="101.574" gradientUnits="userSpaceOnUse">
<stop stop-color="#FF7209"/>
<stop offset="1" stop-color="#FFC266"/>
</linearGradient>
<clipPath id="clip0">
<rect width="94" height="97" fill="white" transform="translate(23 23)"/>
</clipPath>
</defs>
</svg>
