<svg width="92" height="101" viewBox="0 0 92 101" fill="none" xmlns="http://www.w3.org/2000/svg">
<path d="M58.4519 67.7964L64.8919 60.7264C65.7593 59.786 66.8567 59.1422 68.0509 58.8733C69.2451 58.6043 70.4848 58.7218 71.6194 59.2114L79.4681 62.6517C80.6147 63.1626 81.5979 64.0347 82.2937 65.1581C82.9895 66.2814 83.3668 67.6058 83.3781 68.9642V84.7454C83.3715 85.6695 83.1945 86.5826 82.858 87.4296C82.5214 88.2766 82.0322 89.0401 81.4198 89.6741C80.8073 90.3081 80.0844 90.7995 79.2944 91.1187C78.5045 91.4379 77.6638 91.5783 76.8231 91.5314C21.8244 87.7754 10.7269 36.6442 8.62813 17.0754C8.53071 16.1145 8.61972 15.1418 8.88932 14.2213C9.15892 13.3008 9.60299 12.4534 10.1923 11.7349C10.7817 11.0163 11.5029 10.4429 12.3086 10.0524C13.1143 9.6618 13.9862 9.46295 14.8669 9.46888H28.7531C29.9923 9.47291 31.202 9.88382 32.2267 10.6488C33.2514 11.4137 34.0442 12.4977 34.5031 13.7614L37.6369 22.3779C38.0976 23.6186 38.2152 24.9807 37.9748 26.2943C37.7345 27.6078 37.147 28.8145 36.2856 29.7636L29.8456 36.8336C29.8456 36.8336 33.5544 64.3876 58.4519 67.7964Z" fill="#A9A9A9"/>
</svg>
