<svg width="91" height="96" viewBox="0 0 91 96" fill="none" xmlns="http://www.w3.org/2000/svg">
<path d="M3.04657 1.70949L3.04653 1.70951L1.0882 2.75272L0.881743 2.8627L0.88068 3.09662L0.677796 47.744C0.587723 67.6301 0.570817 78.834 0.714512 85.2112C0.786298 88.397 0.898377 90.3939 1.06417 91.6713C1.22735 92.9286 1.45035 93.5765 1.82105 93.9668C2.17837 94.343 2.72564 94.5872 3.68792 94.7678C4.65413 94.9491 6.10385 95.077 8.33409 95.1685C12.8 95.3518 20.4751 95.3917 33.8535 95.3917H64.3644H64.6216L64.7238 95.1556L65.638 93.0436C65.9795 92.2546 66.2726 91.8505 66.5728 91.6597C66.8464 91.4858 67.1975 91.4465 67.794 91.6042L67.7941 91.6042C68.2545 91.7258 68.7403 91.6536 69.3033 91.3846C69.8572 91.1201 70.5133 90.6526 71.3392 89.9421C72.9931 88.5192 75.4135 86.0456 79.184 82.0272L78.8983 81.7592L79.184 82.0271C81.7445 79.2976 84.1815 76.6103 86.0455 74.4788C86.9773 73.4133 87.7675 72.4848 88.359 71.7585C88.9392 71.0459 89.3553 70.4958 89.5095 70.2038L89.5095 70.2037C90.3093 68.6884 90.616 66.4348 90.5093 64.2049C90.4025 61.9708 89.8771 59.6803 88.9393 58.0827C88.4811 57.3022 87.7613 56.4525 86.9772 55.7085C86.1937 54.9651 85.3215 54.3038 84.5458 53.9161L84.5457 53.9161C82.8905 53.0894 80.4919 52.6682 78.1159 52.6343C75.7393 52.6005 73.3163 52.9533 71.6099 53.7311C70.8005 54.1 70.1344 54.2887 69.5365 54.324C68.9453 54.3588 68.3995 54.2449 67.8265 53.9755L67.8264 53.9755L66.289 53.2533V28.5286C66.289 16.1022 66.2875 9.83893 66.0678 6.5268C65.9585 4.87755 65.793 3.90835 65.5205 3.26377C65.232 2.58149 64.83 2.2823 64.3884 1.95679C63.9428 1.62819 63.3295 1.39579 62.313 1.21943C61.2962 1.04302 59.8381 0.916872 57.6742 0.826214C53.3433 0.644777 46.1203 0.603419 33.8017 0.608778C23.0553 0.613313 15.7742 0.681118 10.9945 0.845999C8.60535 0.928416 6.83377 1.03531 5.56374 1.17173C4.92881 1.23993 4.41288 1.31616 4.0045 1.40203C3.60198 1.48666 3.27942 1.58549 3.04657 1.70949ZM62.9546 4.95711L62.9547 4.95723C63.1162 5.18964 63.2801 5.64728 63.4141 6.5578C63.5462 7.45505 63.6429 8.73991 63.7078 10.5801C63.8375 14.2584 63.8384 20.1062 63.7549 29.4042L63.5505 52.1795L59.2326 52.6675L59.2326 52.6675C57.1587 52.9021 55.8461 53.1297 54.7169 53.7041C53.5851 54.2797 52.6713 55.1865 51.346 56.6819L51.3459 56.682C50.0691 58.1236 49.2851 59.1406 48.8329 60.2281C48.3772 61.324 48.2723 62.4571 48.2723 64.0973C48.2723 66.5987 48.4118 68.1594 49.6231 70.2956C50.8086 72.3865 53.0265 75.0384 57.1133 79.7768C59.0104 81.9762 60.7332 84.1537 61.9796 85.8881C62.6033 86.756 63.1038 87.5076 63.4467 88.0924C63.6184 88.3853 63.7466 88.6297 63.8306 88.8218C63.8725 88.9177 63.9012 88.9954 63.9188 89.0558C63.9275 89.0857 63.9328 89.109 63.9359 89.1263C63.939 89.1439 63.939 89.1517 63.939 89.1515C63.939 90.1737 63.8724 90.8015 63.5035 91.2653C63.1344 91.7294 62.3886 92.1146 60.7654 92.397C57.5301 92.96 51.245 93.0549 39.009 93.1652C22.3046 93.3158 13.7431 93.3812 9.20172 93.1893C6.92316 93.0931 5.69923 92.9328 4.97545 92.7033C4.62264 92.5914 4.40296 92.4672 4.24165 92.3354C4.08073 92.2039 3.95909 92.0501 3.81449 91.8425C3.8123 91.8372 3.80602 91.8216 3.79702 91.7914C3.78147 91.7393 3.76379 91.6646 3.74485 91.5639C3.70708 91.3632 3.66899 91.0849 3.63126 90.7296C3.55596 90.0204 3.48483 89.0311 3.41828 87.7976C3.28527 85.3322 3.17161 81.9115 3.07804 77.8495C2.89094 69.7267 2.78447 59.0518 2.76361 48.3535C2.74276 37.6551 2.80753 26.936 2.96278 18.7246C3.04041 14.6185 3.14062 11.1423 3.26389 8.61024C3.32556 7.34363 3.39278 6.31768 3.46537 5.56897C3.5017 5.19415 3.53889 4.89412 3.57643 4.6705C3.59522 4.55864 3.61336 4.47035 3.63034 4.40379C3.63878 4.37069 3.64634 4.34534 3.65271 4.32664C3.65882 4.30873 3.6625 4.30087 3.66286 4.30011C3.66287 4.30008 3.66288 4.30006 3.66289 4.30005C3.77089 4.08771 3.84892 3.9473 3.95589 3.82988C4.05587 3.72015 4.19711 3.61429 4.44892 3.51644C4.97968 3.3102 5.93521 3.16222 7.82629 3.07848C11.5854 2.91203 18.8237 3.00254 33.1841 3.1915L33.1893 2.79987L33.1841 3.1915C46.8239 3.37053 54.0791 3.48904 58.053 3.74449C60.0455 3.87257 61.1785 4.03353 61.8694 4.24118C62.2092 4.34329 62.427 4.45253 62.5822 4.56419C62.7349 4.674 62.8444 4.79846 62.9546 4.95711ZM56.7388 13.1829L56.7388 13.1829C56.8234 14.4127 56.9747 15.3402 57.2292 15.9703C57.3576 16.2882 57.5228 16.5575 57.7436 16.7494C57.9734 16.949 58.2451 17.0484 58.5434 17.0484C58.8362 17.0484 59.1241 16.9763 59.3611 16.764C59.5892 16.5596 59.7219 16.2678 59.8026 15.9292C59.9611 15.2646 59.9608 14.2279 59.8689 12.7158L59.8689 12.7157L59.63 8.79856L59.6084 8.44487L59.2543 8.43103L55.7293 8.29332L55.714 8.68468L55.7293 8.29331C55.0206 8.26566 54.4692 8.24979 54.0712 8.24885C53.8726 8.24837 53.7068 8.25159 53.5763 8.25953C53.4609 8.26654 53.3283 8.27901 53.2259 8.31529C53.1966 8.32566 53.1526 8.34375 53.1072 8.3753C53.0635 8.40561 52.99 8.46836 52.9504 8.57672C52.8541 8.84024 53.0488 9.01563 53.0806 9.0427C53.1375 9.09118 53.2011 9.12269 53.2426 9.14152C53.2904 9.16328 53.3444 9.18373 53.4007 9.20308C53.6212 9.27882 53.9788 9.3714 54.4491 9.48234L54.539 9.10114L54.4491 9.48235C55.5093 9.73242 55.9493 9.93731 56.2127 10.3496C56.3523 10.568 56.4601 10.8735 56.5445 11.339C56.6288 11.8042 56.685 12.3998 56.7388 13.1829ZM53.5559 8.42309C53.5558 8.42302 53.5565 8.4234 53.558 8.42425C53.5566 8.42354 53.5559 8.42315 53.5559 8.42309ZM29.4723 24.0787V26.9857H26.7307H23.5973H23.2057V27.3774V31.4512V35.5243V35.8832L23.5633 35.9144L26.5008 36.1709L26.5009 36.1709C27.2209 36.2336 27.7308 36.2852 28.1108 36.3757C28.4819 36.464 28.6772 36.5783 28.8064 36.7312C28.9434 36.8933 29.0508 37.1509 29.1329 37.6209C29.2148 38.0894 29.2634 38.7123 29.3221 39.568L29.3221 39.5681L29.5634 43.0729L29.5885 43.4377H29.9541H33.4337C34.2886 43.4377 34.9587 43.4365 35.4695 43.3876C35.9727 43.3394 36.4009 43.2399 36.7155 42.9817C37.0458 42.7105 37.1803 42.3253 37.2429 41.8845C37.3046 41.4503 37.3057 40.8858 37.3057 40.1886C37.3057 38.6243 37.6841 37.6205 38.4345 36.9899C39.2022 36.3447 40.4438 36.0157 42.3456 36.0157C42.9219 36.0157 43.4113 36.0126 43.7947 35.9329C44.2056 35.8475 44.5436 35.6644 44.7676 35.284C44.9701 34.9401 45.0525 34.4755 45.0941 33.8991C45.1364 33.3122 45.139 32.5416 45.139 31.5461V27.4681V27.102L44.7738 27.0773L41.0529 26.8258C40.1249 26.7631 39.4528 26.7154 38.9497 26.6332C38.4436 26.5505 38.1727 26.4413 38.0056 26.3004C37.8493 26.1685 37.7344 25.9663 37.6482 25.5691C37.5601 25.1632 37.5142 24.6172 37.4533 23.8419L37.4533 23.8418C37.3936 23.0836 37.345 22.4777 37.2484 22.0139C37.1508 21.5456 36.9912 21.1513 36.6569 20.8734C36.3305 20.6022 35.8985 20.4939 35.3857 20.4417C34.8696 20.3893 34.1975 20.3884 33.342 20.3884H29.864H29.4723V20.7801V24.0787ZM87.2141 63.8058L87.2141 63.8058C87.3267 64.8574 87.3942 65.5968 87.253 66.3667C87.1133 67.1289 86.7617 67.9518 85.9745 69.1289C84.3868 71.5028 81.1186 75.1893 74.5825 82.5354L74.8751 82.7958L74.5825 82.5355C72.2594 85.1469 70.82 86.6619 69.8536 87.427C69.3675 87.8118 69.0467 87.9688 68.8285 88.0085C68.6499 88.041 68.5195 88 68.3642 87.8627C66.6581 86.3544 62.6341 81.7034 58.9097 77.1184C57.0524 74.832 55.2781 72.5726 53.9156 70.7452C53.2341 69.8312 52.6577 69.0281 52.2262 68.3852C51.7861 67.7297 51.5194 67.2735 51.4303 67.0391L51.0642 67.1783L51.4303 67.0391C50.9861 65.8708 50.8096 65.1669 50.8901 64.3703C50.973 63.5507 51.3306 62.5986 52.068 60.9468C52.5236 59.9268 52.9582 58.9999 53.2911 58.3291C53.4579 57.9928 53.5971 57.7253 53.6994 57.5436C53.7333 57.4834 53.7614 57.4358 53.7837 57.4C53.8432 57.3817 53.9203 57.3564 54.0114 57.3255C54.197 57.2625 54.4505 57.173 54.7528 57.0639C55.3579 56.8455 56.1647 56.5465 57.0278 56.2194C60.3613 54.9571 64.2421 55.3212 67.3229 57.1884C68.2186 57.7319 68.8795 58.0646 69.6253 58.0469C70.3536 58.0295 71.1014 57.6773 72.1782 57.091C72.8011 56.7519 73.8126 56.4286 74.9562 56.1904C76.0934 55.9535 77.3272 55.8077 78.3798 55.8077C81.0016 55.8077 83.061 56.5242 84.5325 57.8558C86.0043 59.1878 86.9329 61.176 87.2141 63.8058ZM47.0434 57.6917L47.0434 57.6916C46.9674 57.5623 46.8464 57.4896 46.7696 57.4502C46.681 57.4049 46.5776 57.3678 46.4691 57.336C46.2509 57.272 45.9619 57.2153 45.616 57.164C44.9212 57.0609 43.9479 56.9725 42.7429 56.9003C40.3302 56.7556 36.9561 56.6737 32.9511 56.6737C28.7858 56.6737 25.4589 56.7506 23.1699 56.8929C22.0276 56.9639 21.1324 57.0518 20.5175 57.157C20.2133 57.209 19.9575 57.2685 19.7696 57.3403C19.6777 57.3754 19.5774 57.4225 19.4933 57.4899C19.4124 57.5548 19.289 57.6868 19.289 57.89C19.289 58.0983 19.4188 58.231 19.4997 58.2939C19.5851 58.3604 19.687 58.4068 19.7809 58.4417C19.9731 58.5129 20.2358 58.5722 20.5498 58.6241C21.1843 58.7292 22.1093 58.817 23.2918 58.8879C25.6611 59.0299 29.1087 59.1064 33.4352 59.1064C37.9221 59.1064 41.3285 59.0346 43.5769 58.8949C44.6976 58.8253 45.5465 58.7378 46.1013 58.6302C46.371 58.5779 46.6082 58.5143 46.7754 58.427C46.8545 58.3857 46.9703 58.3129 47.0446 58.1869C47.0857 58.1171 47.114 58.0309 47.1125 57.9337C47.111 57.8378 47.081 57.7557 47.0434 57.6917ZM7.45277 82.4003L7.84373 82.4239L7.45276 82.4004C7.34858 84.1344 7.41878 85.5834 7.67458 86.7329C7.92976 87.8797 8.37871 88.7675 9.06463 89.3251L9.31169 89.0212L9.06466 89.3251C9.50076 89.6796 10.1011 89.938 10.7297 90.114C11.3638 90.2915 12.0559 90.3932 12.6989 90.4165C13.3365 90.4397 13.9534 90.3869 14.4264 90.2362C14.8607 90.0978 15.3723 89.8034 15.3723 89.2273C15.3723 88.9558 15.2187 88.7485 15.0566 88.6097C14.8929 88.4695 14.679 88.3606 14.4489 88.2769C13.9853 88.1082 13.3714 88.011 12.7145 88.011C11.5405 88.011 10.9022 87.7353 10.5109 87.1251C10.0831 86.4583 9.88901 85.3123 9.88901 83.3871C9.88901 82.7137 9.78977 82.1356 9.62866 81.6842C9.47352 81.2495 9.23913 80.8729 8.92316 80.6889C8.75432 80.5906 8.54989 80.542 8.33644 80.5957C8.12759 80.6482 7.96551 80.7848 7.84714 80.9485C7.61937 81.2636 7.49122 81.7611 7.45277 82.4003ZM9.09682 8.14212C8.50633 8.50408 8.11455 9.0654 7.87357 9.85842C7.6365 10.6386 7.53901 11.6621 7.53901 12.987C7.53901 14.0152 7.62853 14.9612 7.77774 15.6603C7.85167 16.0067 7.94454 16.3134 8.05987 16.5429C8.11719 16.657 8.18986 16.7721 8.28463 16.8636C8.38084 16.9565 8.5258 17.0484 8.71401 17.0484C8.99844 17.0484 9.20269 16.87 9.32905 16.7051C9.46008 16.5341 9.56148 16.3113 9.63967 16.0711C9.79745 15.5864 9.88901 14.9421 9.88901 14.2504C9.88901 12.3251 10.0831 11.1791 10.5109 10.5123C10.9022 9.90213 11.5405 9.6264 12.7145 9.6264C13.3714 9.6264 13.9853 9.52923 14.4489 9.36055C14.679 9.2768 14.8929 9.16796 15.0566 9.02774C15.2187 8.88896 15.3723 8.68164 15.3723 8.41007C15.3723 8.1415 15.2444 7.9257 15.0708 7.77019C14.9047 7.62145 14.6891 7.51839 14.4646 7.44497C14.0138 7.29752 13.4226 7.23614 12.8019 7.24335C11.5668 7.25769 10.0676 7.54699 9.09682 8.14212ZM46.4276 58.1562C46.4277 58.1564 46.426 58.1554 46.4229 58.1531C46.426 58.155 46.4275 58.156 46.4276 58.1562ZM46.4217 57.7277C46.424 57.726 46.4254 57.7251 46.4257 57.725C46.4261 57.7249 46.4249 57.7258 46.4217 57.7277ZM19.5031 68.1104C19.5561 68.2777 19.6786 68.3853 19.772 68.4495L19.8765 67.9922L19.5031 68.1104C19.5031 68.1104 19.5031 68.1104 19.5031 68.1104ZM19.289 77.682C19.289 77.8857 19.413 78.0178 19.494 78.0825C19.5782 78.1498 19.6786 78.1968 19.7707 78.2319C19.9589 78.3036 20.2154 78.3631 20.5205 78.4151C21.1373 78.5203 22.0352 78.6082 23.1814 78.6792C25.4779 78.8214 28.8164 78.8984 32.9973 78.8984C37.1783 78.8984 40.5168 78.8214 42.8133 78.6792C43.9595 78.6082 44.8574 78.5203 45.4741 78.4151C45.7792 78.3631 46.0357 78.3036 46.224 78.2319C46.3161 78.1968 46.4165 78.1498 46.5007 78.0825C46.5817 78.0178 46.7057 77.8857 46.7057 77.682C46.7057 77.4783 46.5817 77.3462 46.5007 77.2815C46.4165 77.2143 46.3161 77.1672 46.224 77.1321C46.0357 77.0604 45.7792 77.001 45.4741 76.9489C44.8574 76.8438 43.9595 76.7559 42.8133 76.6849C40.5168 76.5426 37.1783 76.4657 32.9973 76.4657C28.8164 76.4657 25.4779 76.5426 23.1814 76.6849C22.0352 76.7559 21.1373 76.8438 20.5205 76.9489C20.2154 77.001 19.9589 77.0604 19.7707 77.1321C19.6786 77.1672 19.5782 77.2143 19.494 77.2815C19.413 77.3462 19.289 77.4783 19.289 77.682Z" fill="#00BA6F" stroke="#00BA6F" stroke-width="0.783333"/>
</svg>
