<svg width="95" height="91" viewBox="0 0 95 91" fill="none" xmlns="http://www.w3.org/2000/svg">
<path d="M93.4677 0H1.53226C0.612903 0 0 0.624438 0 1.5611V73.3715C0 74.3082 0.612903 74.9326 1.53226 74.9326H58.9919C59.1452 75.2448 59.4516 75.5571 59.7581 75.8693V88.9825C59.7581 89.9191 60.371 90.5436 61.2903 90.5436C61.4435 90.5436 61.5968 90.5436 61.75 90.3875L70.4839 87.4214L79.2177 90.3875C79.371 90.3875 79.5242 90.5436 79.6774 90.5436C80.5968 90.5436 81.2097 89.9191 81.2097 88.9825V75.8693C81.5161 75.5571 81.6693 75.2448 81.9758 74.9326H93.4677C94.3871 74.9326 95 74.3082 95 73.3715V1.5611C95 0.624438 94.3871 0 93.4677 0ZM59.6048 58.5411C59.4516 58.6972 59.2984 59.0094 59.1452 59.1655C59.1452 59.3217 58.9919 59.3217 58.9919 59.4778C58.8387 59.79 58.6855 59.9461 58.5323 60.2583L58.379 60.4144C58.0726 61.0389 57.7661 61.8194 57.4597 62.4438H19.7661C19.1532 58.5411 16.0887 55.4189 12.2581 54.7945V20.1381C16.0887 19.5137 19.1532 16.3915 19.7661 12.4888H75.2339C75.8468 16.3915 78.9113 19.5137 82.7419 20.1381V54.7945C81.5161 54.9506 80.2903 55.575 79.2177 56.1995C78.9113 55.8872 78.6048 55.7311 78.2984 55.4189C78.1452 55.4189 78.1452 55.2628 77.9919 55.2628C77.6855 55.1067 77.5323 54.9506 77.2258 54.7945C76.9194 54.6384 76.7661 54.6384 76.6129 54.6384C76.3064 54.4823 76.1532 54.3261 75.8468 54.3261C75.6936 54.3261 75.5403 54.17 75.3871 54.17C75.0806 54.0139 74.9274 54.0139 74.621 53.8578C74.4677 53.8578 74.3145 53.7017 74.1613 53.7017C73.8548 53.7017 73.7016 53.5456 73.3952 53.5456C73.2419 53.5456 73.0887 53.5456 72.9355 53.3895C72.629 53.3895 72.3226 53.2334 72.0161 53.2334C71.8629 53.2334 71.7097 53.2334 71.5564 53.2334C71.0968 53.2334 70.6371 53.2334 70.3306 53.2334C70.0242 53.2334 69.5645 53.2334 69.2581 53.2334C69.1048 53.2334 68.9516 53.2334 68.9516 53.2334C68.6452 53.2334 68.4919 53.2334 68.1855 53.3895C68.0323 53.3895 67.879 53.3895 67.7258 53.5456C67.5726 53.5456 67.2661 53.7017 67.1129 53.7017C66.9597 53.7017 66.8064 53.8578 66.6532 53.8578C66.5 53.8578 66.1935 54.0139 66.0403 54.0139C65.8871 54.0139 65.7339 54.17 65.5806 54.17C65.4274 54.17 65.121 54.3261 64.9677 54.3261C64.8145 54.3261 64.6613 54.4823 64.5081 54.4823C64.3548 54.6384 64.2016 54.6384 63.8952 54.7945C63.7419 54.7945 63.5887 54.9506 63.4355 54.9506C63.2823 55.1067 63.129 55.1067 62.9758 55.2628C62.8226 55.4189 62.6694 55.4189 62.5161 55.575C62.3629 55.7311 62.2097 55.8872 62.0564 55.8872C61.9032 56.0434 61.75 56.0434 61.75 56.1995C61.5968 56.3556 61.4435 56.5117 61.2903 56.6678C61.1371 56.8239 61.1371 56.8239 60.9839 56.98C60.8306 57.1361 60.6774 57.2922 60.5242 57.4483C60.371 57.6044 60.371 57.6045 60.2177 57.7606C60.0645 57.9167 59.9113 58.0728 59.7581 58.2289C59.7581 58.2289 59.6048 58.385 59.6048 58.5411ZM78.1452 86.7969L70.9435 84.2992C70.6371 84.1431 70.3306 84.1431 70.0242 84.2992L62.8226 86.7969V78.8354C62.8226 78.8354 62.9758 78.9915 63.129 78.9915C63.5887 79.3037 63.8952 79.4598 64.3548 79.772C64.5081 79.772 64.5081 79.9281 64.6613 79.9281C65.2742 80.2403 65.7339 80.3965 66.3468 80.5526C66.5 80.5526 66.6532 80.5526 66.8064 80.7087C67.2661 80.8648 67.7258 81.0209 68.1855 81.0209C68.3387 81.0209 68.4919 81.0209 68.6452 81.177C69.871 81.3331 71.0968 81.3331 72.3226 81.177C72.4758 81.177 72.629 81.177 72.7823 81.0209C73.2419 80.8648 73.7016 80.8648 74.1613 80.7087C74.3145 80.7087 74.4677 80.7087 74.621 80.5526C75.2339 80.3965 75.6935 80.0842 76.3064 79.9281C76.4597 79.9281 76.4597 79.772 76.6129 79.772C77.0726 79.6159 77.5323 79.3037 77.8387 78.9915C77.9919 78.9915 77.9919 78.8354 78.1452 78.8354V86.7969ZM79.6774 72.591C79.371 73.2154 78.9113 73.8398 78.4516 74.3082C74.621 78.8354 67.7258 79.3037 63.2823 75.2448C62.9758 74.9326 62.6694 74.6204 62.3629 74.3082C60.6774 72.2787 59.7581 69.781 59.7581 67.1271C59.7581 66.1905 59.9113 65.2538 60.0645 64.3172C61.2903 59.6339 65.5806 56.1995 70.4839 56.1995C70.7903 56.1995 71.25 56.1995 71.5564 56.1995C73.7016 56.3556 75.6936 57.2922 77.2258 58.5411C77.5323 58.6972 77.6855 59.0094 77.9919 59.3217C79.9839 61.3511 81.2097 64.1611 81.2097 67.1271C81.2097 69.0005 80.75 70.8738 79.6774 72.591ZM91.9355 71.8104H83.5081C83.6613 71.4982 83.6613 71.186 83.8145 70.8738V70.7177C83.9677 70.2493 84.121 69.6249 84.121 69.1566C84.121 69.0005 84.121 68.8443 84.121 68.8443C84.5806 65.2538 83.5081 61.5072 81.3629 58.5411C82.2823 58.0728 83.2016 57.7606 84.2742 57.7606C85.1936 57.7606 85.8064 57.1361 85.8064 56.1995V18.7332C85.8064 17.7965 85.1936 17.1721 84.2742 17.1721C80.9032 17.1721 78.1452 14.3621 78.1452 10.9277C78.1452 9.99102 77.5323 9.36658 76.6129 9.36658H18.3871C17.4677 9.36658 16.8548 9.99102 16.8548 10.9277C16.8548 14.3621 14.0968 17.1721 10.7258 17.1721C9.80645 17.1721 9.19355 17.7965 9.19355 18.7332V56.1995C9.19355 57.1361 9.80645 57.7606 10.7258 57.7606C14.0968 57.7606 16.8548 60.5705 16.8548 64.0049C16.8548 64.9416 17.4677 65.566 18.3871 65.566H56.8468C56.8468 66.0344 56.6935 66.6588 56.6935 67.1271C56.6935 67.7516 56.6935 68.2199 56.8468 68.6882C56.8468 68.8443 56.8468 69.0005 56.8468 69.1566C56.8468 69.6249 57 70.2493 57.1532 70.7177V70.8738C57.3064 71.186 57.3064 71.4982 57.4597 71.8104H3.06452V3.12219H91.9355V71.8104Z" fill="#EC555F"/>
<path d="M34.2101 29.6608H60.7909C61.7876 29.6608 62.4521 29.0363 62.4521 28.0997V18.733C62.4521 17.7963 61.7876 17.1719 60.7909 17.1719H34.2101C33.2133 17.1719 32.5488 17.7963 32.5488 18.733V28.0997C32.5488 29.0363 33.2133 29.6608 34.2101 29.6608ZM35.8714 20.2941H59.1296V26.5385H35.8714V20.2941Z" fill="#EC555F"/>
<path d="M30.8879 39.0281H64.1136C65.1104 39.0281 65.7749 38.4035 65.7749 37.4667C65.7749 36.5298 65.1104 35.9053 64.1136 35.9053H30.8879C29.8911 35.9053 29.2266 36.5298 29.2266 37.4667C29.2266 38.4035 29.8911 39.0281 30.8879 39.0281Z" fill="#EC555F"/>
<path d="M70.7583 46.8331C70.7583 45.8963 70.0938 45.2717 69.097 45.2717H25.9035C24.9067 45.2717 24.2422 45.8963 24.2422 46.8331C24.2422 47.77 24.9067 48.3945 25.9035 48.3945H69.097C70.0938 48.3945 70.7583 47.77 70.7583 46.8331Z" fill="#EC555F"/>
</svg>
