<svg width="90" height="80" viewBox="0 0 90 80" fill="none" xmlns="http://www.w3.org/2000/svg">
<path fill-rule="evenodd" clip-rule="evenodd" d="M21.2393 2.54975C20.3957 3.9527 18.9418 6.51028 18.0081 8.23362C17.0735 9.95695 12.6399 17.712 8.15528 25.467L0 39.567L2.84507 44.6586C4.40938 47.459 7.02102 52.0415 8.64722 54.842C12.8396 62.0572 13.7992 63.7351 18.3935 71.8795L22.4801 79.1253H44.9516L67.4223 79.1245L70.63 73.4461C72.3949 70.3222 77.4184 61.516 81.7925 53.8761C86.1675 46.2363 89.7473 39.7644 89.7473 39.4949C89.7473 39.2246 87.9652 35.9581 85.7868 32.235C83.6083 28.5126 78.5817 19.827 74.6172 12.9336L67.4082 0.400283L45.0902 0.19975L22.7723 0L21.2393 2.54975ZM68.714 8.03778C70.2305 10.7309 73.8777 17.1636 76.8192 22.3336C86.9837 40.2038 86.5764 39.3414 85.6873 41.0921C85.2376 41.9765 80.6363 50.1709 75.4616 59.3023L66.0522 75.9034L62.0369 76.3797C59.8287 76.6421 50.279 76.7502 40.8148 76.6202L23.6065 76.3836L19.2089 68.5503C13.0057 57.5006 6.01443 45.2618 5.11517 43.8753C2.58422 39.9751 2.4863 39.1972 4.23 36.8386C5.1653 35.5735 5.93062 34.3092 5.93062 34.0296C5.93062 33.7491 8.16233 29.769 10.8899 25.185C13.6183 20.6009 17.5835 13.7679 19.7024 10.0016L23.5556 3.15213L44.7558 3.14743L65.9559 3.14195L68.714 8.03778ZM38.6646 26.0545L38.439 33.3003L31.1931 33.5259L23.9473 33.7507V39.567V45.3832L31.1931 45.608L38.439 45.8336L38.663 53.4711L38.887 61.1086H45.1255H51.364V53.667V46.2253H58.414H65.464V39.4824V32.7402L58.6098 33.0199L51.7556 33.3003L51.53 26.0545L51.3052 18.8086H45.0973H38.8894L38.6646 26.0545Z" fill="#00BA6F"/>
</svg>
