<svg width="80" height="96" viewBox="0 0 80 96" fill="none" xmlns="http://www.w3.org/2000/svg">
<path d="M48.2999 3.14075L48.3 3.14079C49.8025 4.49489 52.0919 6.16472 53.3678 6.84559C55.2343 7.84093 56.5261 9.22494 57.4422 11.4887C58.3482 13.7275 58.8869 16.8275 59.281 21.2592C59.6474 25.3814 59.7294 28.1159 59.3745 30.1976C59.0144 32.3092 58.2072 33.7385 56.8467 35.2577C56.1209 36.0686 54.3111 38.7399 52.8306 41.2007C50.3728 45.286 47.0933 48.0219 43.5507 49.1786C40.001 50.3376 36.2169 49.9 32.7977 47.6896C31.1769 46.6418 29.1748 44.5598 27.5859 42.5049C26.7883 41.4734 26.0846 40.4357 25.5782 39.5212C25.3251 39.0641 25.1179 38.6317 24.973 38.242C24.8302 37.8577 24.7383 37.4896 24.7383 37.1689C24.7383 37.0438 24.6442 36.8031 24.3906 36.507C24.1503 36.2262 23.8136 35.952 23.4446 35.7591C22.943 35.4969 22.4158 34.9187 21.9623 34.2546C21.4996 33.5773 21.0771 32.7564 20.8046 31.9492C20.4807 30.9904 20.2922 29.5057 20.2084 27.794C20.1241 26.0717 20.1446 24.0846 20.2541 22.101C20.3637 20.1172 20.5627 18.1305 20.8372 16.409C21.1101 14.6968 21.4624 13.2158 21.8899 12.2626C22.6757 10.5107 24.4973 8.29369 26.5488 6.33961C28.6021 4.38382 30.9447 2.63524 32.8122 1.85447L48.2999 3.14075ZM48.2999 3.14075C47.0446 2.00968 46.1918 1.33564 45.0755 0.976997M48.2999 3.14075L45.0755 0.976997M45.0755 0.976997C43.9756 0.623629 42.6511 0.587387 40.4861 0.615922L45.0755 0.976997ZM50.7083 17.3145L50.7084 17.3146C53.5166 18.7825 54.7489 22.1287 54.2892 28.041C53.8478 33.7206 52.0269 38.7226 49.403 42.2961C46.7773 45.8721 43.3766 47.9847 39.7651 47.9906H39.7651C37.9459 47.9939 36.5928 47.7575 35.2856 47.1093C33.968 46.4558 32.6662 45.369 30.9771 43.6128C27.031 39.5099 25.3574 35.1648 24.9233 27.7211C24.7399 24.5762 24.6753 22.9664 24.8868 21.8501C25.0886 20.7846 25.5418 20.17 26.5296 19.0229C27.0796 18.3846 27.7708 17.7744 28.4382 17.3096C29.1196 16.835 29.7245 16.5482 30.1062 16.4953L30.1063 16.4953C32.0816 16.2209 36.8787 16.2362 41.4015 16.4228C43.6557 16.5159 45.8279 16.6509 47.528 16.8114C48.3787 16.8917 49.1063 16.978 49.6648 17.0677C49.9443 17.1126 50.1768 17.1577 50.3588 17.2021C50.5479 17.2483 50.6579 17.2881 50.7083 17.3145ZM1.11798 79.5635L1.50852 79.5927L1.11798 79.5635C0.727314 84.7967 0.537441 87.6214 0.632683 89.3726C0.680787 90.2571 0.802301 90.894 1.01935 91.4423C1.23621 91.9902 1.53925 92.4253 1.90862 92.9086L3.44549 94.9203L3.56224 95.0731L3.75454 95.0742L39.5004 95.2732C42.7297 95.2911 45.6936 95.3126 48.4134 95.3322C54.6105 95.3771 59.5407 95.4128 63.4577 95.3772C69.0825 95.3261 72.6651 95.1287 74.9293 94.5858C76.0663 94.3132 76.9077 93.9455 77.5137 93.4364C78.1298 92.9189 78.474 92.2796 78.6581 91.5238C78.8389 90.7819 78.8671 89.9197 78.8548 88.9452C78.8499 88.5531 78.8386 88.1471 78.8266 87.7195C78.8082 87.059 78.7883 86.347 78.7883 85.5552C78.7883 78.1513 77.6006 68.7621 76.1083 64.5153C74.8519 60.9399 71.2678 58.4285 63.0114 55.0097L63.0114 55.0097C59.8536 53.7026 56.3094 51.9539 55.1305 51.1346C54.4355 50.651 53.878 50.2793 53.4351 50.0297C53.0128 49.7917 52.6205 49.6193 52.281 49.6293C52.0893 49.635 51.907 49.6984 51.7586 49.836C51.6191 49.9654 51.5389 50.1333 51.4889 50.2973C51.3921 50.6149 51.3716 51.0492 51.3716 51.5486C51.3716 51.8098 51.2873 52.254 51.1134 52.8628C50.9426 53.4605 50.6955 54.1834 50.3926 54.9864C49.787 56.5916 48.9654 58.4979 48.1049 60.3272C47.2441 62.1571 46.3483 63.9016 45.5957 65.1847C45.2184 65.8278 44.883 66.3448 44.6104 66.6968C44.4732 66.8739 44.3611 66.9972 44.2756 67.0724C44.2466 67.0978 44.2248 67.1142 44.2098 67.1241C44.0478 67.1091 43.8571 67.004 43.6536 66.7377C43.4341 66.4503 43.2382 66.0204 43.0958 65.4869C42.8113 64.4211 42.7658 63.0385 43.081 61.8111C43.5971 59.8034 43.293 58.0369 42.3751 56.9651C41.9128 56.4254 41.3008 56.0723 40.589 55.9706C39.8801 55.8693 39.1006 56.021 38.3005 56.4394C37.2599 56.9832 36.5509 57.7465 36.2515 58.6894C35.9529 59.6297 36.0812 60.6869 36.5924 61.7835L36.5924 61.7836C37.0965 62.864 37.1068 63.9417 36.5808 65.2927L36.5808 65.2928C36.373 65.8267 36.1674 66.2387 35.964 66.5362C35.7583 66.8372 35.5751 66.9913 35.4241 67.0563C35.2912 67.1135 35.1496 67.1171 34.9651 67.0313C34.7654 66.9383 34.5203 66.7407 34.2303 66.3926C33.6506 65.6968 32.9781 64.5067 32.1882 62.7564C31.4017 61.0135 30.5107 58.7427 29.4871 55.9067L27.416 50.1676L27.2657 49.7512L26.8707 49.9511L17.0422 54.925L17.2191 55.2744L17.0422 54.925C11.6464 57.6559 6.59412 60.272 5.83144 60.7325C5.17281 61.1301 4.61431 61.8081 4.13113 62.7438C3.64708 63.6812 3.22508 64.9036 2.85288 66.4271C2.10858 69.4739 1.54962 73.7845 1.11798 79.5635ZM27.5166 56.7153L27.5166 56.7153C28.5209 60.0897 30.935 64.7665 33.3702 68.5901C34.5894 70.5045 35.823 72.2194 36.8999 73.4604C37.4374 74.0799 37.9446 74.5915 38.3986 74.9516C38.6257 75.1317 38.8476 75.2804 39.0602 75.3855C39.27 75.4891 39.4932 75.5615 39.7164 75.5615C39.9496 75.5615 40.182 75.4776 40.3969 75.363C40.6161 75.246 40.8469 75.0808 41.0844 74.8813C41.5594 74.4823 42.0955 73.9169 42.6649 73.2369C43.8053 71.8748 45.1126 70.0124 46.3751 67.9928C47.6385 65.9719 48.8629 63.7842 49.8363 61.768C50.8057 59.7598 51.5397 57.8942 51.8025 56.526L51.8025 56.5259C51.9906 55.5462 52.2022 54.802 52.4526 54.2641C52.7032 53.7259 52.9736 53.4347 53.2573 53.2971C53.5352 53.1623 53.8967 53.1409 54.4077 53.2972C54.9234 53.455 55.5529 53.7828 56.3278 54.2931L56.3279 54.2931C57.0465 54.7659 57.6716 55.2518 58.0989 55.6495C58.3142 55.8499 58.4679 56.0175 58.5583 56.1421C58.5831 56.1762 58.6001 56.203 58.6114 56.2228C58.5847 56.3212 58.5634 56.437 58.5456 56.5554C58.5205 56.7222 58.4986 56.9213 58.4804 57.1383C58.444 57.5725 58.4216 58.0921 58.4216 58.5947C58.4216 59.5667 57.865 60.3789 56.7334 60.8821L56.7333 60.8822C55.3216 61.5105 54.2816 62.5803 53.4084 64.4484C52.5438 66.2983 51.8305 68.9566 51.0705 72.7982C50.3619 76.3775 49.6119 80.0588 49.4019 80.981L49.4019 80.9813C49.2335 81.7234 49.3125 82.3713 49.7674 83.0276C50.1974 83.648 50.9519 84.2578 52.0629 84.9954L52.2795 84.6691L52.0629 84.9954C52.809 85.4907 53.4578 85.8702 54.0135 86.1275C54.5625 86.3818 55.054 86.5327 55.476 86.5348C55.9232 86.537 56.3037 86.3692 56.5503 85.9997C56.7762 85.6613 56.855 85.2033 56.855 84.6897C56.855 84.1366 56.5168 83.7445 56.0204 83.514C55.5437 83.2926 54.8831 83.1954 54.089 83.1954C53.4176 83.1954 52.8305 83.0826 52.3906 82.8988C51.9414 82.7111 51.6975 82.4731 51.6124 82.257C51.596 82.2153 51.5745 82.1232 51.5613 81.9616C51.5486 81.8064 51.5452 81.6102 51.5518 81.3749C51.565 80.9045 51.6173 80.3016 51.7025 79.6021C51.8727 78.2046 52.1712 76.448 52.5348 74.6483C52.8982 72.8491 53.3255 71.0131 53.7521 69.4574C54.1819 67.8899 54.6021 66.6412 54.9452 65.993C55.788 64.401 56.8312 63.3051 57.9242 62.7333C59.0069 62.1669 60.1528 62.105 61.2617 62.5987L61.2618 62.5987C62.4847 63.1429 63.4393 64.119 64.2873 65.9935C65.1421 67.8832 65.8725 70.6513 66.6536 74.7315C67.017 76.6293 67.2744 78.126 67.416 79.305C67.5583 80.49 67.5796 81.3246 67.487 81.9104C67.3961 82.4853 67.2046 82.7702 66.957 82.933C66.6865 83.1109 66.2734 83.1954 65.6267 83.1954C65.0217 83.1954 64.5019 83.2425 64.0781 83.3396C63.661 83.4353 63.299 83.5879 63.0494 83.828C62.7802 84.0871 62.6673 84.425 62.7285 84.7962C62.7853 85.1404 62.9861 85.4845 63.2712 85.8202L63.5697 85.5666L63.2712 85.8202C63.4607 86.0432 63.6775 86.2292 63.9483 86.339C64.2225 86.4502 64.5164 86.469 64.8357 86.4164C65.4457 86.316 66.2195 85.9398 67.2832 85.3267L67.0877 84.9874L67.2833 85.3267C68.0632 84.8772 68.704 84.4759 69.1692 83.9773C69.6514 83.4607 69.931 82.857 70.0363 82.0346C70.1393 81.2305 70.0763 80.2127 69.8855 78.8553C69.6941 77.4934 69.3691 75.7582 68.9323 73.5089L68.5478 73.5835C67.1472 66.3737 65.0228 61.7244 62.8154 61.0403L62.9314 60.6662C62.9314 60.6662 62.9314 60.6662 62.9313 60.6661C62.1505 60.4238 61.5352 59.8366 61.2336 59.206C60.9292 58.5696 60.9804 57.9955 61.3267 57.652C61.3326 57.649 61.3566 57.6378 61.4121 57.629C61.4961 57.6157 61.6187 57.6132 61.7849 57.6295C62.1165 57.662 62.5603 57.7629 63.0907 57.9256C64.1475 58.2498 65.4858 58.7996 66.8357 59.4487C68.1845 60.0974 69.532 60.8388 70.6075 61.5415C71.1456 61.893 71.6097 62.2309 71.9702 62.5392C72.3379 62.8538 72.5695 63.1139 72.6748 63.306C74.5939 66.8097 75.7597 72.949 76.1983 82.1793C76.4286 87.0379 76.5388 89.4042 76.3595 90.7226C76.2725 91.3625 76.1224 91.704 75.9175 91.955C75.699 92.2229 75.3942 92.4227 74.894 92.7426L74.8939 92.7427C74.5253 92.9787 74.014 93.1815 72.9517 93.3408C71.8849 93.5009 70.2932 93.613 67.783 93.6854C62.7659 93.8299 54.1432 93.8142 38.8539 93.7254L4.73459 93.5268L3.31049 91.6625L3.31043 91.6624C2.94893 91.1894 2.6991 90.8269 2.52445 90.4156C2.35172 90.0088 2.24372 89.5323 2.20332 88.8298C2.12112 87.401 2.32058 85.1313 2.74825 80.7989L2.35847 80.7604L2.74825 80.7989C3.2574 75.6402 3.87748 71.5155 4.60299 68.4319C4.96573 66.8902 5.35308 65.6164 5.76268 64.6074C6.174 63.5941 6.59896 62.8702 7.02617 62.4091L7.02621 62.4091C7.34701 62.0628 8.05824 61.5581 9.01825 60.9831C9.96465 60.4162 11.1142 59.8033 12.2763 59.2378C13.4386 58.6723 14.6071 58.1572 15.5912 57.7846C16.0834 57.5982 16.5248 57.4492 16.8935 57.3474C17.27 57.2434 17.5429 57.1965 17.7095 57.1965C17.7683 57.1965 17.7995 57.2084 17.8224 57.2231C17.8484 57.2398 17.8937 57.2797 17.9479 57.381C18.0638 57.5974 18.1723 58.0002 18.256 58.7156C18.4217 60.1316 18.4716 62.5717 18.4716 66.6645C18.4716 71.523 18.4608 73.9468 18.219 75.3191C18.1009 75.9893 17.934 76.3637 17.7152 76.6387C17.4879 76.9241 17.1807 77.1361 16.6939 77.4477L16.905 77.7776L16.6938 77.4477C14.6918 78.7293 14.1649 80.7575 14.8152 82.4749C15.4605 84.1794 17.2364 85.5091 19.6842 85.5091C21.3349 85.5091 22.6078 84.8563 23.4969 83.5305C24.2554 82.3995 24.5129 81.2577 24.1897 80.1132C23.8722 78.989 23.0129 77.9309 21.6902 76.9084L21.4507 77.2182L21.6902 76.9084C21.2664 76.5808 20.9847 76.3314 20.7737 76.008C20.5647 75.6877 20.4065 75.2648 20.2941 74.5685C20.0653 73.1524 20.0446 70.7507 20.0501 66.1232C20.0536 63.4612 20.1212 60.9483 20.2272 59.0453C20.2802 58.0931 20.3426 57.2984 20.4106 56.716C20.4447 56.4241 20.4795 56.1919 20.5139 56.0226C20.5311 55.9377 20.5471 55.8745 20.5609 55.8304C20.5684 55.8065 20.5737 55.7934 20.5759 55.7882C20.6205 55.7262 20.7156 55.6262 20.8742 55.4908C21.0348 55.3537 21.2408 55.1968 21.4816 55.0272C21.9627 54.6883 22.5662 54.31 23.186 53.9543C23.8059 53.5986 24.4355 53.2692 24.9679 53.0265C25.2344 52.9051 25.4718 52.8075 25.6688 52.7393C25.7842 52.6993 25.877 52.6726 25.9483 52.6562C25.97 52.687 25.9961 52.7272 26.0264 52.7785C26.1431 52.9754 26.2885 53.2757 26.4524 53.6644C26.7786 54.4381 27.1604 55.518 27.5166 56.7153ZM58.6311 56.264C58.6311 56.2641 58.6305 56.2626 58.6297 56.2596C58.6307 56.2624 58.6312 56.2639 58.6311 56.264ZM40.486 0.615924C39.1479 0.633051 37.6237 0.779602 36.2436 1.00115C34.8706 1.22156 33.6098 1.52095 32.8122 1.85446L40.486 0.615924Z" fill="#00BA6F" stroke="#00BA6F" stroke-width="0.783333"/>
</svg>
