<svg width="80" height="57" viewBox="0 0 80 57" fill="none" xmlns="http://www.w3.org/2000/svg">
<path d="M80 47.4997C80 49.1658 79.5067 50.7104 78.7164 52.0694L53.4572 25.2209L78.4426 4.45386C79.4145 5.91916 80 7.6404 80 9.50042V47.4997ZM40.0001 30.0958L74.7665 1.19699C73.3398 0.455019 71.7332 0 70.0002 0H9.99994C8.26478 0 6.65772 0.455019 5.23681 1.19699L40.0001 30.0958ZM49.6927 28.3474L41.6452 35.041C41.1745 35.4305 40.5884 35.6251 40.0001 35.6251C39.4115 35.6251 38.8253 35.4305 38.3546 35.041L30.3053 28.3471L4.72652 55.5388C6.25971 56.4526 8.05654 57 9.99977 57H70.0002C71.9431 57 73.7408 56.4526 75.2735 55.5388L49.6927 28.3474ZM1.55776 4.4537C0.585972 5.919 0 7.64024 0 9.50042V47.4999C0 49.166 0.491003 50.7106 1.28422 52.0695L26.5405 25.2163L1.55776 4.4537Z" fill="url(#paint0_linear)" fill-opacity="0.3"/>
<defs>
<linearGradient id="paint0_linear" x1="0.804733" y1="57" x2="89.9433" y2="27.1317" gradientUnits="userSpaceOnUse">
<stop stop-color="#FF3541"/>
<stop offset="0.984375" stop-color="#FF6D2F"/>
</linearGradient>
</defs>
</svg>
