<svg width="159" height="159" viewBox="0 0 159 159" fill="none" xmlns="http://www.w3.org/2000/svg">
<path d="M114.525 51.8848C114.362 51.5655 114.146 51.2685 113.872 51.0197C113.597 50.7717 113.289 50.5897 112.967 50.4744L96.0814 44.4056C94.905 43.9828 93.6451 43.756 92.3337 43.7678C91.0236 43.7818 89.7695 44.0335 88.5991 44.479L75.7869 49.3665C74.885 49.7113 73.9898 50.1078 73.1069 50.559C72.8119 50.7115 72.5221 50.8769 72.2337 51.0389C71.2665 50.5149 70.2566 50.0533 69.2029 49.6606C65.8418 48.4042 62.4002 47.9802 59.0692 48.2649L50.4494 49.0047C50.0744 49.0371 49.6958 49.1529 49.342 49.3608C48.9883 49.5692 48.6962 49.8504 48.4666 50.1754L29.0578 77.8056C28.6579 78.3729 28.4443 79.095 28.5097 79.859C28.5736 80.6229 28.9024 81.2928 29.388 81.7744L37.8301 90.1411C37.3672 90.9888 37.0736 91.9405 37.006 92.959C36.8841 94.7893 37.4853 96.5562 38.6929 97.9351C39.9024 99.3133 41.5747 100.139 43.4065 100.258C43.5039 100.265 43.6031 100.265 43.7023 100.269C42.9516 102.696 43.5659 105.452 45.5214 107.303C46.6919 108.411 48.1925 109.057 49.7872 109.16C48.7598 111.706 49.3154 114.743 51.4149 116.73C52.6954 117.943 54.37 118.61 56.135 118.61C57.9725 118.61 59.6867 117.893 60.9812 116.597C61.4625 119.707 64.0465 122.186 67.3144 122.4C67.4649 122.41 67.6188 122.417 67.7693 122.417C68.6043 122.417 69.4044 122.259 70.1483 121.982C71.3634 122.792 72.8122 123.238 74.3539 123.176C76.2487 123.097 77.9483 122.261 79.2193 120.953L74.5763 116.32C74.5872 116.213 74.607 116.11 74.6116 115.999C74.6718 115.09 74.5471 114.209 74.2762 113.391L83.7786 122.869C84.9777 123.357 86.2826 123.601 87.6416 123.546C90.3612 123.435 92.7837 122.151 94.4994 120.164L95.4505 119.061C95.5385 118.957 95.6062 118.839 95.6646 118.713L81.0339 104.123C80.6566 103.749 80.6265 103.128 80.9613 102.737C81.2967 102.348 81.8778 102.334 82.2522 102.708L99.6523 120.06C100.601 120.392 101.615 120.554 102.67 120.511C105.061 120.413 107.194 119.284 108.702 117.534L111 114.874C111.527 114.261 111.841 113.433 111.811 112.533L96.5421 97.3104C96.1692 96.9361 96.1356 96.3132 96.4701 95.925C96.8078 95.5354 97.3875 95.5223 97.761 95.8958L113.102 111.193C113.732 111.361 114.393 111.443 115.073 111.416C117.033 111.337 118.776 110.412 120.011 108.979L120.628 108.264C121.863 106.834 122.591 104.896 122.517 102.789C122.442 100.683 121.583 98.812 120.252 97.4836L116.156 93.4004L117.191 94.4307L128.265 84.4312C128.735 84.0083 129.076 83.4164 129.201 82.7207C129.326 82.0258 129.213 81.3395 128.925 80.7591L114.525 51.8848ZM43.5988 97.2975C42.5605 97.2299 41.6108 96.7618 40.9232 95.9781C40.2363 95.1966 39.8972 94.1933 39.9663 93.1527C40.0976 91.1106 41.8075 89.5113 43.8491 89.5113C43.9356 89.5113 44.0237 89.5136 44.1102 89.5188C45.1485 89.5879 46.0982 90.0551 46.7859 90.8388C47.4727 91.622 47.8118 92.6244 47.7451 93.665C47.6026 95.7937 45.7525 97.4414 43.5988 97.2975ZM50.2378 106.214C49.2377 106.214 48.2866 105.837 47.5602 105.149C46.0182 103.691 45.9348 101.235 47.3658 99.6825C47.4401 99.6054 48.9605 97.997 49.69 97.2293L50.073 96.822C50.8172 96.0368 51.8225 95.6037 52.9041 95.6037C53.9051 95.6037 54.8568 95.9832 55.5817 96.6721C56.3382 97.3867 56.7719 98.3533 56.8 99.3953C56.8287 100.434 56.45 101.424 55.7351 102.178L54.6504 103.325C54.4185 103.569 54.1696 103.832 53.9151 104.101C53.8747 104.146 53.83 104.192 53.791 104.234C53.6018 104.433 53.4344 104.609 53.3045 104.745C53.2303 104.825 53.1563 104.905 53.0801 104.983C53.0609 105.003 53.0448 105.022 53.0448 105.022C52.3067 105.791 51.3079 106.214 50.2378 106.214ZM58.9391 114.452C58.1986 115.221 57.2028 115.643 56.1336 115.643C55.1325 115.643 54.1794 115.264 53.455 114.576C51.9139 113.118 51.8297 110.663 53.2561 109.117C53.2899 109.081 54.1828 108.136 55.1947 107.068L55.9461 106.274C57.2618 104.881 57.6933 104.428 57.8386 104.27C57.8555 104.255 57.8753 104.236 57.8893 104.22L57.8922 104.218C58.0192 104.081 58.0931 104.004 58.0954 104.002C58.8382 103.217 59.8449 102.783 60.9273 102.783C61.9283 102.783 62.8781 103.162 63.605 103.85C64.3615 104.567 64.7932 105.534 64.8216 106.573C64.8503 107.616 64.4716 108.605 63.7538 109.363C63.685 109.437 59.0896 114.292 58.9391 114.452ZM71.6521 115.807C71.5111 117.934 69.6641 119.584 67.5073 119.442C65.3631 119.299 63.7323 117.44 63.8739 115.297C64.0081 113.253 65.7114 111.654 67.7558 111.654C67.8424 111.654 67.9304 111.657 68.017 111.662C70.1612 111.803 71.7917 113.663 71.6521 115.807ZM115.153 92.3991L86.5548 63.6584L85.8492 62.9528L85.1435 62.2472L83.7323 60.8359H83.0267H81.6154L80.2042 62.9528C80.2019 63.0136 78.5133 68.4709 75.1281 74.4686C71.6578 80.6235 67.0595 82.7456 66.3587 82.8821C65.5755 83.034 64.7545 83.1785 64.072 83.1785C63.603 83.1785 63.2421 83.1125 62.9331 82.9709L61.7816 82.4374C61.2986 82.2136 60.9302 81.8028 60.7359 81.2788C60.5464 80.7731 60.5487 80.2204 60.7359 79.7165L72.2727 54.3974L74.2343 53.1051L75.0246 52.8041H75.0232L89.5224 47.2739C90.434 46.9267 91.3885 46.7447 92.358 46.7358L92.4389 46.735C93.3797 46.735 94.3116 46.8978 95.204 47.2194L112.09 53.2883L126.492 82.1614L115.153 92.3991Z" fill="black"/>
<path d="M131.567 33.4441L120.168 39.1277C118.528 39.9472 117.199 41.3917 116.57 43.2673C115.943 45.1438 116.138 47.0965 116.953 48.7396L131.879 78.6622C132.697 80.3007 134.14 81.6328 136.02 82.258C137.894 82.8861 139.847 82.6946 141.489 81.8756L152.886 76.1892L131.567 33.4441ZM141.46 76.207C139.946 76.207 138.714 74.9792 138.714 73.4631C138.714 71.9455 139.946 70.7149 141.46 70.7149C142.977 70.7149 144.208 71.9455 144.208 73.4631C144.208 74.9792 142.977 76.207 141.46 76.207Z" fill="url(#paint0_linear)"/>
<path d="M46.9363 42.5283C46.5937 40.5784 45.4987 38.9522 43.9972 37.897L33.5737 30.5769L6.11523 69.6645L16.5373 76.9861C18.0374 78.0413 19.9402 78.522 21.8892 78.1809C23.8396 77.8412 25.4644 76.7418 26.5176 75.2426L45.7392 47.8805C46.7953 46.381 47.276 44.4761 46.9363 42.5283ZM20.5362 69.0789C20.3094 70.5804 18.9114 71.6129 17.4107 71.3848C15.9101 71.1603 14.8781 69.7614 15.1049 68.2599C15.331 66.7598 16.7302 65.7273 18.228 65.9526C19.7295 66.1796 20.7606 67.5797 20.5362 69.0789Z" fill="url(#paint1_linear)"/>
<defs>
<linearGradient id="paint0_linear" x1="134.543" y1="33.4441" x2="134.543" y2="82.6306" gradientUnits="userSpaceOnUse">
<stop stop-color="#FF7209"/>
<stop offset="1" stop-color="#FFC266"/>
</linearGradient>
<linearGradient id="paint1_linear" x1="26.5796" y1="30.5769" x2="26.5796" y2="78.2894" gradientUnits="userSpaceOnUse">
<stop stop-color="#FF7209"/>
<stop offset="1" stop-color="#FFC266"/>
</linearGradient>
</defs>
</svg>
