<svg width="87" height="70" viewBox="0 0 87 70" fill="none" xmlns="http://www.w3.org/2000/svg">
<g clip-path="url(#clip0)">
<path d="M59.092 8.69995H47.415C46.3275 8.69995 45.2808 9.10776 44.4788 9.84183L31.1161 22.0762C31.1025 22.0898 31.0889 22.117 31.0753 22.1306C28.8188 24.2512 28.8595 27.636 30.7898 29.7431C32.5163 31.6326 36.1458 32.1356 38.4159 30.1101C38.4295 30.0965 38.4567 30.0965 38.4703 30.0829L49.3317 20.1323C50.2153 19.3303 51.6019 19.3846 52.4039 20.2682C53.2195 21.1518 53.1516 22.5248 52.268 23.3404L48.72 26.5893L68.5125 42.6571C68.9067 42.9834 69.2602 43.3368 69.5864 43.7039V17.4L62.1642 9.97776C61.3622 9.16214 60.2475 8.69995 59.092 8.69995ZM73.95 17.4271V47.8635C73.95 50.2696 75.8939 52.2135 78.3 52.2135H87V17.4271H73.95ZM80.475 47.8635C79.2787 47.8635 78.3 46.8848 78.3 45.6885C78.3 44.4923 79.2787 43.5135 80.475 43.5135C81.6712 43.5135 82.65 44.4923 82.65 45.6885C82.65 46.8848 81.6712 47.8635 80.475 47.8635ZM0 52.2H8.7C11.1061 52.2 13.05 50.256 13.05 47.8499V17.4271H0V52.2ZM6.525 43.5135C7.72125 43.5135 8.7 44.4923 8.7 45.6885C8.7 46.8848 7.72125 47.8635 6.525 47.8635C5.32875 47.8635 4.35 46.8848 4.35 45.6885C4.35 44.4787 5.32875 43.5135 6.525 43.5135ZM65.7802 46.042L45.4847 29.5664L41.4066 33.3046C37.3692 36.9885 31.1841 36.6351 27.5817 32.7065C23.925 28.71 24.2105 22.5248 28.1798 18.8817L39.2995 8.69995H27.908C26.7525 8.69995 25.6514 9.16214 24.8358 9.97776L17.4 17.4V47.8364H19.8877L32.19 58.9696C35.9147 62.001 41.393 61.4301 44.4244 57.7054L44.4516 57.6782L46.8848 59.7853C49.0462 61.5524 52.2408 61.2126 53.9944 59.0512L58.2628 53.804L58.9969 54.4021C60.8592 55.911 63.6052 55.6392 65.1141 53.7632L66.4055 52.1728C67.928 50.2968 67.6425 47.5645 65.7802 46.042Z" fill="#23282D"/>
</g>
<defs>
<clipPath id="clip0">
<rect width="87" height="69.6" fill="white"/>
</clipPath>
</defs>
</svg>
