<svg width="60" height="60" viewBox="0 0 60 60" fill="none" xmlns="http://www.w3.org/2000/svg">
<path fill-rule="evenodd" clip-rule="evenodd" d="M18.6605 2.66476C21.593 2.52976 22.528 2.49976 29.998 2.49976C37.468 2.49976 38.403 2.53226 41.333 2.66476C44.263 2.79726 46.263 3.26476 48.013 3.94226C49.8455 4.63476 51.508 5.71726 52.883 7.11726C54.283 8.48976 55.363 10.1498 56.053 11.9848C56.733 13.7348 57.198 15.7348 57.333 18.6598C57.468 21.5973 57.498 22.5323 57.498 29.9998C57.498 37.4698 57.4655 38.4048 57.333 41.3373C57.2005 44.2623 56.733 46.2623 56.053 48.0123C55.363 49.8475 54.2812 51.5103 52.883 52.8848C51.508 54.2847 49.8455 55.3648 48.013 56.0548C46.263 56.7348 44.263 57.1997 41.338 57.3348C38.403 57.4697 37.468 57.4998 29.998 57.4998C22.528 57.4998 21.593 57.4673 18.6605 57.3348C15.7355 57.2023 13.7355 56.7348 11.9855 56.0548C10.1503 55.3647 8.4876 54.2829 7.11305 52.8848C5.714 51.5114 4.63133 49.8495 3.94055 48.0148C3.26305 46.2648 2.79805 44.2648 2.66305 41.3398C2.52805 38.4023 2.49805 37.4673 2.49805 29.9998C2.49805 22.5298 2.53055 21.5948 2.66305 18.6648C2.79555 15.7348 3.26305 13.7348 3.94055 11.9848C4.63235 10.15 5.71584 8.48804 7.11555 7.11476C8.48815 5.71601 10.1492 4.63336 11.983 3.94226C13.733 3.26476 15.733 2.79976 18.658 2.66476H18.6605ZM41.1105 7.61476C38.2105 7.48226 37.3405 7.45476 29.998 7.45476C22.6555 7.45476 21.7855 7.48226 18.8855 7.61476C16.203 7.73726 14.748 8.18476 13.778 8.56226C12.4955 9.06225 11.578 9.65476 10.6155 10.6173C9.70316 11.5049 9.001 12.5855 8.56055 13.7798C8.18305 14.7498 7.73555 16.2048 7.61305 18.8873C7.48055 21.7873 7.45305 22.6573 7.45305 29.9998C7.45305 37.3423 7.48055 38.2123 7.61305 41.1123C7.73555 43.7948 8.18305 45.2498 8.56055 46.2198C9.00055 47.4123 9.70305 48.4948 10.6155 49.3823C11.503 50.2948 12.5855 50.9973 13.778 51.4373C14.748 51.8148 16.203 52.2623 18.8855 52.3848C21.7855 52.5173 22.653 52.5448 29.998 52.5448C37.343 52.5448 38.2105 52.5173 41.1105 52.3848C43.793 52.2623 45.2481 51.8148 46.218 51.4373C47.5005 50.9373 48.418 50.3448 49.3805 49.3823C50.293 48.4948 50.9955 47.4123 51.4355 46.2198C51.813 45.2498 52.2605 43.7948 52.383 41.1123C52.5155 38.2123 52.543 37.3423 52.543 29.9998C52.543 22.6573 52.5155 21.7873 52.383 18.8873C52.2605 16.2048 51.813 14.7498 51.4355 13.7798C50.9355 12.4973 50.343 11.5798 49.3805 10.6173C48.4929 9.70493 47.4123 9.00278 46.218 8.56226C45.2481 8.18476 43.793 7.73726 41.1105 7.61476ZM26.4855 38.4773C28.4472 39.2938 30.6315 39.404 32.6654 38.7891C34.6992 38.1741 36.4565 36.872 37.6371 35.1054C38.8176 33.3387 39.3482 31.2169 39.1382 29.1025C38.9281 26.9881 37.9906 25.0122 36.4855 23.5123C35.5261 22.5534 34.3661 21.8193 33.0889 21.3626C31.8117 20.906 30.4491 20.7382 29.0993 20.8713C27.7495 21.0044 26.4459 21.4352 25.2826 22.1326C24.1192 22.83 23.1249 23.7766 22.3713 24.9044C21.6177 26.0321 21.1235 27.313 20.9243 28.6547C20.7252 29.9963 20.8259 31.3655 21.2194 32.6635C21.6129 33.9616 22.2892 35.1563 23.1998 36.1616C24.1104 37.1668 25.2326 37.9577 26.4855 38.4773ZM20.003 20.0048C21.3156 18.6922 22.8738 17.651 24.5888 16.9407C26.3037 16.2303 28.1418 15.8647 29.998 15.8647C31.8543 15.8647 33.6924 16.2303 35.4073 16.9407C37.1222 17.651 38.6805 18.6922 39.993 20.0048C41.3056 21.3173 42.3468 22.8756 43.0571 24.5905C43.7675 26.3054 44.1331 28.1435 44.1331 29.9998C44.1331 31.856 43.7675 33.6941 43.0571 35.409C42.3468 37.124 41.3056 38.6822 39.993 39.9948C37.3422 42.6456 33.7469 44.1348 29.998 44.1348C26.2492 44.1348 22.6539 42.6456 20.003 39.9948C17.3522 37.3439 15.863 33.7486 15.863 29.9998C15.863 26.2509 17.3522 22.6556 20.003 20.0048ZM47.2681 17.9698C47.5933 17.6629 47.8537 17.294 48.0338 16.8847C48.2139 16.4754 48.3101 16.0342 48.3166 15.5871C48.3231 15.14 48.2399 14.6961 48.0718 14.2818C47.9037 13.8674 47.6541 13.491 47.3379 13.1749C47.0218 12.8587 46.6454 12.6091 46.231 12.441C45.8167 12.273 45.3728 12.1897 44.9257 12.1962C44.4786 12.2027 44.0374 12.2989 43.6281 12.479C43.2188 12.6591 42.8499 12.9195 42.543 13.2448C41.9463 13.8773 41.6196 14.7176 41.6323 15.5871C41.645 16.4566 41.996 17.287 42.6109 17.9019C43.2258 18.5168 44.0562 18.8678 44.9257 18.8805C45.7952 18.8932 46.6355 18.5665 47.2681 17.9698Z" fill="#23282D"/>
</svg>
