<svg width="30" height="31" viewBox="0 0 30 31" fill="none" xmlns="http://www.w3.org/2000/svg">
<path d="M28.88 1.12572C28.16 0.402043 27.2 0 26.16 0H3.84C2.8 0 1.92 0.402043 1.12 1.12572C0.4 1.92981 0 2.8143 0 3.85961V26.2936C0 27.3389 0.4 28.3038 1.12 29.0275C1.84 29.7512 2.8 30.1532 3.84 30.1532H26.16C27.2 30.1532 28.16 29.7512 28.88 29.0275C29.6 28.3038 30 27.3389 30 26.2936V3.85961C30 2.8143 29.68 1.92981 28.88 1.12572ZM10.8 10.8552C12 9.72944 13.36 9.16658 15.04 9.16658C16.72 9.16658 18.16 9.72944 19.28 10.8552C20.48 11.9809 21.04 13.3478 21.04 15.0364C21.04 16.6446 20.48 18.0115 19.28 19.2176C18.08 20.3434 16.64 20.9062 15.04 20.9062C13.36 20.9062 12 20.3434 10.8 19.2176C9.6 18.0919 9.04 16.725 9.04 15.0364C9.04 13.4282 9.6 12.0613 10.8 10.8552ZM26.64 25.4895C26.64 25.8112 26.56 26.1328 26.32 26.374C26.08 26.6152 25.84 26.6956 25.44 26.6956H4.56C4.24 26.6956 3.92 26.6152 3.68 26.374C3.44 26.1328 3.36 25.8916 3.36 25.4895V12.785H6.08C5.84 13.589 5.68 14.4735 5.68 15.358C5.68 17.8507 6.56 20.0217 8.4 21.7907C10.24 23.5597 12.4 24.4442 14.96 24.4442C16.64 24.4442 18.24 24.0422 19.68 23.2381C21.12 22.434 22.24 21.3083 23.12 19.9413C23.92 18.5744 24.4 17.0466 24.4 15.358C24.4 14.4735 24.24 13.589 24 12.785H26.64V25.4895ZM26.64 7.96045C26.64 8.36249 26.48 8.68413 26.24 8.92535C26 9.16658 25.68 9.32739 25.28 9.32739H21.84C21.44 9.32739 21.12 9.16658 20.88 8.92535C20.64 8.68413 20.48 8.36249 20.48 7.96045V4.74411C20.48 4.34206 20.64 4.02043 20.88 3.7792C21.12 3.53798 21.44 3.37716 21.84 3.37716H25.28C25.68 3.37716 26 3.53798 26.24 3.7792C26.48 4.02043 26.64 4.34206 26.64 4.74411V7.96045Z" fill="white"/>
</svg>
