<svg width="95" height="123" viewBox="0 0 95 123" fill="none" xmlns="http://www.w3.org/2000/svg">
<path fill-rule="evenodd" clip-rule="evenodd" d="M0 122.834H47.5H95V61.6531V0.471924V122.834H0ZM64.4329 15.9394C68.9208 18.2371 71.2557 24.2533 70.7006 32.0946C70.4545 35.5774 69.8433 39.3197 69.342 40.4096C68.527 42.1816 69.184 42.3923 75.5296 42.3923C87.5648 42.3923 93.8898 48.4504 92.2175 58.3765C84.5695 103.75 83.2646 105.839 62.5649 105.839C54.1122 105.839 49.5557 105.176 41.6192 102.789C34.9909 100.797 27.5763 99.5208 20.2213 99.1073C10.8529 98.5816 8.69422 98.1068 7.34476 96.2759C4.99837 93.0934 4.99837 55.1384 7.34362 51.9559C8.67018 50.1567 10.798 49.6536 19.032 49.1902L29.0998 48.6238L36.2705 40.1456C42.0495 33.3137 43.6943 30.4677 44.7381 25.4882C45.6149 21.3075 47.1143 18.2405 49.376 16.0029C52.2912 13.116 53.2549 12.7943 56.9359 13.4786C59.2571 13.9091 62.6302 15.0172 64.4329 15.9394ZM53.8101 23.4149C53.2149 24.8175 52.1859 28.0975 51.5209 30.7045C49.7502 37.6587 34.6407 55.9882 30.6793 55.9882C28.7758 55.9882 28.6145 57.401 28.6145 74.1159V92.2437H31.2756C32.7395 92.2437 37.7608 93.55 42.4352 95.1475C51.2245 98.1499 65.1025 99.8902 70.1855 98.628C74.4708 97.563 76.6868 94.8269 76.6868 90.602C76.6868 88.5422 77.4593 86.2218 78.4036 85.4457C79.4452 84.5903 80.1205 82.1091 80.1205 79.143C80.1205 76.451 80.6951 73.8984 81.3967 73.469C82.1601 73.0022 82.4554 70.7713 82.1315 67.9253C81.7893 64.9229 82.1636 62.3861 83.1445 61.0583C85.3672 58.049 85.0639 54.0836 82.4096 51.4562C80.4421 49.5086 78.5948 49.1902 69.247 49.1902C56.8764 49.1902 57.0011 49.3217 60.6627 40.1264C61.9217 36.9642 62.9518 32.3575 62.9518 29.8876C62.9518 22.5515 56.2022 17.7726 53.8101 23.4149ZM14.1699 87.0908C13.2828 89.3806 14.6025 91.1107 17.2362 91.1107C18.8432 91.1107 19.4578 90.3266 19.4578 88.2782C19.4578 86.1867 18.8501 85.4457 17.1332 85.4457C15.8536 85.4457 14.5201 86.1856 14.1699 87.0908Z" fill="#051E36"/>
</svg>
