<svg width="535" height="36" viewBox="0 0 535 36" fill="none" xmlns="http://www.w3.org/2000/svg">
<path d="M2 4L504 5" stroke="black"/>
<circle cx="141" cy="4" r="4" fill="#002E55"/>
<circle cx="22" cy="4" r="4" fill="#002E55"/>
<circle cx="262" cy="4" r="4" fill="#002E55"/>
<circle cx="382" cy="5" r="4" fill="#002E55"/>
<circle cx="505" cy="5" r="4" fill="#002E55"/>
<path d="M482.977 30.4531C482.378 30.7344 481.862 30.9271 481.43 31.0312C481.003 31.1406 480.576 31.1953 480.148 31.1953C479.513 31.1953 478.93 31.1042 478.398 30.9219C477.867 30.7344 477.411 30.4531 477.031 30.0781C476.651 29.7031 476.354 29.2292 476.141 28.6562C475.932 28.0833 475.828 27.4141 475.828 26.6484C475.828 25.2578 476.214 24.1484 476.984 23.3203C477.755 22.487 478.81 22.0703 480.148 22.0703C480.654 22.0703 481.148 22.1406 481.633 22.2812C482.122 22.4219 482.57 22.5938 482.977 22.7969V24.4297H482.891C482.406 24.0599 481.927 23.7865 481.453 23.6094C480.984 23.4323 480.529 23.3438 480.086 23.3438C479.216 23.3438 478.542 23.6354 478.062 24.2188C477.589 24.8021 477.352 25.612 477.352 26.6484C477.352 27.6849 477.589 28.4896 478.062 29.0625C478.536 29.6354 479.211 29.9219 480.086 29.9219C480.393 29.9219 480.698 29.8828 481 29.8047C481.307 29.7266 481.586 29.625 481.836 29.5C482.034 29.401 482.237 29.2839 482.445 29.1484C482.659 29.0078 482.807 28.9036 482.891 28.8359H482.977V30.4531ZM492.297 26.7891H485.867C485.867 27.3255 485.948 27.7943 486.109 28.1953C486.271 28.5911 486.492 28.9167 486.773 29.1719C487.044 29.4219 487.365 29.6094 487.734 29.7344C488.109 29.8594 488.521 29.9219 488.969 29.9219C489.562 29.9219 490.159 29.8047 490.758 29.5703C491.362 29.3307 491.792 29.0964 492.047 28.8672H492.125V30.4688C491.63 30.6771 491.125 30.8516 490.609 30.9922C490.094 31.1328 489.552 31.2031 488.984 31.2031C487.536 31.2031 486.406 30.8125 485.594 30.0312C484.781 29.2448 484.375 28.1302 484.375 26.6875C484.375 25.2604 484.763 24.1276 485.539 23.2891C486.32 22.4505 487.346 22.0312 488.617 22.0312C489.794 22.0312 490.701 22.375 491.336 23.0625C491.977 23.75 492.297 24.7266 492.297 25.9922V26.7891ZM490.867 25.6641C490.862 24.8932 490.667 24.2969 490.281 23.875C489.901 23.4531 489.32 23.2422 488.539 23.2422C487.753 23.2422 487.125 23.474 486.656 23.9375C486.193 24.401 485.93 24.9766 485.867 25.6641H490.867ZM501.875 31H500.422V24.4453L495.852 31H494.523V22.2734H495.977V28.7344L500.5 22.2734H501.875V31ZM501.039 18.8359C501.013 19.6068 500.768 20.2083 500.305 20.6406C499.846 21.0729 499.177 21.2891 498.297 21.2891C497.417 21.2891 496.745 21.0729 496.281 20.6406C495.823 20.2083 495.581 19.6068 495.555 18.8359H496.891C496.896 19.3828 497.016 19.7786 497.25 20.0234C497.49 20.2682 497.839 20.3906 498.297 20.3906C498.76 20.3906 499.109 20.2708 499.344 20.0312C499.578 19.7917 499.698 19.3932 499.703 18.8359H501.039ZM511.57 31H510.102V27.6484C509.628 27.7943 509.174 27.9115 508.742 28C508.31 28.0885 507.839 28.1328 507.328 28.1328C506.391 28.1328 505.674 27.9036 505.18 27.4453C504.685 26.9818 504.438 26.3151 504.438 25.4453V22.2734H505.906V24.6953C505.906 25.0286 505.927 25.3281 505.969 25.5938C506.01 25.8542 506.099 26.0807 506.234 26.2734C506.37 26.4609 506.56 26.6042 506.805 26.7031C507.049 26.8021 507.391 26.8516 507.828 26.8516C508.188 26.8516 508.578 26.8177 509 26.75C509.422 26.6771 509.789 26.5938 510.102 26.5V22.2734H511.57V31ZM521.242 31H519.781V30.0703C519.651 30.1589 519.474 30.2839 519.25 30.4453C519.031 30.6016 518.818 30.7266 518.609 30.8203C518.365 30.9401 518.083 31.0391 517.766 31.1172C517.448 31.2005 517.076 31.2422 516.648 31.2422C515.862 31.2422 515.195 30.9818 514.648 30.4609C514.102 29.9401 513.828 29.276 513.828 28.4688C513.828 27.8073 513.969 27.2734 514.25 26.8672C514.536 26.4557 514.943 26.1328 515.469 25.8984C516 25.6641 516.638 25.5052 517.383 25.4219C518.128 25.3385 518.927 25.276 519.781 25.2344V25.0078C519.781 24.6745 519.721 24.3984 519.602 24.1797C519.487 23.9609 519.32 23.7891 519.102 23.6641C518.893 23.5443 518.643 23.4635 518.352 23.4219C518.06 23.3802 517.755 23.3594 517.438 23.3594C517.052 23.3594 516.622 23.4115 516.148 23.5156C515.674 23.6146 515.185 23.7604 514.68 23.9531H514.602V22.4609C514.888 22.3828 515.302 22.2969 515.844 22.2031C516.385 22.1094 516.919 22.0625 517.445 22.0625C518.06 22.0625 518.594 22.1146 519.047 22.2188C519.505 22.3177 519.901 22.4896 520.234 22.7344C520.562 22.974 520.812 23.2839 520.984 23.6641C521.156 24.0443 521.242 24.5156 521.242 25.0781V31ZM519.781 28.8516V26.4219C519.333 26.4479 518.805 26.487 518.195 26.5391C517.591 26.5911 517.112 26.6667 516.758 26.7656C516.336 26.8854 515.995 27.0729 515.734 27.3281C515.474 27.5781 515.344 27.9245 515.344 28.3672C515.344 28.8672 515.495 29.2448 515.797 29.5C516.099 29.75 516.56 29.875 517.18 29.875C517.695 29.875 518.167 29.776 518.594 29.5781C519.021 29.375 519.417 29.1328 519.781 28.8516ZM530.602 30.4531C530.003 30.7344 529.487 30.9271 529.055 31.0312C528.628 31.1406 528.201 31.1953 527.773 31.1953C527.138 31.1953 526.555 31.1042 526.023 30.9219C525.492 30.7344 525.036 30.4531 524.656 30.0781C524.276 29.7031 523.979 29.2292 523.766 28.6562C523.557 28.0833 523.453 27.4141 523.453 26.6484C523.453 25.2578 523.839 24.1484 524.609 23.3203C525.38 22.487 526.435 22.0703 527.773 22.0703C528.279 22.0703 528.773 22.1406 529.258 22.2812C529.747 22.4219 530.195 22.5938 530.602 22.7969V24.4297H530.516C530.031 24.0599 529.552 23.7865 529.078 23.6094C528.609 23.4323 528.154 23.3438 527.711 23.3438C526.841 23.3438 526.167 23.6354 525.688 24.2188C525.214 24.8021 524.977 25.612 524.977 26.6484C524.977 27.6849 525.214 28.4896 525.688 29.0625C526.161 29.6354 526.836 29.9219 527.711 29.9219C528.018 29.9219 528.323 29.8828 528.625 29.8047C528.932 29.7266 529.211 29.625 529.461 29.5C529.659 29.401 529.862 29.2839 530.07 29.1484C530.284 29.0078 530.432 28.9036 530.516 28.8359H530.602V30.4531Z" fill="#373737"/>
<path d="M129.133 31H121.258V29.3672C121.805 28.8984 122.352 28.4297 122.898 27.9609C123.451 27.4922 123.964 27.026 124.438 26.5625C125.438 25.5938 126.122 24.8255 126.492 24.2578C126.862 23.6849 127.047 23.0677 127.047 22.4062C127.047 21.8021 126.846 21.3307 126.445 20.9922C126.049 20.6484 125.495 20.4766 124.781 20.4766C124.307 20.4766 123.794 20.5599 123.242 20.7266C122.69 20.8932 122.151 21.1484 121.625 21.4922H121.547V19.8516C121.917 19.6693 122.409 19.5026 123.023 19.3516C123.643 19.2005 124.242 19.125 124.82 19.125C126.013 19.125 126.948 19.4141 127.625 19.9922C128.302 20.5651 128.641 21.3438 128.641 22.3281C128.641 22.7708 128.583 23.1849 128.469 23.5703C128.359 23.9505 128.195 24.3125 127.977 24.6562C127.773 24.9792 127.534 25.2969 127.258 25.6094C126.987 25.9219 126.656 26.2682 126.266 26.6484C125.708 27.1953 125.133 27.7266 124.539 28.2422C123.945 28.7526 123.391 29.2266 122.875 29.6641H129.133V31ZM139.289 25.1797C139.289 27.2682 138.961 28.8021 138.305 29.7812C137.654 30.7552 136.641 31.2422 135.266 31.2422C133.87 31.2422 132.849 30.7474 132.203 29.7578C131.562 28.7682 131.242 27.2474 131.242 25.1953C131.242 23.1276 131.568 21.6016 132.219 20.6172C132.87 19.6276 133.885 19.1328 135.266 19.1328C136.661 19.1328 137.68 19.6354 138.32 20.6406C138.966 21.6406 139.289 23.1536 139.289 25.1797ZM137.234 28.7266C137.417 28.3047 137.539 27.8099 137.602 27.2422C137.669 26.6693 137.703 25.9818 137.703 25.1797C137.703 24.388 137.669 23.7005 137.602 23.1172C137.539 22.5339 137.414 22.0391 137.227 21.6328C137.044 21.2318 136.794 20.9297 136.477 20.7266C136.164 20.5234 135.76 20.4219 135.266 20.4219C134.776 20.4219 134.37 20.5234 134.047 20.7266C133.729 20.9297 133.477 21.237 133.289 21.6484C133.112 22.0339 132.99 22.5365 132.922 23.1562C132.859 23.776 132.828 24.4557 132.828 25.1953C132.828 26.0078 132.857 26.6875 132.914 27.2344C132.971 27.7812 133.094 28.2708 133.281 28.7031C133.453 29.1094 133.695 29.4193 134.008 29.6328C134.326 29.8464 134.745 29.9531 135.266 29.9531C135.755 29.9531 136.161 29.8516 136.484 29.6484C136.807 29.4453 137.057 29.138 137.234 28.7266ZM148.812 31H142.516V29.8125H144.938V22.0156H142.516V20.9531C142.844 20.9531 143.195 20.9271 143.57 20.875C143.945 20.8177 144.229 20.737 144.422 20.6328C144.661 20.5026 144.849 20.3385 144.984 20.1406C145.125 19.9375 145.206 19.6667 145.227 19.3281H146.438V29.8125H148.812V31ZM159.734 27.7578C159.734 28.763 159.341 29.599 158.555 30.2656C157.773 30.9323 156.789 31.2656 155.602 31.2656C154.341 31.2656 153.336 30.9401 152.586 30.2891C151.841 29.638 151.469 28.8047 151.469 27.7891C151.469 27.1432 151.656 26.5599 152.031 26.0391C152.406 25.513 152.935 25.0964 153.617 24.7891V24.7422C152.992 24.4089 152.529 24.0443 152.227 23.6484C151.93 23.2526 151.781 22.7578 151.781 22.1641C151.781 21.2891 152.141 20.5599 152.859 19.9766C153.578 19.3932 154.492 19.1016 155.602 19.1016C156.763 19.1016 157.69 19.3802 158.383 19.9375C159.076 20.4948 159.422 21.2031 159.422 22.0625C159.422 22.5885 159.258 23.1068 158.93 23.6172C158.602 24.1224 158.12 24.5182 157.484 24.8047V24.8516C158.214 25.1641 158.771 25.5495 159.156 26.0078C159.542 26.4661 159.734 27.0495 159.734 27.7578ZM157.883 22.0781C157.883 21.5208 157.667 21.0781 157.234 20.75C156.807 20.4167 156.26 20.25 155.594 20.25C154.938 20.25 154.398 20.4062 153.977 20.7188C153.56 21.0312 153.352 21.4531 153.352 21.9844C153.352 22.3594 153.456 22.6849 153.664 22.9609C153.878 23.2318 154.198 23.474 154.625 23.6875C154.818 23.7812 155.094 23.9036 155.453 24.0547C155.818 24.2057 156.172 24.3307 156.516 24.4297C157.031 24.0859 157.388 23.7292 157.586 23.3594C157.784 22.9896 157.883 22.5625 157.883 22.0781ZM158.125 27.9062C158.125 27.4271 158.018 27.0443 157.805 26.7578C157.596 26.4661 157.185 26.1745 156.57 25.8828C156.326 25.7682 156.057 25.6615 155.766 25.5625C155.474 25.4635 155.086 25.3255 154.602 25.1484C154.133 25.4036 153.755 25.75 153.469 26.1875C153.188 26.625 153.047 27.1198 153.047 27.6719C153.047 28.375 153.289 28.9557 153.773 29.4141C154.258 29.8724 154.872 30.1016 155.617 30.1016C156.378 30.1016 156.984 29.9062 157.438 29.5156C157.896 29.125 158.125 28.5885 158.125 27.9062Z" fill="#373737"/>
<path d="M9.13281 31H1.25781V29.3672C1.80469 28.8984 2.35156 28.4297 2.89844 27.9609C3.45052 27.4922 3.96354 27.026 4.4375 26.5625C5.4375 25.5938 6.1224 24.8255 6.49219 24.2578C6.86198 23.6849 7.04688 23.0677 7.04688 22.4062C7.04688 21.8021 6.84635 21.3307 6.44531 20.9922C6.04948 20.6484 5.49479 20.4766 4.78125 20.4766C4.30729 20.4766 3.79427 20.5599 3.24219 20.7266C2.6901 20.8932 2.15104 21.1484 1.625 21.4922H1.54688V19.8516C1.91667 19.6693 2.40885 19.5026 3.02344 19.3516C3.64323 19.2005 4.24219 19.125 4.82031 19.125C6.01302 19.125 6.94792 19.4141 7.625 19.9922C8.30208 20.5651 8.64062 21.3438 8.64062 22.3281C8.64062 22.7708 8.58333 23.1849 8.46875 23.5703C8.35938 23.9505 8.19531 24.3125 7.97656 24.6562C7.77344 24.9792 7.53385 25.2969 7.25781 25.6094C6.98698 25.9219 6.65625 26.2682 6.26562 26.6484C5.70833 27.1953 5.13281 27.7266 4.53906 28.2422C3.94531 28.7526 3.39062 29.2266 2.875 29.6641H9.13281V31ZM19.2891 25.1797C19.2891 27.2682 18.9609 28.8021 18.3047 29.7812C17.6536 30.7552 16.6406 31.2422 15.2656 31.2422C13.8698 31.2422 12.849 30.7474 12.2031 29.7578C11.5625 28.7682 11.2422 27.2474 11.2422 25.1953C11.2422 23.1276 11.5677 21.6016 12.2188 20.6172C12.8698 19.6276 13.8854 19.1328 15.2656 19.1328C16.6615 19.1328 17.6797 19.6354 18.3203 20.6406C18.9661 21.6406 19.2891 23.1536 19.2891 25.1797ZM17.2344 28.7266C17.4167 28.3047 17.5391 27.8099 17.6016 27.2422C17.6693 26.6693 17.7031 25.9818 17.7031 25.1797C17.7031 24.388 17.6693 23.7005 17.6016 23.1172C17.5391 22.5339 17.4141 22.0391 17.2266 21.6328C17.0443 21.2318 16.7943 20.9297 16.4766 20.7266C16.1641 20.5234 15.7604 20.4219 15.2656 20.4219C14.776 20.4219 14.3698 20.5234 14.0469 20.7266C13.7292 20.9297 13.4766 21.237 13.2891 21.6484C13.112 22.0339 12.9896 22.5365 12.9219 23.1562C12.8594 23.776 12.8281 24.4557 12.8281 25.1953C12.8281 26.0078 12.8568 26.6875 12.9141 27.2344C12.9714 27.7812 13.0938 28.2708 13.2812 28.7031C13.4531 29.1094 13.6953 29.4193 14.0078 29.6328C14.3255 29.8464 14.7448 29.9531 15.2656 29.9531C15.7552 29.9531 16.1615 29.8516 16.4844 29.6484C16.8073 29.4453 17.0573 29.138 17.2344 28.7266ZM28.8125 31H22.5156V29.8125H24.9375V22.0156H22.5156V20.9531C22.8438 20.9531 23.1953 20.9271 23.5703 20.875C23.9453 20.8177 24.2292 20.737 24.4219 20.6328C24.6615 20.5026 24.849 20.3385 24.9844 20.1406C25.125 19.9375 25.2057 19.6667 25.2266 19.3281H26.4375V29.8125H28.8125V31ZM39.6797 21.1094L34.4141 31H32.7422L38.3438 20.7344H31.7188V19.3672H39.6797V21.1094Z" fill="#373737"/>
<path d="M249.133 31H241.258V29.3672C241.805 28.8984 242.352 28.4297 242.898 27.9609C243.451 27.4922 243.964 27.026 244.438 26.5625C245.438 25.5938 246.122 24.8255 246.492 24.2578C246.862 23.6849 247.047 23.0677 247.047 22.4062C247.047 21.8021 246.846 21.3307 246.445 20.9922C246.049 20.6484 245.495 20.4766 244.781 20.4766C244.307 20.4766 243.794 20.5599 243.242 20.7266C242.69 20.8932 242.151 21.1484 241.625 21.4922H241.547V19.8516C241.917 19.6693 242.409 19.5026 243.023 19.3516C243.643 19.2005 244.242 19.125 244.82 19.125C246.013 19.125 246.948 19.4141 247.625 19.9922C248.302 20.5651 248.641 21.3438 248.641 22.3281C248.641 22.7708 248.583 23.1849 248.469 23.5703C248.359 23.9505 248.195 24.3125 247.977 24.6562C247.773 24.9792 247.534 25.2969 247.258 25.6094C246.987 25.9219 246.656 26.2682 246.266 26.6484C245.708 27.1953 245.133 27.7266 244.539 28.2422C243.945 28.7526 243.391 29.2266 242.875 29.6641H249.133V31ZM259.289 25.1797C259.289 27.2682 258.961 28.8021 258.305 29.7812C257.654 30.7552 256.641 31.2422 255.266 31.2422C253.87 31.2422 252.849 30.7474 252.203 29.7578C251.562 28.7682 251.242 27.2474 251.242 25.1953C251.242 23.1276 251.568 21.6016 252.219 20.6172C252.87 19.6276 253.885 19.1328 255.266 19.1328C256.661 19.1328 257.68 19.6354 258.32 20.6406C258.966 21.6406 259.289 23.1536 259.289 25.1797ZM257.234 28.7266C257.417 28.3047 257.539 27.8099 257.602 27.2422C257.669 26.6693 257.703 25.9818 257.703 25.1797C257.703 24.388 257.669 23.7005 257.602 23.1172C257.539 22.5339 257.414 22.0391 257.227 21.6328C257.044 21.2318 256.794 20.9297 256.477 20.7266C256.164 20.5234 255.76 20.4219 255.266 20.4219C254.776 20.4219 254.37 20.5234 254.047 20.7266C253.729 20.9297 253.477 21.237 253.289 21.6484C253.112 22.0339 252.99 22.5365 252.922 23.1562C252.859 23.776 252.828 24.4557 252.828 25.1953C252.828 26.0078 252.857 26.6875 252.914 27.2344C252.971 27.7812 253.094 28.2708 253.281 28.7031C253.453 29.1094 253.695 29.4193 254.008 29.6328C254.326 29.8464 254.745 29.9531 255.266 29.9531C255.755 29.9531 256.161 29.8516 256.484 29.6484C256.807 29.4453 257.057 29.138 257.234 28.7266ZM268.812 31H262.516V29.8125H264.938V22.0156H262.516V20.9531C262.844 20.9531 263.195 20.9271 263.57 20.875C263.945 20.8177 264.229 20.737 264.422 20.6328C264.661 20.5026 264.849 20.3385 264.984 20.1406C265.125 19.9375 265.206 19.6667 265.227 19.3281H266.438V29.8125H268.812V31ZM279.633 24.4844C279.633 25.5 279.516 26.4219 279.281 27.25C279.052 28.0781 278.703 28.7839 278.234 29.3672C277.76 29.9609 277.167 30.4193 276.453 30.7422C275.74 31.0651 274.901 31.2266 273.938 31.2266C273.667 31.2266 273.411 31.2109 273.172 31.1797C272.932 31.1536 272.719 31.1094 272.531 31.0469V29.5547H272.609C272.76 29.6328 272.974 29.7083 273.25 29.7812C273.526 29.849 273.833 29.8828 274.172 29.8828C275.323 29.8828 276.224 29.5391 276.875 28.8516C277.531 28.1589 277.911 27.2057 278.016 25.9922C277.531 26.2839 277.076 26.4922 276.648 26.6172C276.221 26.7422 275.755 26.8047 275.25 26.8047C274.771 26.8047 274.336 26.7578 273.945 26.6641C273.56 26.5703 273.172 26.388 272.781 26.1172C272.323 25.7995 271.977 25.3958 271.742 24.9062C271.513 24.4167 271.398 23.8307 271.398 23.1484C271.398 21.9609 271.789 20.9948 272.57 20.25C273.352 19.5052 274.305 19.1328 275.43 19.1328C275.992 19.1328 276.513 19.2214 276.992 19.3984C277.471 19.5703 277.891 19.8307 278.25 20.1797C278.693 20.612 279.034 21.1693 279.273 21.8516C279.513 22.5286 279.633 23.4062 279.633 24.4844ZM278.055 24.1484C278.055 23.3411 277.971 22.6927 277.805 22.2031C277.638 21.7135 277.409 21.3333 277.117 21.0625C276.872 20.8281 276.609 20.6615 276.328 20.5625C276.047 20.4583 275.742 20.4062 275.414 20.4062C274.664 20.4062 274.07 20.6406 273.633 21.1094C273.201 21.5781 272.984 22.237 272.984 23.0859C272.984 23.5807 273.055 23.9844 273.195 24.2969C273.336 24.6094 273.573 24.8828 273.906 25.1172C274.141 25.2786 274.398 25.388 274.68 25.4453C274.961 25.4974 275.273 25.5234 275.617 25.5234C276.023 25.5234 276.435 25.4688 276.852 25.3594C277.268 25.25 277.659 25.0911 278.023 24.8828C278.029 24.7734 278.034 24.6667 278.039 24.5625C278.049 24.4531 278.055 24.3151 278.055 24.1484Z" fill="#373737"/>
<path d="M369.133 31H361.258V29.3672C361.805 28.8984 362.352 28.4297 362.898 27.9609C363.451 27.4922 363.964 27.026 364.438 26.5625C365.438 25.5938 366.122 24.8255 366.492 24.2578C366.862 23.6849 367.047 23.0677 367.047 22.4062C367.047 21.8021 366.846 21.3307 366.445 20.9922C366.049 20.6484 365.495 20.4766 364.781 20.4766C364.307 20.4766 363.794 20.5599 363.242 20.7266C362.69 20.8932 362.151 21.1484 361.625 21.4922H361.547V19.8516C361.917 19.6693 362.409 19.5026 363.023 19.3516C363.643 19.2005 364.242 19.125 364.82 19.125C366.013 19.125 366.948 19.4141 367.625 19.9922C368.302 20.5651 368.641 21.3438 368.641 22.3281C368.641 22.7708 368.583 23.1849 368.469 23.5703C368.359 23.9505 368.195 24.3125 367.977 24.6562C367.773 24.9792 367.534 25.2969 367.258 25.6094C366.987 25.9219 366.656 26.2682 366.266 26.6484C365.708 27.1953 365.133 27.7266 364.539 28.2422C363.945 28.7526 363.391 29.2266 362.875 29.6641H369.133V31ZM379.289 25.1797C379.289 27.2682 378.961 28.8021 378.305 29.7812C377.654 30.7552 376.641 31.2422 375.266 31.2422C373.87 31.2422 372.849 30.7474 372.203 29.7578C371.562 28.7682 371.242 27.2474 371.242 25.1953C371.242 23.1276 371.568 21.6016 372.219 20.6172C372.87 19.6276 373.885 19.1328 375.266 19.1328C376.661 19.1328 377.68 19.6354 378.32 20.6406C378.966 21.6406 379.289 23.1536 379.289 25.1797ZM377.234 28.7266C377.417 28.3047 377.539 27.8099 377.602 27.2422C377.669 26.6693 377.703 25.9818 377.703 25.1797C377.703 24.388 377.669 23.7005 377.602 23.1172C377.539 22.5339 377.414 22.0391 377.227 21.6328C377.044 21.2318 376.794 20.9297 376.477 20.7266C376.164 20.5234 375.76 20.4219 375.266 20.4219C374.776 20.4219 374.37 20.5234 374.047 20.7266C373.729 20.9297 373.477 21.237 373.289 21.6484C373.112 22.0339 372.99 22.5365 372.922 23.1562C372.859 23.776 372.828 24.4557 372.828 25.1953C372.828 26.0078 372.857 26.6875 372.914 27.2344C372.971 27.7812 373.094 28.2708 373.281 28.7031C373.453 29.1094 373.695 29.4193 374.008 29.6328C374.326 29.8464 374.745 29.9531 375.266 29.9531C375.755 29.9531 376.161 29.8516 376.484 29.6484C376.807 29.4453 377.057 29.138 377.234 28.7266ZM389.477 31H381.602V29.3672C382.148 28.8984 382.695 28.4297 383.242 27.9609C383.794 27.4922 384.307 27.026 384.781 26.5625C385.781 25.5938 386.466 24.8255 386.836 24.2578C387.206 23.6849 387.391 23.0677 387.391 22.4062C387.391 21.8021 387.19 21.3307 386.789 20.9922C386.393 20.6484 385.839 20.4766 385.125 20.4766C384.651 20.4766 384.138 20.5599 383.586 20.7266C383.034 20.8932 382.495 21.1484 381.969 21.4922H381.891V19.8516C382.26 19.6693 382.753 19.5026 383.367 19.3516C383.987 19.2005 384.586 19.125 385.164 19.125C386.357 19.125 387.292 19.4141 387.969 19.9922C388.646 20.5651 388.984 21.3438 388.984 22.3281C388.984 22.7708 388.927 23.1849 388.812 23.5703C388.703 23.9505 388.539 24.3125 388.32 24.6562C388.117 24.9792 387.878 25.2969 387.602 25.6094C387.331 25.9219 387 26.2682 386.609 26.6484C386.052 27.1953 385.477 27.7266 384.883 28.2422C384.289 28.7526 383.734 29.2266 383.219 29.6641H389.477V31ZM399.633 25.1797C399.633 27.2682 399.305 28.8021 398.648 29.7812C397.997 30.7552 396.984 31.2422 395.609 31.2422C394.214 31.2422 393.193 30.7474 392.547 29.7578C391.906 28.7682 391.586 27.2474 391.586 25.1953C391.586 23.1276 391.911 21.6016 392.562 20.6172C393.214 19.6276 394.229 19.1328 395.609 19.1328C397.005 19.1328 398.023 19.6354 398.664 20.6406C399.31 21.6406 399.633 23.1536 399.633 25.1797ZM397.578 28.7266C397.76 28.3047 397.883 27.8099 397.945 27.2422C398.013 26.6693 398.047 25.9818 398.047 25.1797C398.047 24.388 398.013 23.7005 397.945 23.1172C397.883 22.5339 397.758 22.0391 397.57 21.6328C397.388 21.2318 397.138 20.9297 396.82 20.7266C396.508 20.5234 396.104 20.4219 395.609 20.4219C395.12 20.4219 394.714 20.5234 394.391 20.7266C394.073 20.9297 393.82 21.237 393.633 21.6484C393.456 22.0339 393.333 22.5365 393.266 23.1562C393.203 23.776 393.172 24.4557 393.172 25.1953C393.172 26.0078 393.201 26.6875 393.258 27.2344C393.315 27.7812 393.438 28.2708 393.625 28.7031C393.797 29.1094 394.039 29.4193 394.352 29.6328C394.669 29.8464 395.089 29.9531 395.609 29.9531C396.099 29.9531 396.505 29.8516 396.828 29.6484C397.151 29.4453 397.401 29.138 397.578 28.7266Z" fill="#373737"/>
</svg>
