<svg width="77" height="54" viewBox="0 0 77 54" fill="none" xmlns="http://www.w3.org/2000/svg">
<path d="M77 14.3568V44.55C77 49.77 72.2382 54 66.3618 54H10.6382C7.81674 54 5.11089 53.0044 3.11584 51.2322C1.1208 49.4599 0 47.0563 0 44.55V14.3568L37.2802 32.5728C38.04 32.9436 38.962 32.9436 39.7198 32.5728L77 14.3568ZM66.3618 4.06409e-08C69.1389 0.00022924 71.8057 0.965075 73.7927 2.68844C75.7797 4.4118 76.9293 6.75704 76.9959 9.2232L38.5 28.0332L0.00405234 9.2214L0.00810564 9.0594C0.121584 6.62266 1.29118 4.31925 3.27232 2.63084C5.25345 0.942428 7.8927 -0.000225995 10.6382 4.06409e-08H66.3618Z" fill="#A9A9A9"/>
</svg>
