<svg width="80" height="80" viewBox="0 0 80 80" fill="none" xmlns="http://www.w3.org/2000/svg">
<path d="M79.375 20C79 19.75 78.5 19.625 78.125 19.875L52.625 29L34.75 22.5C35.75 20 36.25 17.75 36.25 15.875C36.25 12.5 35 9.5 32.625 7.125C30.25 4.75 27.125 3.5 23.875 3.5C17 3.5 11.5 9 11.5 15.875C11.5 18.25 12.375 21.125 13.875 24.625L0.875 29C0.375 29.25 0 29.75 0 30.25V75.25C0 75.75 0.25 76.125 0.625 76.375C0.875 76.5 1.125 76.625 1.375 76.625C1.5 76.625 1.75 76.625 1.875 76.5L27.375 67.5L52.125 76.625C52.375 76.75 52.75 76.75 53 76.625L79 67.375C79.5 67.125 79.875 66.625 79.875 66.125V21.125C80 20.625 79.75 20.25 79.375 20ZM23.875 6C26.5 6 28.875 7 30.625 8.875C32.5 10.625 33.5 13.125 33.5 15.625C33.5 17.375 32.875 19.75 31.625 22.5C29.375 27.5 25.625 32.75 23.875 35.125C23.625 34.875 23.5 34.625 23.25 34.25C21.625 32 19 28.25 17.125 24.375C15.25 20.75 14.375 17.75 14.375 15.5C14.25 10.375 18.625 6 23.875 6ZM77.25 65.125L52.625 73.875L27.875 64.75C27.75 64.75 27.5 64.625 27.375 64.625C27.25 64.625 27 64.625 26.875 64.75L2.75 73.375V31.25L15.25 26.875C15.25 26.875 15.25 26.875 15.25 27C15.375 27.125 15.375 27.25 15.5 27.375C15.625 27.625 15.75 27.875 15.875 28.125C16 28.25 16 28.375 16.125 28.5C16.25 28.75 16.375 29 16.5 29.25C16.625 29.375 16.625 29.5 16.75 29.625C16.875 29.875 17 30.125 17.125 30.25C17.25 30.375 17.25 30.5 17.375 30.625C17.5 30.875 17.625 31 17.75 31.25C17.875 31.375 17.875 31.5 18 31.625C18.125 31.875 18.25 32 18.375 32.25C18.5 32.375 18.5 32.5 18.625 32.625C18.75 32.875 18.875 33 19 33.25C19.125 33.375 19.125 33.5 19.25 33.625C19.375 33.875 19.5 34 19.625 34.25C19.75 34.375 19.75 34.5 19.875 34.5C20 34.75 20.125 34.875 20.25 35C20.25 35.125 20.375 35.125 20.375 35.25C20.5 35.5 20.625 35.625 20.75 35.75L20.875 35.875C21 36 21.125 36.25 21.25 36.375L21.375 36.5C21.5 36.625 21.625 36.875 21.75 37C21.875 37.125 22 37.25 22.125 37.375C22.375 37.75 22.625 38 22.625 38.125C22.875 38.5 23.25 38.625 23.75 38.625C24.125 38.625 24.5 38.375 24.875 38.125C24.875 38.125 25 38 25.25 37.75L25.375 37.625C25.5 37.5 25.5 37.5 25.625 37.375L25.75 37.25C25.875 37.125 25.875 37 26 36.875C26 36.75 26.125 36.75 26.125 36.625C26.25 36.5 26.375 36.375 26.375 36.25C26.5 36.125 26.5 36 26.625 35.875C26.75 35.75 26.875 35.625 27 35.375C27.125 35.25 27.125 35.125 27.25 35C27.375 34.875 27.5 34.75 27.625 34.5C27.75 34.375 27.875 34.25 27.875 34.125C28 34 28.125 33.75 28.25 33.625C28.375 33.5 28.5 33.25 28.625 33.125C28.75 33 28.875 32.75 29 32.625C29.125 32.5 29.25 32.25 29.375 32.125C29.5 31.875 29.625 31.75 29.75 31.5C29.875 31.375 30 31.125 30.125 31C30.25 30.75 30.375 30.625 30.5 30.375C30.625 30.125 30.75 30 30.875 29.75C31 29.5 31.125 29.375 31.25 29.125C31.375 28.875 31.5 28.75 31.625 28.5C31.75 28.25 31.875 28.125 32 27.875C32.125 27.625 32.25 27.5 32.375 27.25C32.5 27 32.625 26.875 32.75 26.625C32.875 26.375 33 26.25 33.125 26C33.25 25.75 33.375 25.5 33.5 25.375C33.625 25.125 33.75 25 33.75 24.75C33.75 24.75 33.75 24.75 33.75 24.625L52.25 31.375C52.5 31.5 52.875 31.5 53.125 31.375L77.25 22.75V65.125Z" fill="white" fill-opacity="0.13"/>
<path d="M65.6249 52.9998C65.8749 53.1248 66.2499 53.1248 66.4999 53.1248C67.2499 53.1248 67.9999 52.8748 68.6249 52.4998C69.4999 51.8748 70.1249 50.9998 70.3749 49.9998C70.6249 48.9998 70.3749 47.8748 69.8749 46.9998C69.2499 46.1248 68.3749 45.4998 67.3749 45.2498C65.2499 44.7498 62.9999 46.1248 62.4999 48.2498C62.2499 49.2498 62.4999 50.3748 62.9999 51.2498C63.7499 52.1248 64.6249 52.7498 65.6249 52.9998ZM65.2499 48.7498C65.3749 47.9998 66.1249 47.6248 66.7499 47.7498C67.1249 47.8748 67.3749 47.9998 67.4999 48.3748C67.6249 48.6248 67.7499 48.9998 67.6249 49.3748C67.4999 49.7498 67.3749 49.9998 66.9999 50.1248C66.7499 50.2498 66.3749 50.3748 65.9999 50.2498C65.6249 50.1248 65.3749 49.9998 65.2499 49.6248C65.2499 49.3748 65.2499 49.1248 65.2499 48.7498Z" fill="white" fill-opacity="0.13"/>
<path d="M13.7499 48.8749L12.8749 49.3749L12.3749 48.4999C11.9999 47.8749 11.1249 47.6249 10.4999 48.1249C9.87487 48.4999 9.62487 49.3749 10.1249 49.9999L10.6249 50.8749L9.74987 51.3749C9.12487 51.7499 8.87487 52.6249 9.37487 53.2499C9.49987 53.7499 9.99987 53.8749 10.3749 53.8749C10.6249 53.8749 10.8749 53.7499 11.1249 53.6249L11.9999 53.1249L12.4999 53.9999C12.7499 54.3749 13.2499 54.6249 13.6249 54.6249C13.8749 54.6249 14.1249 54.4999 14.3749 54.3749C14.9999 53.9999 15.2499 53.1249 14.7499 52.4999L14.2499 51.6249L15.1249 51.1249C15.7499 50.7499 15.9999 49.8749 15.4999 49.2499C15.2499 48.6249 14.3749 48.4999 13.7499 48.8749Z" fill="white" fill-opacity="0.13"/>
<path d="M26.6251 52.6251C25.0001 52.6251 22.8751 52.3751 21.5001 52.0001C20.7501 51.8751 20.0001 52.3751 19.8751 53.1251C19.7501 53.8751 20.2501 54.6251 21.0001 54.7501C22.3751 55.0001 24.6251 55.3751 26.6251 55.3751C27.3751 55.3751 28.0001 54.7501 28.0001 54.0001C28.0001 53.2501 27.3751 52.6251 26.6251 52.6251Z" fill="white" fill-opacity="0.13"/>
<path d="M36.875 47.8751C36 49.1251 35 50.1251 33.75 50.8751C33.375 51.1251 32.875 51.3751 32.375 51.6251C31.625 51.8751 31.375 52.7501 31.625 53.5001C31.875 54.0001 32.375 54.3751 32.875 54.3751C33 54.3751 33.25 54.3751 33.375 54.2501C34 54.0001 34.5 53.7501 35 53.3751C36.5 52.3751 37.75 51.2501 38.875 49.7501C39.375 49.1251 39.25 48.2501 38.625 47.8751C38.25 47.1251 37.375 47.2501 36.875 47.8751Z" fill="white" fill-opacity="0.13"/>
<path d="M46.8749 38.875C45.4999 38.875 44.7499 39.25 43.9999 39.5C42.2499 40.25 40.7499 41.875 40.3749 42.375C39.8749 43 39.9999 43.875 40.4999 44.375C40.7499 44.625 41.1249 44.75 41.3749 44.75C41.7499 44.75 42.1249 44.625 42.3749 44.25C42.9999 43.5 43.9999 42.625 44.9999 42.125C45.7499 41.875 45.9999 41.75 46.8749 41.625C47.6249 41.625 48.2499 41 48.2499 40.25C48.2499 39.5 47.6249 38.875 46.8749 38.875Z" fill="white" fill-opacity="0.13"/>
<path d="M52 40.9998C51.75 41.7498 52 42.4998 52.75 42.8748C54.125 43.4998 56.125 44.4998 57.625 45.6248C57.875 45.7498 58.125 45.8748 58.375 45.8748C58.875 45.8748 59.25 45.6248 59.5 45.2498C59.875 44.6248 59.75 43.7498 59.125 43.3748C57.375 42.2498 55.375 41.1248 53.75 40.4998C53.125 39.9998 52.375 40.3748 52 40.9998Z" fill="white" fill-opacity="0.13"/>
<path d="M23.875 19C26.25 19 28.125 17.125 28.125 14.75C28.125 12.375 26.25 10.5 23.875 10.5C21.5 10.5 19.625 12.375 19.625 14.75C19.625 17.125 21.625 19 23.875 19ZM23.875 13.25C24.625 13.25 25.375 13.875 25.375 14.75C25.375 15.5 24.75 16.25 23.875 16.25C23.125 16.25 22.375 15.625 22.375 14.75C22.5 14 23.125 13.25 23.875 13.25Z" fill="white" fill-opacity="0.13"/>
</svg>
