<svg width="80" height="74" viewBox="0 0 80 74" fill="none" xmlns="http://www.w3.org/2000/svg">
<path d="M79.375 17C79 16.75 78.5 16.625 78.125 16.875L52.625 26L34.75 19.5C35.75 17 36.25 14.75 36.25 12.875C36.25 9.5 35 6.5 32.625 4.125C30.25 1.75 27.125 0.5 23.875 0.5C17 0.5 11.5 6 11.5 12.875C11.5 15.25 12.375 18.125 13.875 21.625L0.875 26C0.375 26.25 0 26.75 0 27.25V72.25C0 72.75 0.25 73.125 0.625 73.375C0.875 73.5 1.125 73.625 1.375 73.625C1.5 73.625 1.75 73.625 1.875 73.5L27.375 64.5L52.125 73.625C52.375 73.75 52.75 73.75 53 73.625L79 64.375C79.5 64.125 79.875 63.625 79.875 63.125V18.125C80 17.625 79.75 17.25 79.375 17ZM23.875 3C26.5 3 28.875 4 30.625 5.875C32.5 7.625 33.5 10.125 33.5 12.625C33.5 14.375 32.875 16.75 31.625 19.5C29.375 24.5 25.625 29.75 23.875 32.125C23.625 31.875 23.5 31.625 23.25 31.25C21.625 29 19 25.25 17.125 21.375C15.25 17.75 14.375 14.75 14.375 12.5C14.25 7.375 18.625 3 23.875 3ZM77.25 62.125L52.625 70.875L27.875 61.75C27.75 61.75 27.5 61.625 27.375 61.625C27.25 61.625 27 61.625 26.875 61.75L2.75 70.375V28.25L15.25 23.875C15.25 23.875 15.25 23.875 15.25 24C15.375 24.125 15.375 24.25 15.5 24.375C15.625 24.625 15.75 24.875 15.875 25.125C16 25.25 16 25.375 16.125 25.5C16.25 25.75 16.375 26 16.5 26.25C16.625 26.375 16.625 26.5 16.75 26.625C16.875 26.875 17 27.125 17.125 27.25C17.25 27.375 17.25 27.5 17.375 27.625C17.5 27.875 17.625 28 17.75 28.25C17.875 28.375 17.875 28.5 18 28.625C18.125 28.875 18.25 29 18.375 29.25C18.5 29.375 18.5 29.5 18.625 29.625C18.75 29.875 18.875 30 19 30.25C19.125 30.375 19.125 30.5 19.25 30.625C19.375 30.875 19.5 31 19.625 31.25C19.75 31.375 19.75 31.5 19.875 31.5C20 31.75 20.125 31.875 20.25 32C20.25 32.125 20.375 32.125 20.375 32.25C20.5 32.5 20.625 32.625 20.75 32.75L20.875 32.875C21 33 21.125 33.25 21.25 33.375L21.375 33.5C21.5 33.625 21.625 33.875 21.75 34C21.875 34.125 22 34.25 22.125 34.375C22.375 34.75 22.625 35 22.625 35.125C22.875 35.5 23.25 35.625 23.75 35.625C24.125 35.625 24.5 35.375 24.875 35.125C24.875 35.125 25 35 25.25 34.75L25.375 34.625C25.5 34.5 25.5 34.5 25.625 34.375L25.75 34.25C25.875 34.125 25.875 34 26 33.875C26 33.75 26.125 33.75 26.125 33.625C26.25 33.5 26.375 33.375 26.375 33.25C26.5 33.125 26.5 33 26.625 32.875C26.75 32.75 26.875 32.625 27 32.375C27.125 32.25 27.125 32.125 27.25 32C27.375 31.875 27.5 31.75 27.625 31.5C27.75 31.375 27.875 31.25 27.875 31.125C28 31 28.125 30.75 28.25 30.625C28.375 30.5 28.5 30.25 28.625 30.125C28.75 30 28.875 29.75 29 29.625C29.125 29.5 29.25 29.25 29.375 29.125C29.5 28.875 29.625 28.75 29.75 28.5C29.875 28.375 30 28.125 30.125 28C30.25 27.75 30.375 27.625 30.5 27.375C30.625 27.125 30.75 27 30.875 26.75C31 26.5 31.125 26.375 31.25 26.125C31.375 25.875 31.5 25.75 31.625 25.5C31.75 25.25 31.875 25.125 32 24.875C32.125 24.625 32.25 24.5 32.375 24.25C32.5 24 32.625 23.875 32.75 23.625C32.875 23.375 33 23.25 33.125 23C33.25 22.75 33.375 22.5 33.5 22.375C33.625 22.125 33.75 22 33.75 21.75C33.75 21.75 33.75 21.75 33.75 21.625L52.25 28.375C52.5 28.5 52.875 28.5 53.125 28.375L77.25 19.75V62.125Z" fill="white" fill-opacity="0.13"/>
<path d="M65.6249 49.9998C65.8749 50.1248 66.2499 50.1248 66.4999 50.1248C67.2499 50.1248 67.9999 49.8748 68.6249 49.4998C69.4999 48.8748 70.1249 47.9998 70.3749 46.9998C70.6249 45.9998 70.3749 44.8748 69.8749 43.9998C69.2499 43.1248 68.3749 42.4998 67.3749 42.2498C65.2499 41.7498 62.9999 43.1248 62.4999 45.2498C62.2499 46.2498 62.4999 47.3748 62.9999 48.2498C63.7499 49.1248 64.6249 49.7498 65.6249 49.9998ZM65.2499 45.7498C65.3749 44.9998 66.1249 44.6248 66.7499 44.7498C67.1249 44.8748 67.3749 44.9998 67.4999 45.3748C67.6249 45.6248 67.7499 45.9998 67.6249 46.3748C67.4999 46.7498 67.3749 46.9998 66.9999 47.1248C66.7499 47.2498 66.3749 47.3748 65.9999 47.2498C65.6249 47.1248 65.3749 46.9998 65.2499 46.6248C65.2499 46.3748 65.2499 46.1248 65.2499 45.7498Z" fill="white" fill-opacity="0.13"/>
<path d="M13.7499 45.8749L12.8749 46.3749L12.3749 45.4999C11.9999 44.8749 11.1249 44.6249 10.4999 45.1249C9.87487 45.4999 9.62487 46.3749 10.1249 46.9999L10.6249 47.8749L9.74987 48.3749C9.12487 48.7499 8.87487 49.6249 9.37487 50.2499C9.49987 50.7499 9.99987 50.8749 10.3749 50.8749C10.6249 50.8749 10.8749 50.7499 11.1249 50.6249L11.9999 50.1249L12.4999 50.9999C12.7499 51.3749 13.2499 51.6249 13.6249 51.6249C13.8749 51.6249 14.1249 51.4999 14.3749 51.3749C14.9999 50.9999 15.2499 50.1249 14.7499 49.4999L14.2499 48.6249L15.1249 48.1249C15.7499 47.7499 15.9999 46.8749 15.4999 46.2499C15.2499 45.6249 14.3749 45.4999 13.7499 45.8749Z" fill="white" fill-opacity="0.13"/>
<path d="M26.6251 49.6251C25.0001 49.6251 22.8751 49.3751 21.5001 49.0001C20.7501 48.8751 20.0001 49.3751 19.8751 50.1251C19.7501 50.8751 20.2501 51.6251 21.0001 51.7501C22.3751 52.0001 24.6251 52.3751 26.6251 52.3751C27.3751 52.3751 28.0001 51.7501 28.0001 51.0001C28.0001 50.2501 27.3751 49.6251 26.6251 49.6251Z" fill="white" fill-opacity="0.13"/>
<path d="M36.875 44.8751C36 46.1251 35 47.1251 33.75 47.8751C33.375 48.1251 32.875 48.3751 32.375 48.6251C31.625 48.8751 31.375 49.7501 31.625 50.5001C31.875 51.0001 32.375 51.3751 32.875 51.3751C33 51.3751 33.25 51.3751 33.375 51.2501C34 51.0001 34.5 50.7501 35 50.3751C36.5 49.3751 37.75 48.2501 38.875 46.7501C39.375 46.1251 39.25 45.2501 38.625 44.8751C38.25 44.1251 37.375 44.2501 36.875 44.8751Z" fill="white" fill-opacity="0.13"/>
<path d="M46.8749 35.875C45.4999 35.875 44.7499 36.25 43.9999 36.5C42.2499 37.25 40.7499 38.875 40.3749 39.375C39.8749 40 39.9999 40.875 40.4999 41.375C40.7499 41.625 41.1249 41.75 41.3749 41.75C41.7499 41.75 42.1249 41.625 42.3749 41.25C42.9999 40.5 43.9999 39.625 44.9999 39.125C45.7499 38.875 45.9999 38.75 46.8749 38.625C47.6249 38.625 48.2499 38 48.2499 37.25C48.2499 36.5 47.6249 35.875 46.8749 35.875Z" fill="white" fill-opacity="0.13"/>
<path d="M52 37.9998C51.75 38.7498 52 39.4998 52.75 39.8748C54.125 40.4998 56.125 41.4998 57.625 42.6248C57.875 42.7498 58.125 42.8748 58.375 42.8748C58.875 42.8748 59.25 42.6248 59.5 42.2498C59.875 41.6248 59.75 40.7498 59.125 40.3748C57.375 39.2498 55.375 38.1248 53.75 37.4998C53.125 36.9998 52.375 37.3748 52 37.9998Z" fill="white" fill-opacity="0.13"/>
<path d="M23.875 16C26.25 16 28.125 14.125 28.125 11.75C28.125 9.375 26.25 7.5 23.875 7.5C21.5 7.5 19.625 9.375 19.625 11.75C19.625 14.125 21.625 16 23.875 16ZM23.875 10.25C24.625 10.25 25.375 10.875 25.375 11.75C25.375 12.5 24.75 13.25 23.875 13.25C23.125 13.25 22.375 12.625 22.375 11.75C22.5 11 23.125 10.25 23.875 10.25Z" fill="white" fill-opacity="0.13"/>
</svg>
