<svg width="80" height="74" viewBox="0 0 80 74" fill="none" xmlns="http://www.w3.org/2000/svg">
<path d="M79.375 16.5C79 16.25 78.5 16.125 78.125 16.375L52.625 25.5L34.75 19C35.75 16.5 36.25 14.25 36.25 12.375C36.25 9 35 6 32.625 3.625C30.25 1.25 27.125 0 23.875 0C17 0 11.5 5.5 11.5 12.375C11.5 14.75 12.375 17.625 13.875 21.125L0.875 25.5C0.375 25.75 0 26.25 0 26.75V71.75C0 72.25 0.25 72.625 0.625 72.875C0.875 73 1.125 73.125 1.375 73.125C1.5 73.125 1.75 73.125 1.875 73L27.375 64L52.125 73.125C52.375 73.25 52.75 73.25 53 73.125L79 63.875C79.5 63.625 79.875 63.125 79.875 62.625V17.625C80 17.125 79.75 16.75 79.375 16.5ZM23.875 2.5C26.5 2.5 28.875 3.5 30.625 5.375C32.5 7.125 33.5 9.625 33.5 12.125C33.5 13.875 32.875 16.25 31.625 19C29.375 24 25.625 29.25 23.875 31.625C23.625 31.375 23.5 31.125 23.25 30.75C21.625 28.5 19 24.75 17.125 20.875C15.25 17.25 14.375 14.25 14.375 12C14.25 6.875 18.625 2.5 23.875 2.5ZM77.25 61.625L52.625 70.375L27.875 61.25C27.75 61.25 27.5 61.125 27.375 61.125C27.25 61.125 27 61.125 26.875 61.25L2.75 69.875V27.75L15.25 23.375C15.25 23.375 15.25 23.375 15.25 23.5C15.375 23.625 15.375 23.75 15.5 23.875C15.625 24.125 15.75 24.375 15.875 24.625C16 24.75 16 24.875 16.125 25C16.25 25.25 16.375 25.5 16.5 25.75C16.625 25.875 16.625 26 16.75 26.125C16.875 26.375 17 26.625 17.125 26.75C17.25 26.875 17.25 27 17.375 27.125C17.5 27.375 17.625 27.5 17.75 27.75C17.875 27.875 17.875 28 18 28.125C18.125 28.375 18.25 28.5 18.375 28.75C18.5 28.875 18.5 29 18.625 29.125C18.75 29.375 18.875 29.5 19 29.75C19.125 29.875 19.125 30 19.25 30.125C19.375 30.375 19.5 30.5 19.625 30.75C19.75 30.875 19.75 31 19.875 31C20 31.25 20.125 31.375 20.25 31.5C20.25 31.625 20.375 31.625 20.375 31.75C20.5 32 20.625 32.125 20.75 32.25L20.875 32.375C21 32.5 21.125 32.75 21.25 32.875L21.375 33C21.5 33.125 21.625 33.375 21.75 33.5C21.875 33.625 22 33.75 22.125 33.875C22.375 34.25 22.625 34.5 22.625 34.625C22.875 35 23.25 35.125 23.75 35.125C24.125 35.125 24.5 34.875 24.875 34.625C24.875 34.625 25 34.5 25.25 34.25L25.375 34.125C25.5 34 25.5 34 25.625 33.875L25.75 33.75C25.875 33.625 25.875 33.5 26 33.375C26 33.25 26.125 33.25 26.125 33.125C26.25 33 26.375 32.875 26.375 32.75C26.5 32.625 26.5 32.5 26.625 32.375C26.75 32.25 26.875 32.125 27 31.875C27.125 31.75 27.125 31.625 27.25 31.5C27.375 31.375 27.5 31.25 27.625 31C27.75 30.875 27.875 30.75 27.875 30.625C28 30.5 28.125 30.25 28.25 30.125C28.375 30 28.5 29.75 28.625 29.625C28.75 29.5 28.875 29.25 29 29.125C29.125 29 29.25 28.75 29.375 28.625C29.5 28.375 29.625 28.25 29.75 28C29.875 27.875 30 27.625 30.125 27.5C30.25 27.25 30.375 27.125 30.5 26.875C30.625 26.625 30.75 26.5 30.875 26.25C31 26 31.125 25.875 31.25 25.625C31.375 25.375 31.5 25.25 31.625 25C31.75 24.75 31.875 24.625 32 24.375C32.125 24.125 32.25 24 32.375 23.75C32.5 23.5 32.625 23.375 32.75 23.125C32.875 22.875 33 22.75 33.125 22.5C33.25 22.25 33.375 22 33.5 21.875C33.625 21.625 33.75 21.5 33.75 21.25C33.75 21.25 33.75 21.25 33.75 21.125L52.25 27.875C52.5 28 52.875 28 53.125 27.875L77.25 19.25V61.625Z" fill="url(#paint0_linear)" fill-opacity="0.3"/>
<path d="M65.6249 49.4998C65.8749 49.6248 66.2499 49.6248 66.4999 49.6248C67.2499 49.6248 67.9999 49.3748 68.6249 48.9998C69.4999 48.3748 70.1249 47.4998 70.3749 46.4998C70.6249 45.4998 70.3749 44.3748 69.8749 43.4998C69.2499 42.6248 68.3749 41.9998 67.3749 41.7498C65.2499 41.2498 62.9999 42.6248 62.4999 44.7498C62.2499 45.7498 62.4999 46.8748 62.9999 47.7498C63.7499 48.6248 64.6249 49.2498 65.6249 49.4998ZM65.2499 45.2498C65.3749 44.4998 66.1249 44.1248 66.7499 44.2498C67.1249 44.3748 67.3749 44.4998 67.4999 44.8748C67.6249 45.1248 67.7499 45.4998 67.6249 45.8748C67.4999 46.2498 67.3749 46.4998 66.9999 46.6248C66.7499 46.7498 66.3749 46.8748 65.9999 46.7498C65.6249 46.6248 65.3749 46.4998 65.2499 46.1248C65.2499 45.8748 65.2499 45.6248 65.2499 45.2498Z" fill="url(#paint1_linear)" fill-opacity="0.3"/>
<path d="M13.7501 45.3749L12.8751 45.8749L12.3751 44.9999C12.0001 44.3749 11.1251 44.1249 10.5001 44.6249C9.87512 44.9999 9.62512 45.8749 10.1251 46.4999L10.6251 47.3749L9.75012 47.8749C9.12512 48.2499 8.87512 49.1249 9.37512 49.7499C9.50012 50.2499 10.0001 50.3749 10.3751 50.3749C10.6251 50.3749 10.8751 50.2499 11.1251 50.1249L12.0001 49.6249L12.5001 50.4999C12.7501 50.8749 13.2501 51.1249 13.6251 51.1249C13.8751 51.1249 14.1251 50.9999 14.3751 50.8749C15.0001 50.4999 15.2501 49.6249 14.7501 48.9999L14.2501 48.1249L15.1251 47.6249C15.7501 47.2499 16.0001 46.3749 15.5001 45.7499C15.2501 45.1249 14.3751 44.9999 13.7501 45.3749Z" fill="url(#paint2_linear)" fill-opacity="0.3"/>
<path d="M26.6251 49.1251C25.0001 49.1251 22.8751 48.8751 21.5001 48.5001C20.7501 48.3751 20.0001 48.8751 19.8751 49.6251C19.7501 50.3751 20.2501 51.1251 21.0001 51.2501C22.3751 51.5001 24.6251 51.8751 26.6251 51.8751C27.3751 51.8751 28.0001 51.2501 28.0001 50.5001C28.0001 49.7501 27.3751 49.1251 26.6251 49.1251Z" fill="url(#paint3_linear)" fill-opacity="0.3"/>
<path d="M36.875 44.3751C36 45.6251 35 46.6251 33.75 47.3751C33.375 47.6251 32.875 47.8751 32.375 48.1251C31.625 48.3751 31.375 49.2501 31.625 50.0001C31.875 50.5001 32.375 50.8751 32.875 50.8751C33 50.8751 33.25 50.8751 33.375 50.7501C34 50.5001 34.5 50.2501 35 49.8751C36.5 48.8751 37.75 47.7501 38.875 46.2501C39.375 45.6251 39.25 44.7501 38.625 44.3751C38.25 43.6251 37.375 43.7501 36.875 44.3751Z" fill="url(#paint4_linear)" fill-opacity="0.3"/>
<path d="M46.8749 35.375C45.4999 35.375 44.7499 35.75 43.9999 36C42.2499 36.75 40.7499 38.375 40.3749 38.875C39.8749 39.5 39.9999 40.375 40.4999 40.875C40.7499 41.125 41.1249 41.25 41.3749 41.25C41.7499 41.25 42.1249 41.125 42.3749 40.75C42.9999 40 43.9999 39.125 44.9999 38.625C45.7499 38.375 45.9999 38.25 46.8749 38.125C47.6249 38.125 48.2499 37.5 48.2499 36.75C48.2499 36 47.6249 35.375 46.8749 35.375Z" fill="url(#paint5_linear)" fill-opacity="0.3"/>
<path d="M52 37.4998C51.75 38.2498 52 38.9998 52.75 39.3748C54.125 39.9998 56.125 40.9998 57.625 42.1248C57.875 42.2498 58.125 42.3748 58.375 42.3748C58.875 42.3748 59.25 42.1248 59.5 41.7498C59.875 41.1248 59.75 40.2498 59.125 39.8748C57.375 38.7498 55.375 37.6248 53.75 36.9998C53.125 36.4998 52.375 36.8748 52 37.4998Z" fill="url(#paint6_linear)" fill-opacity="0.3"/>
<path d="M23.875 15.5C26.25 15.5 28.125 13.625 28.125 11.25C28.125 8.875 26.25 7 23.875 7C21.5 7 19.625 8.875 19.625 11.25C19.625 13.625 21.625 15.5 23.875 15.5ZM23.875 9.75C24.625 9.75 25.375 10.375 25.375 11.25C25.375 12 24.75 12.75 23.875 12.75C23.125 12.75 22.375 12.125 22.375 11.25C22.5 10.5 23.125 9.75 23.875 9.75Z" fill="url(#paint7_linear)" fill-opacity="0.3"/>
<defs>
<linearGradient id="paint0_linear" x1="12.1509" y1="120.288" x2="93.0691" y2="113.612" gradientUnits="userSpaceOnUse">
<stop offset="0.0628396" stop-color="#FF0F00"/>
<stop offset="0.460152" stop-color="#FF9533"/>
<stop offset="1" stop-color="#FF0000"/>
</linearGradient>
<linearGradient id="paint1_linear" x1="63.6292" y1="54.7534" x2="71.8102" y2="54.1277" gradientUnits="userSpaceOnUse">
<stop offset="0.0628396" stop-color="#FF0F00"/>
<stop offset="0.460152" stop-color="#FF9533"/>
<stop offset="1" stop-color="#FF0000"/>
</linearGradient>
<linearGradient id="paint2_linear" x1="10.1214" y1="55.4744" x2="16.8711" y2="54.9724" gradientUnits="userSpaceOnUse">
<stop offset="0.0628396" stop-color="#FF0F00"/>
<stop offset="0.460152" stop-color="#FF9533"/>
<stop offset="1" stop-color="#FF0000"/>
</linearGradient>
<linearGradient id="paint3_linear" x1="21.0944" y1="54.0571" x2="29.1332" y2="52.5989" gradientUnits="userSpaceOnUse">
<stop offset="0.0628396" stop-color="#FF0F00"/>
<stop offset="0.460152" stop-color="#FF9533"/>
<stop offset="1" stop-color="#FF0000"/>
</linearGradient>
<linearGradient id="paint4_linear" x1="32.6949" y1="55.3858" x2="40.444" y2="54.7469" gradientUnits="userSpaceOnUse">
<stop offset="0.0628396" stop-color="#FF0F00"/>
<stop offset="0.460152" stop-color="#FF9533"/>
<stop offset="1" stop-color="#FF0000"/>
</linearGradient>
<linearGradient id="paint5_linear" x1="41.3025" y1="45.0268" x2="49.5641" y2="44.1558" gradientUnits="userSpaceOnUse">
<stop offset="0.0628396" stop-color="#FF0F00"/>
<stop offset="0.460152" stop-color="#FF9533"/>
<stop offset="1" stop-color="#FF0000"/>
</linearGradient>
<linearGradient id="paint6_linear" x1="53.093" y1="45.9791" x2="60.9631" y2="45.1509" gradientUnits="userSpaceOnUse">
<stop offset="0.0628396" stop-color="#FF0F00"/>
<stop offset="0.460152" stop-color="#FF9533"/>
<stop offset="1" stop-color="#FF0000"/>
</linearGradient>
<linearGradient id="paint7_linear" x1="20.9175" y1="20.9643" x2="29.5344" y2="20.3129" gradientUnits="userSpaceOnUse">
<stop offset="0.0628396" stop-color="#FF0F00"/>
<stop offset="0.460152" stop-color="#FF9533"/>
<stop offset="1" stop-color="#FF0000"/>
</linearGradient>
</defs>
</svg>
