<svg width="100" height="102" viewBox="0 0 100 102" fill="none" xmlns="http://www.w3.org/2000/svg">
<path fill-rule="evenodd" clip-rule="evenodd" d="M0 101.224H50H100V50.9857V0.747559V101.224H0ZM63.3267 5.9936C94.6233 15.5696 104.476 56.5958 81.1686 80.2893C72.8407 88.7554 64.6093 92.2389 51.7442 92.7401C39.2814 93.226 31.2081 90.7058 22.3012 83.5483C-4.33372 62.1457 3.19302 17.7552 35.3756 6.44516C42.6279 3.8966 55.7779 3.68383 63.3267 5.9936ZM41.8535 18.3297C24.9814 23.9576 16.0128 41.5185 21.1349 58.8973C23.036 65.3491 30.7709 73.8482 37.7465 77.1498C52.5198 84.1441 70.4942 77.1899 77.9128 61.6114C80.5732 56.0249 81 45.5895 78.8651 38.3458C77.1163 32.4118 69.6837 23.8146 63.5558 20.636C58.3954 17.9597 46.6919 16.7162 41.8535 18.3297ZM70.3081 35.1507C72.5686 37.1685 74.4186 39.6863 74.4186 40.7466C74.4186 43.1663 48.9163 69.3079 46.5547 69.3079C44.65 69.3079 25.5814 50.5696 25.5814 48.6972C25.5814 47.1534 33.8733 38.5739 35.3663 38.5739C36.0116 38.5739 38.7919 40.8211 41.5453 43.5682L46.55 48.5613L54.9512 40.022C59.5721 35.3244 63.9919 31.4815 64.7756 31.4815C65.5581 31.4815 68.0477 33.1329 70.3081 35.1507Z" fill="#051E36"/>
</svg>
