<svg width="165" height="165" viewBox="0 0 165 165" fill="none" xmlns="http://www.w3.org/2000/svg">
<path d="M43.2597 133.692C43.2597 126.974 43.2305 120.256 43.2305 113.508C43.2305 102.137 43.2305 90.7657 43.2305 79.3943C43.2305 78.929 43.2305 78.4637 43.2305 77.9402C74.8457 77.9402 106.344 77.9402 138.018 77.9402C138.018 78.3764 138.018 78.8417 138.018 79.278C138.018 96.9313 138.018 114.614 138.018 132.267C138.018 132.732 138.047 133.198 138.047 133.692C106.461 133.692 74.8457 133.692 43.2597 133.692ZM90.522 126.887C99.63 126.887 108.767 126.887 117.875 126.887C118.868 126.887 121.553 124.909 121.816 124.007C121.845 123.862 121.816 123.717 121.816 123.571C121.553 120.256 123.743 117.464 127.012 117.522C128.326 117.551 128.997 116.998 129.756 116.242C130.048 115.922 130.428 115.661 130.661 115.312C130.895 114.934 131.158 114.497 131.158 114.061C131.187 108.535 131.187 103.01 131.187 97.4838C131.187 96.7568 128.852 94.0811 128.151 93.9939C128.034 93.9939 127.947 94.023 127.83 94.023C124.56 94.3138 121.816 92.1617 121.787 88.9335C121.787 87.5084 121.116 86.8104 120.327 85.938C119.481 84.9782 118.576 84.6583 117.291 84.6583C99.8927 84.6874 82.4941 84.7165 65.0663 84.6292C62.9645 84.6292 61.3297 85.0073 60.0452 86.7232C59.6365 87.2758 59.3446 87.6829 59.403 88.4391C59.6074 91.4637 57.0968 94.2266 54.0608 94.0811C52.8639 94.023 52.2509 94.4883 51.5795 95.1863C51.2584 95.5353 50.8497 95.8261 50.5869 96.2042C50.3242 96.6404 50.0031 97.1639 50.0031 97.6292C49.9739 103.068 49.9739 108.535 50.0031 113.974C50.0031 114.381 50.149 114.846 50.3826 115.166C51.0248 115.922 51.7254 116.591 52.4552 117.26C52.6888 117.464 53.0975 117.551 53.4186 117.522C56.367 117.202 59.2862 119.412 59.3154 122.321C59.3154 123.891 59.9577 124.822 60.9794 125.81C61.7676 126.596 62.5558 126.916 63.6651 126.916C72.6563 126.857 81.5892 126.887 90.522 126.887Z" fill="black"/>
<path d="M110.11 28.5576C117.934 42.8082 125.728 56.9715 133.581 71.2512C128.122 71.2512 122.809 71.2512 117.35 71.2512C117.876 69.8261 118.781 68.8664 120.094 68.2266C120.474 68.023 120.824 67.6158 121.028 67.2087C122.05 65.231 121.7 63.4861 120.532 61.5375C118.138 57.5532 115.978 53.4234 113.789 49.3227C113.409 48.6248 113 48.1303 112.183 48.0431C111.833 47.9849 111.482 47.8395 111.132 47.7232C110.169 47.4033 109.381 47.316 108.33 47.9268C105.644 49.5263 102.053 48.1594 100.827 45.3093C100.681 44.9603 100.273 44.7277 99.9807 44.4659C99.9515 44.4368 99.9223 44.4659 99.8639 44.4368C97.8204 43.4771 96.0689 43.8843 94.0838 44.9894C78.8162 53.4234 63.4611 61.712 48.2227 70.146C46.7047 70.9894 45.3035 71.3675 43.6103 71.3675C39.3482 71.3966 36.7209 74.1304 36.6917 78.4055C36.6917 82.5353 36.6917 86.6941 36.6917 90.8239C36.6917 90.8821 36.6625 90.9693 36.6042 91.3183C33.3346 85.4727 30.1819 79.7724 26.9707 73.9268C54.6742 58.8037 82.3485 43.7388 110.11 28.5576Z" fill="black"/>
<path d="M97.909 71.3095C87.6625 71.3095 77.4452 71.3095 67.0527 71.3095C67.4322 70.5825 67.7242 69.9426 68.1037 69.361C72.5701 62.0321 82.2035 58.6294 89.9979 61.7413C94.0556 63.3699 96.7997 66.2491 97.8798 70.5534C97.909 70.6988 97.9382 70.8442 97.9382 70.9896C97.9674 71.0478 97.9382 71.1059 97.909 71.3095Z" fill="url(#paint0_linear)"/>
<path d="M106.551 67.8195C103.485 67.8195 101.033 65.3475 101.033 62.2647C101.062 59.2692 103.515 56.7972 106.521 56.7681C109.528 56.739 112.097 59.2692 112.097 62.2938C112.155 65.3184 109.616 67.8195 106.551 67.8195Z" fill="url(#paint1_linear)"/>
<path d="M90.0548 120.401C85.3548 120.285 80.7132 118.598 77.1518 114.555C72.4226 109.175 72.6562 101.526 77.7064 96.4077C84.1579 89.835 95.6305 89.3988 102.607 95.448C109.73 101.672 109.001 111.967 101.089 117.26C97.9075 119.383 94.4336 120.372 90.0548 120.401Z" fill="url(#paint2_linear)"/>
<path d="M118.695 111.269C115.6 111.298 113.119 108.855 113.119 105.772C113.119 102.748 115.513 100.305 118.578 100.247C121.643 100.188 124.183 102.602 124.241 105.685C124.271 108.739 121.76 111.24 118.695 111.269Z" fill="url(#paint3_linear)"/>
<path d="M62.586 111.269C59.4916 111.269 57.0394 108.797 57.0686 105.714C57.0978 102.66 59.6083 100.218 62.6735 100.276C65.7095 100.305 68.1617 102.777 68.1617 105.772C68.1617 108.797 65.6511 111.269 62.586 111.269Z" fill="url(#paint4_linear)"/>
<defs>
<linearGradient id="paint0_linear" x1="82.5015" y1="60.5884" x2="82.5015" y2="71.3095" gradientUnits="userSpaceOnUse">
<stop stop-color="#FF7209"/>
<stop offset="1" stop-color="#FFC266"/>
</linearGradient>
<linearGradient id="paint1_linear" x1="106.566" y1="56.7678" x2="106.566" y2="67.8195" gradientUnits="userSpaceOnUse">
<stop stop-color="#FF7209"/>
<stop offset="1" stop-color="#FFC266"/>
</linearGradient>
<linearGradient id="paint2_linear" x1="90.6368" y1="91.1802" x2="90.6368" y2="120.401" gradientUnits="userSpaceOnUse">
<stop stop-color="#FF7209"/>
<stop offset="1" stop-color="#FFC266"/>
</linearGradient>
<linearGradient id="paint3_linear" x1="118.68" y1="100.246" x2="118.68" y2="111.269" gradientUnits="userSpaceOnUse">
<stop stop-color="#FF7209"/>
<stop offset="1" stop-color="#FFC266"/>
</linearGradient>
<linearGradient id="paint4_linear" x1="62.615" y1="100.275" x2="62.615" y2="111.269" gradientUnits="userSpaceOnUse">
<stop stop-color="#FF7209"/>
<stop offset="1" stop-color="#FFC266"/>
</linearGradient>
</defs>
</svg>
