<svg width="47" height="53" viewBox="0 0 47 53" fill="none" xmlns="http://www.w3.org/2000/svg">
<ellipse cx="31.5" cy="13.5" rx="2.5" ry="3.5" fill="white"/>
<rect x="16.5" y="0.5" width="30" height="52" rx="15" stroke="white"/>
<path d="M3.64645 41.3536C3.84171 41.5488 4.15829 41.5488 4.35355 41.3536L7.53553 38.1716C7.7308 37.9763 7.7308 37.6597 7.53553 37.4645C7.34027 37.2692 7.02369 37.2692 6.82843 37.4645L4 40.2929L1.17157 37.4645C0.976312 37.2692 0.659729 37.2692 0.464467 37.4645C0.269205 37.6597 0.269205 37.9763 0.464467 38.1716L3.64645 41.3536ZM3.5 17L3.5 41L4.5 41L4.5 17L3.5 17Z" fill="white"/>
</svg>
