<svg width="94" height="94" viewBox="0 0 94 94" fill="none" xmlns="http://www.w3.org/2000/svg">
<path d="M91.9866 34.2255C91.8985 31.8436 91.1817 29.5332 89.8637 27.4347C82.3997 15.5508 65.6057 18.0973 49.4337 12.1554C46.2443 10.9836 45.1354 9.51454 45.4106 7.91118M91.9866 34.2255L89.8637 75.819C85.2527 83.4586 73.0697 91.0982 52.5437 91.9471C33.2214 92.7462 17.0897 84.3075 15.8457 79.2144V45.2605C18.3337 48.6559 34.5057 57.9932 49.4337 57.9932C64.3617 57.9932 71.9259 55.8963 78.6677 52.9001M91.9866 34.2255C92.2375 41.0104 89.253 48.1957 78.6677 52.9001M45.4106 7.91118C46.5305 1.38466 70.5817 2.01664 70.5817 2.01664V16.3997M45.4106 7.91118V38.4697C46.9457 41.8651 48.8498 43.4935 53.1657 45.2605C59.3857 47.807 67.3321 48.396 70.5817 49.5047C75.5577 51.2024 77.4237 51.7083 78.6677 52.9001" stroke="#EC555F" stroke-width="3"/>
<path d="M21.1943 49.4925C13.5166 43.42 13.09 35.1393 25.8863 36.2434C28.9342 36.5064 35.2701 35.6914 35.2701 31.275M14.7962 67.71H2V27.9628C7.26066 26.6747 19.8422 25.7544 24.6066 25.7544C32.7109 25.7543 35.2701 27.9627 35.2701 31.275M35.2701 31.275V53.9089" stroke="#EC555F" stroke-width="3"/>
<line x1="26.5" y1="73.5" x2="26.5" y2="85.5" stroke="#EC555F" stroke-width="3" stroke-linecap="round"/>
<line x1="54.5547" y1="77.5" x2="54.5547" y2="90.5" stroke="#EC555F" stroke-width="3" stroke-linecap="round"/>
<line x1="78.5" y1="71.5" x2="78.5" y2="84.5" stroke="#EC555F" stroke-width="3" stroke-linecap="round"/>
<line x1="38.5" y1="82.5" x2="38.5" y2="89.5" stroke="#EC555F" stroke-width="3" stroke-linecap="round"/>
<line x1="66.5" y1="81.5" x2="66.5" y2="88.5" stroke="#EC555F" stroke-width="3" stroke-linecap="round"/>
<line x1="24.4941" y1="64.5026" x2="26.7052" y2="63.397" stroke="#EC555F" stroke-width="2" stroke-linecap="round"/>
<line x1="26.707" y1="68.4668" x2="26.707" y2="63.4668" stroke="#EC555F" stroke-width="2" stroke-linecap="round"/>
<path d="M53.0547 67.8264C53.149 67.2604 53.8896 66.6199 54.4697 66.5697C55.8419 66.4509 56.8182 67.8263 56.1951 68.6391L53.1816 72.1697M53.0547 72.3715H56.7143" stroke="#EC555F" stroke-width="2" stroke-linecap="round"/>
<path d="M76.7118 61.9127C76.9738 61.4347 77.4106 61.2482 78.1146 61.4348C78.4747 61.5303 79.3919 62.3344 78.6437 63.4497C78.0451 64.3419 77.7096 64.1467 77.7096 64.1467C77.4209 64.1467 78.556 64.1425 79.0644 64.7648C80.1104 66.0449 78.7012 67.0986 77.9913 67.015C77.2813 66.9314 76.9151 66.6873 76.8043 66.5371" stroke="#EC555F" stroke-width="2" stroke-linecap="round"/>
</svg>
