<svg width="94" height="94" viewBox="0 0 94 94" fill="none" xmlns="http://www.w3.org/2000/svg">
<path d="M91.9866 34.2255C91.8985 31.8436 91.1817 29.5332 89.8637 27.4347C82.3997 15.5508 65.6057 18.0973 49.4337 12.1554C46.2443 10.9836 45.1354 9.51454 45.4106 7.91118M91.9866 34.2255L89.8637 75.819C85.2527 83.4586 73.0697 91.0982 52.5437 91.9471C33.2214 92.7462 17.0897 84.3075 15.8457 79.2144V45.2605C18.3337 48.6559 34.5057 57.9932 49.4337 57.9932C64.3617 57.9932 71.9259 55.8963 78.6677 52.9001M91.9866 34.2255C92.2375 41.0104 89.253 48.1957 78.6677 52.9001M45.4106 7.91118C46.5305 1.38466 70.5817 2.01664 70.5817 2.01664V16.3997M45.4106 7.91118V38.4697C46.9457 41.8651 48.8498 43.4935 53.1657 45.2605C59.3857 47.807 67.3321 48.396 70.5817 49.5047C75.5577 51.2024 77.4237 51.7083 78.6677 52.9001" stroke="#EC555F" stroke-width="3"/>
<path d="M21.1943 49.4925C13.5166 43.42 13.09 35.1393 25.8863 36.2434C28.9342 36.5064 35.2701 35.6914 35.2701 31.275M14.7962 67.71H2V27.9628C7.26066 26.6747 19.8422 25.7544 24.6066 25.7544C32.7109 25.7543 35.2701 27.9627 35.2701 31.275M35.2701 31.275V53.9089" stroke="#EC555F" stroke-width="3"/>
</svg>
