<svg width="87" height="110" viewBox="0 0 87 110" fill="none" xmlns="http://www.w3.org/2000/svg">
<path fill-rule="evenodd" clip-rule="evenodd" d="M0 109.208H43.5H87V54.9908V0.773438V109.208H0ZM24.8427 14.5497C33.1227 21.0618 28.6489 37.9224 18.6414 37.9224C13.2115 37.9224 7.52885 31.2035 7.52885 24.7827C7.52885 21.114 10.778 15.6692 14.2379 13.5406C17.4895 11.5406 21.5024 11.9221 24.8427 14.5497ZM69.7372 13.2023C75.6599 16.1722 78.3209 24.113 75.5453 30.5328C71.6018 39.6533 61.243 40.2437 56.8512 31.598C52.5087 23.0518 57.1916 12.88 65.9042 11.9342C66.4939 11.8699 68.2189 12.4402 69.7372 13.2023ZM48.9718 26.7576C54.3415 29.6844 58.5485 37.2356 58.5485 43.9466C58.5485 47.3813 56.6772 53.1244 54.5866 56.1063C46.5023 67.6376 30.1321 63.5602 26.806 49.1866C25.7294 44.5319 25.7294 43.3612 26.806 38.7065C29.3474 27.7225 40.1053 21.9232 48.9718 26.7576ZM14.1634 40.3943C16.6103 41.4897 18.9551 41.8341 21.0649 41.4054L24.2596 40.7578L24.278 44.6112C24.2881 46.7307 25.0033 50.3332 25.8674 52.6163L27.4385 56.769L24.5164 57.3383C22.9094 57.6505 20.3371 59.0582 18.8004 60.4648C13.7719 65.0683 4.04466 63.1968 2.83085 57.3935C1.98762 53.3613 3.04416 43.1433 4.59845 40.2959C6.16194 37.4324 7.57736 37.4475 14.1634 40.3943ZM79.8668 40.2507C81.3383 42.9465 82.4534 53.5963 81.6612 57.3865C80.4457 63.1968 70.7218 65.0713 65.69 60.4648C64.1533 59.0582 61.5809 57.6505 59.9739 57.3383L57.0519 56.769L58.6229 52.6163C59.4871 50.3332 60.2023 46.8422 60.2124 44.8592L60.2308 41.2538L65.0409 41.2989C68.029 41.3271 70.8013 40.7116 72.3606 39.6734C75.8841 37.328 78.3761 37.5188 79.8668 40.2507ZM33.0433 63.0231C36.6019 65.2701 38.94 66.0351 42.2452 66.0351C45.5504 66.0351 47.8885 65.2701 51.4471 63.0231C58.0876 58.8302 61.2672 59.01 65.2609 63.8042C69.1332 68.4508 71.1058 75.722 71.1058 85.3436C71.1058 100.391 69.088 101.423 40.5186 100.99C22.2436 100.713 19.3893 100.454 17.487 98.9029C14.3684 96.3597 13.2073 92.5495 13.2943 85.1478C13.4055 75.6507 15.4274 68.3665 19.2153 63.8213C23.2248 59.009 26.3953 58.8262 33.0433 63.0231Z" fill="#051E36"/>
</svg>
