<svg width="81" height="81" viewBox="0 0 81 81" fill="none" xmlns="http://www.w3.org/2000/svg">
<path d="M75.9375 20.25H35.4375V68.3438C35.4375 72.5312 32.0312 75.9375 27.8438 75.9375H12.6562C8.46877 75.9375 5.0625 72.5312 5.0625 68.3438V20.25C2.2642 20.25 0 22.5144 0 25.3125V75.9375C0 78.7358 2.26436 81 5.0625 81H75.9375C78.7358 81 81 78.7358 81 75.9375V25.3125C81 22.5144 78.7358 20.25 75.9375 20.25ZM48.0938 72.1406C45.9976 72.1406 44.2969 70.4399 44.2969 68.3438C44.2969 66.2476 45.9976 64.5469 48.0938 64.5469C50.1899 64.5469 51.8906 66.2476 51.8906 68.3438C51.8906 70.4399 50.1899 72.1406 48.0938 72.1406ZM48.0938 62.0156C45.9976 62.0156 44.2969 60.3149 44.2969 58.2188C44.2969 56.1226 45.9976 54.4219 48.0938 54.4219C50.1899 54.4219 51.8906 56.1226 51.8906 58.2188C51.8906 60.3149 50.1899 62.0156 48.0938 62.0156ZM48.0938 51.8906C45.9976 51.8906 44.2969 50.1899 44.2969 48.0938C44.2969 45.9976 45.9976 44.2969 48.0938 44.2969C50.1899 44.2969 51.8906 45.9976 51.8906 48.0938C51.8906 50.1899 50.1899 51.8906 48.0938 51.8906ZM58.2188 72.1406C56.1226 72.1406 54.4219 70.4399 54.4219 68.3438C54.4219 66.2476 56.1226 64.5469 58.2188 64.5469C60.3149 64.5469 62.0156 66.2476 62.0156 68.3438C62.0156 70.4399 60.3149 72.1406 58.2188 72.1406ZM58.2188 62.0156C56.1226 62.0156 54.4219 60.3149 54.4219 58.2188C54.4219 56.1226 56.1226 54.4219 58.2188 54.4219C60.3149 54.4219 62.0156 56.1226 62.0156 58.2188C62.0156 60.3149 60.3149 62.0156 58.2188 62.0156ZM58.2188 51.8906C56.1226 51.8906 54.4219 50.1899 54.4219 48.0938C54.4219 45.9976 56.1226 44.2969 58.2188 44.2969C60.3149 44.2969 62.0156 45.9976 62.0156 48.0938C62.0156 50.1899 60.3149 51.8906 58.2188 51.8906ZM68.3438 72.1406C66.2476 72.1406 64.5469 70.4399 64.5469 68.3438C64.5469 66.2476 66.2476 64.5469 68.3438 64.5469C70.4399 64.5469 72.1406 66.2476 72.1406 68.3438C72.1406 70.4399 70.4399 72.1406 68.3438 72.1406ZM68.3438 62.0156C66.2476 62.0156 64.5469 60.3149 64.5469 58.2188C64.5469 56.1226 66.2476 54.4219 68.3438 54.4219C70.4399 54.4219 72.1406 56.1226 72.1406 58.2188C72.1406 60.3149 70.4399 62.0156 68.3438 62.0156ZM68.3438 51.8906C66.2476 51.8906 64.5469 50.1899 64.5469 48.0938C64.5469 45.9976 66.2476 44.2969 68.3438 44.2969C70.4399 44.2969 72.1406 45.9976 72.1406 48.0938C72.1406 50.1899 70.4399 51.8906 68.3438 51.8906ZM72.1406 37.9688C72.1406 39.3679 71.0085 40.5 69.6094 40.5H46.8281C45.429 40.5 44.2969 39.3679 44.2969 37.9688V32.9062C44.2969 31.5071 45.429 30.375 46.8281 30.375H69.6094C71.0085 30.375 72.1406 31.5071 72.1406 32.9062V37.9688ZM30.375 12.6562V68.3438C30.375 69.7429 29.2429 70.875 27.8438 70.875H12.6562C11.2571 70.875 10.125 69.7429 10.125 68.3438V12.6562C10.125 11.2571 11.2571 10.125 12.6562 10.125H15.1875V2.53125C15.1875 1.1321 16.3196 0 17.7188 0C19.1179 0 20.25 1.1321 20.25 2.53125V10.125H27.8438C29.2429 10.125 30.375 11.2571 30.375 12.6562Z" fill="url(#paint0_linear)" fill-opacity="0.3"/>
<defs>
<linearGradient id="paint0_linear" x1="0.814793" y1="81" x2="95.7876" y2="58.326" gradientUnits="userSpaceOnUse">
<stop stop-color="#FF3541"/>
<stop offset="0.984375" stop-color="#FF6D2F"/>
</linearGradient>
</defs>
</svg>
