<svg width="24" height="24" viewBox="0 0 24 24" fill="none" xmlns="http://www.w3.org/2000/svg">
<path d="M23.7865 18.7772C23.7297 18.4263 23.5097 18.1264 23.1802 17.9483L18.3063 15.0766L18.2662 15.0542C18.0619 14.9519 17.8362 14.8995 17.6076 14.9012C17.1993 14.9012 16.8093 15.0559 16.5387 15.3272L15.1001 16.7664C15.0386 16.8249 14.838 16.9096 14.7771 16.9126C14.7605 16.9113 13.1033 16.7919 10.0525 13.7408C7.00712 10.6961 6.87792 9.0338 6.8769 9.0338C6.8786 8.9488 6.96224 8.74888 7.02174 8.687L8.24846 7.46062C8.6806 7.02746 8.81014 6.30938 8.55378 5.75314L5.84466 0.65552C5.6478 0.25024 5.2653 0 4.84098 0C4.54076 0 4.25108 0.12444 4.02464 0.35054L0.680737 3.68696C0.360117 4.00588 0.0840366 4.56348 0.0238566 5.01228C-0.00538341 5.22682 -0.598683 10.3479 6.42232 17.3699C12.3829 23.3298 17.0307 23.7929 18.3142 23.7929C18.4705 23.7949 18.6267 23.7868 18.782 23.7687C19.2294 23.7089 19.7864 23.4335 20.1049 23.1142L23.4461 19.7734C23.7188 19.4993 23.8432 19.1372 23.7865 18.7772Z" fill="url(#paint0_linear)"/>
<defs>
<linearGradient id="paint0_linear" x1="3.61906" y1="39.0888" x2="27.7461" y2="37.2643" gradientUnits="userSpaceOnUse">
<stop offset="0.0628396" stop-color="#FF0F00"/>
<stop offset="0.460152" stop-color="#FF9533"/>
<stop offset="1" stop-color="#FF0000"/>
</linearGradient>
</defs>
</svg>
