<svg width="24" height="24" viewBox="0 0 24 24" fill="none" xmlns="http://www.w3.org/2000/svg">
<path d="M23.8866 18.8806C23.8298 18.5297 23.6098 18.2298 23.2803 18.0517L18.4064 15.18L18.3663 15.1576C18.1619 15.0553 17.9363 15.0029 17.7077 15.0046C17.2994 15.0046 16.9094 15.1593 16.6388 15.4306L15.2002 16.8698C15.1387 16.9283 14.9381 17.013 14.8772 17.016C14.8606 17.0147 13.2034 16.8953 10.1526 13.8442C7.10721 10.7995 6.97801 9.13719 6.97699 9.13719C6.97869 9.05219 7.06233 8.85227 7.12183 8.79039L8.34855 7.56401C8.78069 7.13085 8.91023 6.41277 8.65387 5.85653L5.94475 0.758913C5.74789 0.353633 5.3654 0.103394 4.94107 0.103394C4.64085 0.103394 4.35117 0.227834 4.12473 0.453934L0.780835 3.79035C0.460215 4.10927 0.184134 4.66687 0.123954 5.11567C0.0947142 5.33021 -0.498586 10.4513 6.52241 17.4733C12.483 23.4332 17.1308 23.8963 18.4143 23.8963C18.5706 23.8983 18.7268 23.8902 18.8821 23.8721C19.3295 23.8123 19.8865 23.5369 20.205 23.2176L23.5462 19.8768C23.8189 19.6027 23.9433 19.2406 23.8866 18.8806Z" fill="white"/>
</svg>
