<svg width="45" height="55" viewBox="0 0 45 55" fill="none" xmlns="http://www.w3.org/2000/svg">
<path d="M45 24.1015C45 10.8002 34.9175 0 22.5 0C10.0825 0 0 10.8002 0 24.1015C0 35.0154 7.11085 44.7924 16.875 47.5208L19.125 50.7692L20.8125 53.1868C20.8125 53.1868 21.9375 55 22.5 55C23.0625 55 24.1875 53.1868 24.1875 53.1868L25.875 50.7692L28.125 47.6345C37.8892 44.9061 45 35.129 45 24.1015Z" fill="url(#paint0_linear)"/>
<path fill-rule="evenodd" clip-rule="evenodd" d="M12.2207 20.3389L20.7482 40.214L23.2821 40.0591L35.8541 17.1899C32.5892 20.9068 25.9622 31.3347 22.6486 36.0841C19.9685 31.7477 14.0237 23.0233 12.2207 20.3389Z" fill="white"/>
<path fill-rule="evenodd" clip-rule="evenodd" d="M28.7395 23.3331L36.0001 16.3639L34.7331 14.712L13.0977 18.687C16.801 19.1516 26.0595 18.7386 30.445 18.7386C29.0806 22.5588 29.5192 20.8552 28.7395 23.3331Z" fill="white"/>
<path fill-rule="evenodd" clip-rule="evenodd" d="M18.3114 26.637L10.125 16.1058L11.3919 14.5055L33.0274 18.5321C29.3241 18.9451 20.0656 18.5321 15.6801 18.5321C16.9957 22.3523 17.483 24.1591 18.3114 26.637Z" fill="white"/>
<path fill-rule="evenodd" clip-rule="evenodd" d="M26.4018 20.4423L25.0374 31.3865H20.9929L19.4336 20.4423H22.2599C22.601 23.4364 22.7959 26.0176 22.9421 28.0825C23.0882 25.966 23.2344 24.1075 23.3806 22.4556L23.5755 20.4423H26.4018Z" fill="white"/>
<defs>
<linearGradient id="paint0_linear" x1="-3.19922" y1="76.3675" x2="45.8791" y2="76.5991" gradientUnits="userSpaceOnUse">
<stop offset="0.0040058" stop-color="#071D55"/>
<stop offset="0.997299" stop-color="#00F0FF"/>
</linearGradient>
</defs>
</svg>
