<svg width="23" height="23" viewBox="0 0 23 23" fill="none" xmlns="http://www.w3.org/2000/svg">
<path d="M14.1436 11.4999L22.2061 3.45611C22.5592 3.10304 22.7576 2.62418 22.7576 2.12486C22.7576 1.62554 22.5592 1.14668 22.2061 0.793609C21.8531 0.44054 21.3742 0.242187 20.8749 0.242188C20.3756 0.242188 19.8967 0.44054 19.5436 0.793609L11.4999 8.85611L3.45614 0.793609C3.10307 0.44054 2.6242 0.242187 2.12489 0.242188C1.62557 0.242188 1.1467 0.44054 0.793635 0.793609C0.440566 1.14668 0.242214 1.62554 0.242214 2.12486C0.242214 2.62418 0.440566 3.10304 0.793635 3.45611L8.85614 11.4999L0.793635 19.5436C0.617895 19.7179 0.478406 19.9253 0.383215 20.1538C0.288023 20.3823 0.239014 20.6273 0.239014 20.8749C0.239014 21.1224 0.288023 21.3675 0.383215 21.5959C0.478406 21.8244 0.617895 22.0318 0.793635 22.2061C0.967941 22.3818 1.17532 22.5213 1.4038 22.6165C1.63229 22.7117 1.87736 22.7607 2.12489 22.7607C2.37241 22.7607 2.61748 22.7117 2.84597 22.6165C3.07445 22.5213 3.28183 22.3818 3.45614 22.2061L11.4999 14.1436L19.5436 22.2061C19.7179 22.3818 19.9253 22.5213 20.1538 22.6165C20.3823 22.7117 20.6274 22.7607 20.8749 22.7607C21.1224 22.7607 21.3675 22.7117 21.596 22.6165C21.8245 22.5213 22.0318 22.3818 22.2061 22.2061C22.3819 22.0318 22.5214 21.8244 22.6166 21.5959C22.7118 21.3675 22.7608 21.1224 22.7608 20.8749C22.7608 20.6273 22.7118 20.3823 22.6166 20.1538C22.5214 19.9253 22.3819 19.7179 22.2061 19.5436L14.1436 11.4999Z" fill="#121212"/>
</svg>
