<svg width="93" height="72" viewBox="0 0 93 72" fill="none" xmlns="http://www.w3.org/2000/svg">
<path d="M48.1954 4.96533C47.0335 4.96533 45.9192 5.48848 45.0976 6.41969C44.276 7.3509 43.8145 8.6139 43.8145 9.93083V39.7238C43.8145 41.0407 44.276 42.3037 45.0976 43.2349C45.9192 44.1662 47.0335 44.6893 48.1954 44.6893H56.9573V52.1376C56.9572 52.796 57.188 53.4275 57.5988 53.8931C58.0096 54.3587 58.5668 54.6203 59.1477 54.6203H60.2429C60.7906 54.6203 61.3382 54.372 61.7763 53.9003L69.881 44.6893H83.2428C84.4047 44.6893 85.519 44.1662 86.3406 43.2349C87.1622 42.3037 87.6238 41.0407 87.6238 39.7238V9.93083C87.6238 8.6139 87.1622 7.3509 86.3406 6.41969C85.519 5.48848 84.4047 4.96533 83.2428 4.96533H48.1954ZM48.1954 9.93083H83.2428V39.7238H68.0848L61.3382 47.3707V39.7238H48.1954V9.93083ZM66.1353 13.655C64.1858 13.655 62.6306 14.1018 61.4477 14.9956C60.243 15.8894 59.6296 17.3791 59.7391 19.0922H64.0544C64.0544 18.397 64.2734 17.8756 64.6239 17.528C65.062 17.1805 65.5439 17.0067 66.1353 17.0067C66.8143 17.0067 67.4058 17.2053 67.8001 17.6522C68.1943 18.0742 68.3915 18.6204 68.3915 19.3653C68.3915 20.0604 68.2162 20.6811 67.9096 21.2025C67.5372 21.7487 67.0772 22.1956 66.5077 22.5432C65.3686 23.3377 64.6239 24.0328 64.1639 24.6287C63.7477 25.2246 63.5286 26.0687 63.5286 27.3101H67.9096C67.9096 26.6149 68.0191 26.0687 68.2162 25.6218C68.4134 25.1997 68.7858 24.8273 69.3553 24.4549C70.3629 23.9335 71.1953 23.2384 71.8305 22.3446C72.4657 21.426 72.7943 20.4577 72.7943 19.3653C72.7943 17.6273 72.2029 16.237 71.02 15.1943C69.8372 14.1763 68.1943 13.655 66.1353 13.655ZM63.5286 29.7928V34.7583H67.9096V29.7928H63.5286Z" fill="#23282D"/>
<path d="M43.4335 16.9408C44.5954 16.9408 45.7097 17.464 46.5313 18.3952C47.3529 19.3264 47.8145 20.5894 47.8145 21.9063V51.6993C47.8145 53.0163 47.3529 54.2792 46.5313 55.2105C45.7097 56.1417 44.5954 56.6648 43.4335 56.6648H34.6717V64.1131C34.6717 64.7715 34.4409 65.403 34.0301 65.8686C33.6193 66.3342 33.0621 66.5958 32.4812 66.5958H31.386C30.8383 66.5958 30.2907 66.3475 29.8526 65.8758L21.7479 56.6648H8.38606C7.22417 56.6648 6.10986 56.1417 5.28828 55.2105C4.46669 54.2792 4.00513 53.0163 4.00513 51.6993V21.9063C4.00513 20.5894 4.46669 19.3264 5.28828 18.3952C6.10986 17.464 7.22417 16.9408 8.38606 16.9408H43.4335ZM43.4335 21.9063H8.38606V51.6993H23.5441L30.2907 59.3462V51.6993H43.4335V21.9063Z" fill="#23282D"/>
<path d="M23.6271 43.3018V38.3363H19.2461V43.3018H23.6271Z" fill="#23282D"/>
<path d="M30.8407 43.3018V38.3363H26.4597V43.3018H30.8407Z" fill="#23282D"/>
</svg>
