<svg width="103" height="141" viewBox="0 0 103 141" fill="none" xmlns="http://www.w3.org/2000/svg">
<path fill-rule="evenodd" clip-rule="evenodd" d="M0 140.803H51.5H103V70.6687V0.53418V140.803H0ZM87.0546 51.8689L87.4066 80.0329L83.4378 87.7765C80.9293 92.6709 76.808 97.8559 72.2382 101.869C64.5732 108.598 50.1871 117.008 46.3422 117.008C37.8623 117.008 14.2205 98.8077 8.5829 87.9406C5.25952 81.5345 5.21519 81.0724 5.21519 53.0975C5.21519 37.5051 5.61415 24.3636 6.10308 23.894C6.5907 23.4256 24.926 23.1914 46.8467 23.373L86.7025 23.7036L87.0546 51.8689ZM46.9367 68.7901C46.9367 89.5098 47.4256 103.231 48.1649 103.231C51.0658 103.231 66.1964 90.8036 70.0791 85.2329L74.3165 79.1525V56.7508V34.349H60.6266H46.9367V68.7901Z" fill="#051E36"/>
</svg>
