<svg width="120" height="120" viewBox="0 0 120 120" fill="none" xmlns="http://www.w3.org/2000/svg">
<path d="M117.837 60C117.837 92.3198 91.8453 118.5 59.8073 118.5C27.7694 118.5 1.77734 92.3198 1.77734 60C1.77734 27.6802 27.7694 1.5 59.8073 1.5C91.8453 1.5 117.837 27.6802 117.837 60Z" fill="white" stroke="white" stroke-width="3"/>
<path d="M79.7064 45.1091V84.1857C79.7064 85.1877 78.8329 86 77.7324 86H40.1531C39.0533 86 38.1797 85.1879 38.1797 84.1857V35.8137C38.1797 34.8121 39.0533 34 40.1531 34H67.3782" stroke="black" stroke-miterlimit="10" stroke-linecap="round" stroke-linejoin="round"/>
<path d="M77.6812 45H69.4395C68.3922 45 67.5527 44.261 67.5527 43.3308V36" stroke="black" stroke-miterlimit="10" stroke-linecap="round" stroke-linejoin="round"/>
<path d="M68.5645 34L79.7058 44" stroke="black" stroke-miterlimit="10" stroke-linecap="round" stroke-linejoin="round"/>
<path d="M41.9492 51H54.9461" stroke="black" stroke-width="1.5" stroke-miterlimit="10" stroke-linecap="round" stroke-linejoin="round"/>
<path d="M41.9492 57.1593H75.2212" stroke="black" stroke-width="1.5" stroke-miterlimit="10" stroke-linecap="round" stroke-linejoin="round"/>
<path d="M41.9492 63.447H75.2212" stroke="black" stroke-width="1.5" stroke-miterlimit="10" stroke-linecap="round" stroke-linejoin="round"/>
<path d="M63.0039 76.1508H75.221" stroke="black" stroke-width="1.5" stroke-miterlimit="10" stroke-linecap="round" stroke-linejoin="round"/>
<path d="M41.9492 69.863H75.2212" stroke="black" stroke-width="1.5" stroke-miterlimit="10" stroke-linecap="round" stroke-linejoin="round"/>
</svg>
