<svg width="120" height="120" viewBox="0 0 120 120" fill="none" xmlns="http://www.w3.org/2000/svg">
<path d="M117.859 60C117.859 92.3198 91.8668 118.5 59.8288 118.5C27.7908 118.5 1.79883 92.3198 1.79883 60C1.79883 27.6802 27.7908 1.5 59.8288 1.5C91.8668 1.5 117.859 27.6802 117.859 60Z" fill="white" stroke="white" stroke-width="3"/>
<path d="M117.859 60C117.859 92.3198 91.8668 118.5 59.8288 118.5C27.7908 118.5 1.79883 92.3198 1.79883 60C1.79883 27.6802 27.7908 1.5 59.8288 1.5C91.8668 1.5 117.859 27.6802 117.859 60Z" fill="white" stroke="white" stroke-width="3"/>
<g clip-path="url(#clip0)">
<path d="M51.1625 82.7636L70.8266 82.7536L70.8222 87.7003L51.1062 87.6904L51.1625 82.7636ZM61.0823 62.1208L61.0823 62.1209L61.0886 62.1208C62.9914 62.1199 64.5562 60.5612 64.5645 58.6584C64.5697 57.4906 63.927 56.4559 63.0541 55.8877L63.2196 31.22L76.8018 58.6966L70.944 78.8109L51.0599 78.8009L45.4004 58.7171L59.2244 31.2264L59.173 55.887C58.2958 56.4543 57.6433 57.4885 57.6382 58.657C57.6298 60.5652 59.1652 62.0975 61.0823 62.1208Z" stroke="black"/>
</g>
<defs>
<clipPath id="clip0">
<rect width="71" height="70.6528" fill="white" transform="translate(111.164 63.0562) rotate(135.111)"/>
</clipPath>
</defs>
</svg>
