<svg width="120" height="120" viewBox="0 0 120 120" fill="none" xmlns="http://www.w3.org/2000/svg">
<path d="M118.148 60C118.148 92.3198 92.1559 118.5 60.1179 118.5C28.0799 118.5 2.08789 92.3198 2.08789 60C2.08789 27.6802 28.0799 1.5 60.1179 1.5C92.1559 1.5 118.148 27.6802 118.148 60Z" fill="white" stroke="white" stroke-width="3"/>
<line y1="-0.75" x2="47.3891" y2="-0.75" transform="matrix(-0.298162 0.954515 -0.960911 -0.276857 69.2324 37)" stroke="black" stroke-width="1.5"/>
<path fill-rule="evenodd" clip-rule="evenodd" d="M75.2755 74.27L88.6035 59.6169L75.3995 45.1001L74.7309 45.9151L87.0598 59.6169L74.6076 73.4557L75.2755 74.27ZM73.1973 76.5549L73.1749 76.5546L73.1749 76.5795L73.1973 76.5549ZM73.1749 42.6543L73.2746 42.7639L73.1749 42.7652L73.1749 42.6543Z" fill="black"/>
<path fill-rule="evenodd" clip-rule="evenodd" d="M46.9022 74.27L33.5742 59.6169L46.7782 45.1001L47.4468 45.9151L35.1179 59.6169L47.5701 73.4558L46.9022 74.27ZM48.9805 76.5549L49.0028 76.5546L49.0028 76.5795L48.9805 76.5549ZM49.0028 42.6543L48.9031 42.7639L49.0028 42.7652L49.0028 42.6543Z" fill="black"/>
</svg>
