<svg width="60" height="54" viewBox="0 0 60 54" fill="none" xmlns="http://www.w3.org/2000/svg">
<path d="M22.8556 29.286C21.6435 36.8238 18.7 52.6407 18.4403 54H25.8424L31.0368 23.3546C23.0287 23.2723 6.62292 23.1569 5.06458 23.3546C3.50625 23.5524 2.85695 24.5903 2.72708 25.0846L0 39.7894H6.75278L8.57084 30.8924C8.7007 30.3982 8.83056 29.9451 8.96042 29.7803C9.10775 29.5934 9.47986 29.4096 9.73959 29.4096L22.8556 29.286Z" fill="#FA903E"/>
<path d="M3.50625 20.2654L6.3632 5.43707H12.9861C12.5965 8.23799 11.7654 14.0375 11.5576 14.8284C11.3499 15.6192 12.0771 15.9817 12.4667 16.0641H25.0632L27.9201 0H35.0625L31.1667 21.9954C23.375 22.0366 7.35014 22.0943 5.58403 21.9954C3.81792 21.8966 3.46296 20.8009 3.50625 20.2654Z" fill="#FA903E"/>
<path d="M35.582 45.3501H28.5695L32.3354 23.3546C40.3868 23.3135 56.8532 23.2558 58.3077 23.3546C59.7621 23.4535 60.0391 24.6315 59.9958 25.2082L57.3986 40.0366H50.6458C51.1653 37.0709 52.2042 30.9913 52.2042 30.3982C52.2042 29.805 51.8146 29.286 50.6458 29.286H38.4389L35.582 45.3501Z" fill="#FA903E"/>
</svg>
