<svg width="153" height="142" viewBox="0 0 153 142" fill="none" xmlns="http://www.w3.org/2000/svg">
<path d="M77.4151 128.041L71.0871 98.4592C70.5726 96.0969 69.3852 93.9039 67.6472 92.1065C65.9092 90.309 63.6835 88.9721 61.1996 88.2335C58.7264 87.54 56.0958 87.4794 53.5883 88.0583C51.0807 88.6371 48.7904 89.8337 46.9616 91.5203L41.8201 96.268L35.4922 90.4247L46.1706 80.5641C46.8982 79.9265 47.4826 79.1628 47.8904 78.3165C48.2981 77.4702 48.5212 76.558 48.5469 75.632C48.5726 74.7061 48.4005 73.7845 48.0402 72.9201C47.68 72.0556 47.1388 71.2652 46.4475 70.594C46.3654 70.4998 46.2726 70.4141 46.1706 70.3383L41.8201 66.3211C42.8429 64.3224 43.2369 62.0986 42.9572 59.9031C42.6775 57.7077 41.7353 55.629 40.2381 53.9041L25.6047 37.4698C24.3717 36.0314 22.8116 34.8607 21.0348 34.0403C19.2579 33.2199 17.3076 32.7699 15.3217 32.7221C13.348 32.5656 11.3624 32.8487 9.53176 33.5478C7.70113 34.2468 6.07892 35.3413 4.8014 36.7394C3.15609 37.8651 1.85429 39.3648 1.02263 41.0927C0.190974 42.8206 -0.142246 44.7179 0.0553998 46.5999C0.076343 48.4391 0.550137 50.2498 1.44091 51.8948C2.33168 53.5399 3.61609 54.9763 5.1969 56.0953L22.9944 69.6079C25.2223 71.2943 28.0238 72.1998 30.9044 72.1644C32.8092 72.1318 34.6893 71.7598 36.4414 71.0688L40.7918 75.086L30.1134 85.3118C29.3857 85.9494 28.8014 86.7132 28.3936 87.5595C27.9859 88.4057 27.7628 89.3179 27.7371 90.2439C27.7114 91.1698 27.8836 92.0914 28.2438 92.9558C28.604 93.8203 29.1452 94.6107 29.8365 95.2819C29.9385 95.3577 30.0313 95.4434 30.1134 95.5376L36.4414 101.381L31.2999 106.129C29.4197 107.784 28.0871 109.899 27.457 112.226C26.8269 114.553 26.9252 116.998 27.7404 119.276C28.5583 121.56 30.0117 123.606 31.9553 125.208C33.8988 126.811 36.2641 127.913 38.8144 128.406L70.8498 134.249H72.0363C73.6044 134.142 75.1099 133.636 76.3868 132.789C76.9605 132.133 77.3537 131.358 77.5328 130.531C77.7118 129.705 77.6715 128.85 77.4151 128.041ZM36.0854 65.9559C34.752 66.6755 33.2629 67.1142 31.7245 67.2405C30.1862 67.3667 28.6366 67.1775 27.1867 66.6863L6.46249 51.3476C5.44584 50.7041 4.66625 49.7892 4.22804 48.7254C3.78983 47.6615 3.7139 46.4995 4.01039 45.3948C4.99914 41.414 11.5249 37.6159 12.1577 37.2872C13.3387 36.7515 14.669 36.5623 15.9699 36.7451C17.2707 36.9279 18.4799 37.4739 19.4349 38.3098L37.1137 56.9353C37.5015 57.4131 37.8082 57.9426 38.0233 58.5057C38.619 59.8389 38.7525 61.3098 38.4054 62.716C38.0584 64.1221 37.2478 65.3944 36.0854 66.3576V65.9559ZM72.6295 129.283C71.799 129.977 70.4939 130.086 67.8836 129.83C65.2733 129.575 40.1986 124.718 40.1986 124.718C37.6283 124.277 35.2671 123.117 33.4356 121.394C32.1678 120.049 31.3123 118.415 30.9577 116.663C30.6031 114.91 30.7622 113.101 31.4185 111.424C32.4448 110.125 33.5822 108.903 34.8198 107.772L51.4308 92.689C52.7707 91.775 54.3676 91.2372 56.0301 91.14C57.6926 91.0429 59.3501 91.3905 60.8041 92.1412C62.4091 92.7941 63.8152 93.8021 64.8982 95.076C65.9811 96.3499 66.7076 97.8506 67.0135 99.4453C68.1209 102.44 72.9855 126.288 72.9855 126.288C72.9855 126.288 73.7369 128.479 72.6295 129.429V129.283Z" fill="black"/>
<path d="M54.3156 48.4259C54.7375 48.5336 55.1783 48.5632 55.6127 48.5131C56.0471 48.4629 56.4665 48.334 56.8468 48.1337C57.2243 47.9199 57.5518 47.6385 57.8099 47.3061C58.068 46.9737 58.2515 46.597 58.3497 46.1981C58.5323 45.4642 58.405 44.6936 57.9937 44.0434L54.0387 37.5793C53.8133 37.2331 53.5153 36.932 53.1621 36.6937C52.809 36.4553 52.4078 36.2846 51.9821 36.1915C51.0733 35.9768 50.1098 36.0946 49.2927 36.5202C48.5725 36.9853 48.054 37.6711 47.8294 38.4558C47.7061 38.8525 47.6741 39.2686 47.7354 39.6775C47.7967 40.0863 47.9499 40.4787 48.1853 40.8296L52.259 47.0746C52.4792 47.421 52.7763 47.7205 53.1307 47.9534C53.4852 48.1863 53.889 48.3473 54.3156 48.4259Z" fill="url(#paint0_linear)"/>
<path d="M89.797 74.4651C90.3764 72.2533 90.4838 69.9585 90.1134 67.7088C89.7973 65.5486 89.0317 63.4652 87.859 61.5733C86.6387 59.6815 85.0259 58.0309 83.1131 56.7161C81.1691 55.3223 78.9338 54.3151 76.5478 53.7579C73.4273 52.9739 70.1367 52.9739 67.0162 53.7579C63.8214 54.6696 60.9522 56.3603 58.7107 58.6517C56.4388 60.77 54.8385 63.4223 54.0834 66.321C53.2535 69.2171 53.2535 72.2628 54.0834 75.159C54.9907 78.0143 56.6798 80.6054 58.9876 82.6822C61.2878 84.7992 64.1751 86.2902 67.3326 86.9917C70.4663 87.777 73.77 87.777 76.9037 86.9917C79.996 86.1735 82.8041 84.6253 85.051 82.4996C87.4061 80.2775 89.0488 77.4966 89.797 74.4651ZM71.7622 83.6683C69.865 83.6731 67.9855 83.3316 66.2317 82.6634C64.478 81.9952 62.8845 81.0135 61.543 79.7748C60.2015 78.536 59.1383 77.0646 58.4147 75.4451C57.6911 73.8257 57.3213 72.0901 57.3265 70.3383C57.3265 68.5895 57.7002 66.8578 58.4261 65.2426C59.1521 63.6274 60.216 62.1603 61.557 60.9254C62.898 59.6905 64.4897 58.7121 66.2409 58.0462C67.9921 57.3802 69.8684 57.0399 71.7622 57.0447C75.584 57.0447 79.2498 58.4441 81.9559 60.9361C84.662 63.4281 86.1875 66.8092 86.1979 70.3383C86.1979 73.8736 84.677 77.2642 81.9698 79.764C79.2626 82.2639 75.5908 83.6683 71.7622 83.6683Z" fill="url(#paint1_linear)"/>
<path d="M77.5369 45.248C78.3533 45.4154 79.2074 45.3119 79.9495 44.9559C80.3249 44.7661 80.6527 44.5054 80.9117 44.1908C81.1706 43.8761 81.3549 43.5146 81.4524 43.1299L83.4299 35.8257C83.5416 35.432 83.5642 35.0212 83.4962 34.619C83.4281 34.2168 83.2709 33.8319 83.0344 33.4884C82.8294 33.1484 82.552 32.8501 82.219 32.6116C81.886 32.3731 81.5041 32.1993 81.0964 32.1006C80.6638 31.9944 80.2121 31.972 79.7696 32.0348C79.3272 32.0977 78.9037 32.2444 78.5257 32.4658C78.1405 32.6669 77.8046 32.9394 77.5391 33.2662C77.2736 33.5931 77.0844 33.9672 76.9832 34.3649L75.0057 41.669C74.898 42.0591 74.8811 42.4659 74.9561 42.8625C75.0311 43.2591 75.1963 43.6365 75.4408 43.9698C75.9455 44.6195 76.6917 45.0745 77.5369 45.248Z" fill="url(#paint2_linear)"/>
<path d="M111.153 76.9121C110.703 76.1933 109.964 75.6681 109.096 75.4512L101.186 73.6617C100.781 73.5601 100.358 73.5368 99.943 73.5933C99.5278 73.6499 99.1298 73.7851 98.7739 73.9904C98.011 74.4468 97.4608 75.1503 97.2314 75.9625C97.0316 76.7516 97.1438 77.5805 97.5478 78.2999C97.753 78.6505 98.0347 78.9581 98.375 79.2033C98.7154 79.4484 99.107 79.6258 99.5253 79.7242L107.435 81.5137C107.868 81.6177 108.319 81.639 108.762 81.5762C109.204 81.5134 109.627 81.3679 110.006 81.1485C110.415 80.9436 110.769 80.6569 111.043 80.3094C111.317 79.9619 111.503 79.5623 111.588 79.1398C111.769 78.3734 111.612 77.572 111.153 76.9121Z" fill="url(#paint3_linear)"/>
<path d="M89.3626 92.4334C88.8795 91.7567 88.1259 91.284 87.2665 91.1187C86.8721 91.0029 86.4548 90.9691 86.0446 91.0196C85.6343 91.0701 85.2413 91.2037 84.8935 91.4109C84.537 91.6043 84.227 91.8627 83.9822 92.1704C83.7374 92.478 83.563 92.8285 83.4697 93.2004C83.2335 94.044 83.3317 94.9377 83.7465 95.7203L87.7015 102.002C88.1873 102.673 88.9261 103.153 89.7741 103.349C90.6221 103.545 91.5187 103.442 92.2893 103.061C92.6615 102.859 92.9862 102.59 93.2443 102.27C93.5024 101.95 93.6887 101.586 93.7922 101.198C94.054 100.409 93.9688 99.5563 93.5549 98.8246L89.3626 92.4334Z" fill="url(#paint4_linear)"/>
<path d="M98.7728 57.8846L105.734 54.2325C106.117 54.0073 106.447 53.7135 106.705 53.3685C106.963 53.0236 107.144 52.6343 107.236 52.2239C107.354 51.8326 107.383 51.4231 107.322 51.021C107.261 50.6189 107.11 50.2327 106.881 49.8865C106.661 49.5322 106.365 49.2231 106.012 48.9782C105.658 48.7332 105.254 48.5577 104.824 48.4622C103.978 48.2773 103.088 48.3947 102.332 48.7909L95.4506 52.6256C95.0771 52.8307 94.754 53.1056 94.502 53.4326C94.25 53.7596 94.0747 54.1315 93.9873 54.5247C93.8706 54.9143 93.8385 55.3214 93.8928 55.7225C93.9471 56.1236 94.0868 56.5108 94.3037 56.862C94.5009 57.1968 94.7716 57.4899 95.0985 57.7226C95.4254 57.9552 95.8012 58.1224 96.2021 58.2132C97.0738 58.3958 97.9876 58.2789 98.7728 57.8846Z" fill="url(#paint5_linear)"/>
<defs>
<linearGradient id="paint0_linear" x1="53.0681" y1="36.0867" x2="53.0681" y2="48.5368" gradientUnits="userSpaceOnUse">
<stop stop-color="#FF7209"/>
<stop offset="1" stop-color="#FFC266"/>
</linearGradient>
<linearGradient id="paint1_linear" x1="71.895" y1="53.1699" x2="71.895" y2="87.5806" gradientUnits="userSpaceOnUse">
<stop stop-color="#FF7209"/>
<stop offset="1" stop-color="#FFC266"/>
</linearGradient>
<linearGradient id="paint2_linear" x1="79.2224" y1="32" x2="79.2224" y2="45.3261" gradientUnits="userSpaceOnUse">
<stop stop-color="#FF7209"/>
<stop offset="1" stop-color="#FFC266"/>
</linearGradient>
<linearGradient id="paint3_linear" x1="104.398" y1="73.5632" x2="104.398" y2="81.6115" gradientUnits="userSpaceOnUse">
<stop stop-color="#FF7209"/>
<stop offset="1" stop-color="#FFC266"/>
</linearGradient>
<linearGradient id="paint4_linear" x1="88.6426" y1="90.9968" x2="88.6426" y2="103.446" gradientUnits="userSpaceOnUse">
<stop stop-color="#FF7209"/>
<stop offset="1" stop-color="#FFC266"/>
</linearGradient>
<linearGradient id="paint5_linear" x1="100.61" y1="48.3767" x2="100.61" y2="58.2973" gradientUnits="userSpaceOnUse">
<stop stop-color="#FF7209"/>
<stop offset="1" stop-color="#FFC266"/>
</linearGradient>
</defs>
</svg>
