<svg width="80" height="96" viewBox="0 0 80 96" fill="none" xmlns="http://www.w3.org/2000/svg">
<mask id="path-1-outside-1" maskUnits="userSpaceOnUse" x="0" y="0" width="80" height="96" fill="black">
<rect fill="white" width="80" height="96"/>
<path fill-rule="evenodd" clip-rule="evenodd" d="M6.91182 2.80769C6.08462 6.69303 1 43.7146 1 45.8533C1 50.0495 3.62025 51.5166 11.5899 51.7825L18.625 52.0171L18.8373 67.8846L19.0496 83.7521L17.2706 83.7594C16.2922 83.7642 13.6414 84.856 11.3792 86.1865C7.50167 88.4666 7.26667 88.788 7.26667 91.8024V95H36.6417H66.0167V92.3278C66.0167 90.5828 65.4057 89.0828 64.2542 88.003C61.9433 85.8362 57.87 83.7521 55.9446 83.7521C54.6403 83.7521 54.3716 83.0901 54.1437 79.3229C53.9956 76.8861 53.9925 74.5361 54.1359 74.1007C54.28 73.6644 56.1302 73.3077 58.2484 73.3077C63.9158 73.3077 65.2333 71.6414 65.2333 64.4701C65.2333 57.306 63.9142 55.6325 58.2672 55.6325C55.7331 55.6325 54.2941 55.2573 54.0199 54.5254C53.2154 52.3746 55.3289 51.6154 62.1204 51.6154C72.0374 51.6154 71.4154 52.851 75.5749 24.8712C77.4651 12.1498 78.85 1.57525 78.6511 1.37118C78.4521 1.16711 62.3154 1 42.7924 1H7.29643L6.91182 2.80769ZM76.3293 3.81036C76.8102 4.30366 73.3424 24.2831 72.6531 24.9933C72.3805 25.2745 67.7831 25.624 62.4376 25.7702C53.5711 26.0136 52.5363 25.8907 50.6563 24.3739C49.3614 23.3294 47.9538 22.8755 46.8736 23.1535C45.3508 23.5455 44.9004 22.9365 42.9577 17.8573C41.7373 14.6686 40.4636 12.4254 40.0907 12.8078C39.2729 13.6466 36.1333 22.8401 36.5265 23.2435C36.6808 23.4017 37.4156 21.8969 38.1598 19.898C38.9039 17.8999 39.8526 16.265 40.2677 16.265C41.2398 16.265 44.8486 24.1907 44.8588 26.3479C44.8753 29.8813 49.551 31.3475 51.1333 28.3162C51.9065 26.8347 52.7736 26.7094 62.2355 26.7094H72.4995L71.9755 31.9549C71.6872 34.84 71.2501 38.2361 71.0026 39.5022L70.5545 41.8032L54.7727 42.3439C46.0934 42.6412 31.0604 42.7697 21.3667 42.63L3.74167 42.3761L3.94612 37.1539C4.05813 34.2816 4.4357 30.847 4.78428 29.5214L5.41878 27.1111L14.5603 26.8845L23.7018 26.6588L24.9512 24.181C26.5202 21.0686 27.1445 21.6961 29.4507 28.7083C30.4526 31.7549 31.615 34.3644 32.0341 34.5074C32.7947 34.7677 36.5625 25.1556 35.9476 24.5249C35.769 24.3417 35.2168 25.4521 34.7217 26.993C33.1535 31.8657 31.9636 32.0562 30.1478 27.7257C29.2658 25.62 28.2992 22.8996 28.0015 21.6808C27.1845 18.337 26.4286 18.3932 24.8823 21.9106L23.4785 25.1026H15.1117C10.5097 25.1026 6.58752 24.9411 6.3956 24.7442C6.13553 24.4783 9.0605 4.79696 9.53598 3.61111C9.69343 3.21904 75.9454 3.41668 76.3293 3.81036ZM49.5996 25.5444C50.4276 26.568 50.3994 27.0035 49.4429 27.9844C48.0008 29.4635 45.65 28.6609 45.65 26.6901C45.65 25.4111 46.5414 24.5635 48.1003 24.3626C48.3705 24.3281 49.045 24.8599 49.5996 25.5444ZM69.7892 45.7721C69.3294 49.8414 68.1818 49.9836 35.8372 49.9965C3.40483 50.0094 2.56667 49.8977 2.56667 45.544V43.5812H36.3017H70.0375L69.7892 45.7721ZM60.5333 46.7475C60.5333 47.1636 60.8858 47.7268 61.3167 48C61.7475 48.2732 62.1 47.9325 62.1 47.244C62.1 46.5555 61.7475 45.9915 61.3167 45.9915C60.8858 45.9915 60.5333 46.3313 60.5333 46.7475ZM51.0519 52.3497C51.6527 52.7402 51.9284 53.6392 51.6637 54.3462C51.254 55.4405 49.5502 55.6325 40.2356 55.6325C27.1249 55.6325 26.85 55.8157 26.85 64.5601C26.85 72.9976 27.2409 73.2523 40.5583 73.5029L51.525 73.7094L51.9167 79.735L52.3083 85.7607L54.9576 86.0202C58.0134 86.3199 63.6667 89.871 63.6667 91.4915C63.6667 92.376 60.8059 92.6195 48.9792 92.7416C22.9521 93.0115 11.6063 92.9979 10.2042 92.6966C6.4379 91.8876 11.6306 86.9329 17.0176 86.1953L20.1917 85.7607L20.4047 69.7534C20.5395 59.603 20.9327 53.3564 21.4795 52.6807C22.1367 51.8685 25.6241 51.6186 36.1497 51.6274C43.7449 51.6347 50.4503 51.9593 51.0519 52.3497ZM62.7267 58.2034C63.2437 58.7337 63.6667 60.7221 63.6667 62.6222V66.0769L58.7708 66.1179C53.6455 66.1605 47.0569 66.8329 46.4984 67.3696C46.319 67.5424 50.1087 67.6838 54.9192 67.6838C63.8132 67.6838 65.1816 68.2188 62.7267 70.7368C61.3605 72.1379 29.6888 72.1002 28.6454 70.6966C27.5472 69.2183 27.4258 59.6689 28.4887 58.3561C29.7068 56.8505 61.2705 56.7099 62.7267 58.2034ZM56.1153 60.8579C55.4495 62.6383 57.8395 65.1442 59.0348 63.9181C60.2537 62.668 59.5988 60.1212 57.9758 59.8006C57.2261 59.652 56.3887 60.1276 56.1153 60.8579ZM58.9667 61.6581C58.9667 62.3209 58.4379 62.8633 57.7917 62.8633C57.1454 62.8633 56.6167 62.3209 56.6167 61.6581C56.6167 60.9953 57.1454 60.453 57.7917 60.453C58.4379 60.453 58.9667 60.9953 58.9667 61.6581ZM32.1469 61.8244C33.1214 62.0164 34.5314 62.0092 35.2802 61.8084C36.0291 61.6075 35.2317 61.45 33.5083 61.4589C31.785 61.4677 31.1724 61.6324 32.1469 61.8244ZM39.5792 61.81C40.3335 62.0124 41.5665 62.0124 42.3208 61.81C43.0752 61.6083 42.4579 61.4428 40.95 61.4428C39.4421 61.4428 38.8248 61.6083 39.5792 61.81ZM47.8136 61.8244C48.788 62.0164 50.198 62.0092 50.9469 61.8084C51.6958 61.6075 50.8983 61.45 49.175 61.4589C47.4517 61.4677 46.8391 61.6324 47.8136 61.8244ZM38.4535 67.4291C39.0183 67.6613 39.6943 67.6323 39.9544 67.3656C40.2144 67.0989 39.7523 66.9093 38.9267 66.9438C38.0141 66.9824 37.8284 67.1728 38.4535 67.4291ZM42.7274 67.4371C43.4896 67.6412 44.5471 67.6275 45.0774 67.4074C45.6077 67.1873 44.9842 67.0209 43.6917 67.037C42.3992 67.0531 41.9652 67.233 42.7274 67.4371Z"/>
</mask>
<path fill-rule="evenodd" clip-rule="evenodd" d="M6.91182 2.80769C6.08462 6.69303 1 43.7146 1 45.8533C1 50.0495 3.62025 51.5166 11.5899 51.7825L18.625 52.0171L18.8373 67.8846L19.0496 83.7521L17.2706 83.7594C16.2922 83.7642 13.6414 84.856 11.3792 86.1865C7.50167 88.4666 7.26667 88.788 7.26667 91.8024V95H36.6417H66.0167V92.3278C66.0167 90.5828 65.4057 89.0828 64.2542 88.003C61.9433 85.8362 57.87 83.7521 55.9446 83.7521C54.6403 83.7521 54.3716 83.0901 54.1437 79.3229C53.9956 76.8861 53.9925 74.5361 54.1359 74.1007C54.28 73.6644 56.1302 73.3077 58.2484 73.3077C63.9158 73.3077 65.2333 71.6414 65.2333 64.4701C65.2333 57.306 63.9142 55.6325 58.2672 55.6325C55.7331 55.6325 54.2941 55.2573 54.0199 54.5254C53.2154 52.3746 55.3289 51.6154 62.1204 51.6154C72.0374 51.6154 71.4154 52.851 75.5749 24.8712C77.4651 12.1498 78.85 1.57525 78.6511 1.37118C78.4521 1.16711 62.3154 1 42.7924 1H7.29643L6.91182 2.80769ZM76.3293 3.81036C76.8102 4.30366 73.3424 24.2831 72.6531 24.9933C72.3805 25.2745 67.7831 25.624 62.4376 25.7702C53.5711 26.0136 52.5363 25.8907 50.6563 24.3739C49.3614 23.3294 47.9538 22.8755 46.8736 23.1535C45.3508 23.5455 44.9004 22.9365 42.9577 17.8573C41.7373 14.6686 40.4636 12.4254 40.0907 12.8078C39.2729 13.6466 36.1333 22.8401 36.5265 23.2435C36.6808 23.4017 37.4156 21.8969 38.1598 19.898C38.9039 17.8999 39.8526 16.265 40.2677 16.265C41.2398 16.265 44.8486 24.1907 44.8588 26.3479C44.8753 29.8813 49.551 31.3475 51.1333 28.3162C51.9065 26.8347 52.7736 26.7094 62.2355 26.7094H72.4995L71.9755 31.9549C71.6872 34.84 71.2501 38.2361 71.0026 39.5022L70.5545 41.8032L54.7727 42.3439C46.0934 42.6412 31.0604 42.7697 21.3667 42.63L3.74167 42.3761L3.94612 37.1539C4.05813 34.2816 4.4357 30.847 4.78428 29.5214L5.41878 27.1111L14.5603 26.8845L23.7018 26.6588L24.9512 24.181C26.5202 21.0686 27.1445 21.6961 29.4507 28.7083C30.4526 31.7549 31.615 34.3644 32.0341 34.5074C32.7947 34.7677 36.5625 25.1556 35.9476 24.5249C35.769 24.3417 35.2168 25.4521 34.7217 26.993C33.1535 31.8657 31.9636 32.0562 30.1478 27.7257C29.2658 25.62 28.2992 22.8996 28.0015 21.6808C27.1845 18.337 26.4286 18.3932 24.8823 21.9106L23.4785 25.1026H15.1117C10.5097 25.1026 6.58752 24.9411 6.3956 24.7442C6.13553 24.4783 9.0605 4.79696 9.53598 3.61111C9.69343 3.21904 75.9454 3.41668 76.3293 3.81036ZM49.5996 25.5444C50.4276 26.568 50.3994 27.0035 49.4429 27.9844C48.0008 29.4635 45.65 28.6609 45.65 26.6901C45.65 25.4111 46.5414 24.5635 48.1003 24.3626C48.3705 24.3281 49.045 24.8599 49.5996 25.5444ZM69.7892 45.7721C69.3294 49.8414 68.1818 49.9836 35.8372 49.9965C3.40483 50.0094 2.56667 49.8977 2.56667 45.544V43.5812H36.3017H70.0375L69.7892 45.7721ZM60.5333 46.7475C60.5333 47.1636 60.8858 47.7268 61.3167 48C61.7475 48.2732 62.1 47.9325 62.1 47.244C62.1 46.5555 61.7475 45.9915 61.3167 45.9915C60.8858 45.9915 60.5333 46.3313 60.5333 46.7475ZM51.0519 52.3497C51.6527 52.7402 51.9284 53.6392 51.6637 54.3462C51.254 55.4405 49.5502 55.6325 40.2356 55.6325C27.1249 55.6325 26.85 55.8157 26.85 64.5601C26.85 72.9976 27.2409 73.2523 40.5583 73.5029L51.525 73.7094L51.9167 79.735L52.3083 85.7607L54.9576 86.0202C58.0134 86.3199 63.6667 89.871 63.6667 91.4915C63.6667 92.376 60.8059 92.6195 48.9792 92.7416C22.9521 93.0115 11.6063 92.9979 10.2042 92.6966C6.4379 91.8876 11.6306 86.9329 17.0176 86.1953L20.1917 85.7607L20.4047 69.7534C20.5395 59.603 20.9327 53.3564 21.4795 52.6807C22.1367 51.8685 25.6241 51.6186 36.1497 51.6274C43.7449 51.6347 50.4503 51.9593 51.0519 52.3497ZM62.7267 58.2034C63.2437 58.7337 63.6667 60.7221 63.6667 62.6222V66.0769L58.7708 66.1179C53.6455 66.1605 47.0569 66.8329 46.4984 67.3696C46.319 67.5424 50.1087 67.6838 54.9192 67.6838C63.8132 67.6838 65.1816 68.2188 62.7267 70.7368C61.3605 72.1379 29.6888 72.1002 28.6454 70.6966C27.5472 69.2183 27.4258 59.6689 28.4887 58.3561C29.7068 56.8505 61.2705 56.7099 62.7267 58.2034ZM56.1153 60.8579C55.4495 62.6383 57.8395 65.1442 59.0348 63.9181C60.2537 62.668 59.5988 60.1212 57.9758 59.8006C57.2261 59.652 56.3887 60.1276 56.1153 60.8579ZM58.9667 61.6581C58.9667 62.3209 58.4379 62.8633 57.7917 62.8633C57.1454 62.8633 56.6167 62.3209 56.6167 61.6581C56.6167 60.9953 57.1454 60.453 57.7917 60.453C58.4379 60.453 58.9667 60.9953 58.9667 61.6581ZM32.1469 61.8244C33.1214 62.0164 34.5314 62.0092 35.2802 61.8084C36.0291 61.6075 35.2317 61.45 33.5083 61.4589C31.785 61.4677 31.1724 61.6324 32.1469 61.8244ZM39.5792 61.81C40.3335 62.0124 41.5665 62.0124 42.3208 61.81C43.0752 61.6083 42.4579 61.4428 40.95 61.4428C39.4421 61.4428 38.8248 61.6083 39.5792 61.81ZM47.8136 61.8244C48.788 62.0164 50.198 62.0092 50.9469 61.8084C51.6958 61.6075 50.8983 61.45 49.175 61.4589C47.4517 61.4677 46.8391 61.6324 47.8136 61.8244ZM38.4535 67.4291C39.0183 67.6613 39.6943 67.6323 39.9544 67.3656C40.2144 67.0989 39.7523 66.9093 38.9267 66.9438C38.0141 66.9824 37.8284 67.1728 38.4535 67.4291ZM42.7274 67.4371C43.4896 67.6412 44.5471 67.6275 45.0774 67.4074C45.6077 67.1873 44.9842 67.0209 43.6917 67.037C42.3992 67.0531 41.9652 67.233 42.7274 67.4371Z" fill="#00BA6F"/>
<path fill-rule="evenodd" clip-rule="evenodd" d="M6.91182 2.80769C6.08462 6.69303 1 43.7146 1 45.8533C1 50.0495 3.62025 51.5166 11.5899 51.7825L18.625 52.0171L18.8373 67.8846L19.0496 83.7521L17.2706 83.7594C16.2922 83.7642 13.6414 84.856 11.3792 86.1865C7.50167 88.4666 7.26667 88.788 7.26667 91.8024V95H36.6417H66.0167V92.3278C66.0167 90.5828 65.4057 89.0828 64.2542 88.003C61.9433 85.8362 57.87 83.7521 55.9446 83.7521C54.6403 83.7521 54.3716 83.0901 54.1437 79.3229C53.9956 76.8861 53.9925 74.5361 54.1359 74.1007C54.28 73.6644 56.1302 73.3077 58.2484 73.3077C63.9158 73.3077 65.2333 71.6414 65.2333 64.4701C65.2333 57.306 63.9142 55.6325 58.2672 55.6325C55.7331 55.6325 54.2941 55.2573 54.0199 54.5254C53.2154 52.3746 55.3289 51.6154 62.1204 51.6154C72.0374 51.6154 71.4154 52.851 75.5749 24.8712C77.4651 12.1498 78.85 1.57525 78.6511 1.37118C78.4521 1.16711 62.3154 1 42.7924 1H7.29643L6.91182 2.80769ZM76.3293 3.81036C76.8102 4.30366 73.3424 24.2831 72.6531 24.9933C72.3805 25.2745 67.7831 25.624 62.4376 25.7702C53.5711 26.0136 52.5363 25.8907 50.6563 24.3739C49.3614 23.3294 47.9538 22.8755 46.8736 23.1535C45.3508 23.5455 44.9004 22.9365 42.9577 17.8573C41.7373 14.6686 40.4636 12.4254 40.0907 12.8078C39.2729 13.6466 36.1333 22.8401 36.5265 23.2435C36.6808 23.4017 37.4156 21.8969 38.1598 19.898C38.9039 17.8999 39.8526 16.265 40.2677 16.265C41.2398 16.265 44.8486 24.1907 44.8588 26.3479C44.8753 29.8813 49.551 31.3475 51.1333 28.3162C51.9065 26.8347 52.7736 26.7094 62.2355 26.7094H72.4995L71.9755 31.9549C71.6872 34.84 71.2501 38.2361 71.0026 39.5022L70.5545 41.8032L54.7727 42.3439C46.0934 42.6412 31.0604 42.7697 21.3667 42.63L3.74167 42.3761L3.94612 37.1539C4.05813 34.2816 4.4357 30.847 4.78428 29.5214L5.41878 27.1111L14.5603 26.8845L23.7018 26.6588L24.9512 24.181C26.5202 21.0686 27.1445 21.6961 29.4507 28.7083C30.4526 31.7549 31.615 34.3644 32.0341 34.5074C32.7947 34.7677 36.5625 25.1556 35.9476 24.5249C35.769 24.3417 35.2168 25.4521 34.7217 26.993C33.1535 31.8657 31.9636 32.0562 30.1478 27.7257C29.2658 25.62 28.2992 22.8996 28.0015 21.6808C27.1845 18.337 26.4286 18.3932 24.8823 21.9106L23.4785 25.1026H15.1117C10.5097 25.1026 6.58752 24.9411 6.3956 24.7442C6.13553 24.4783 9.0605 4.79696 9.53598 3.61111C9.69343 3.21904 75.9454 3.41668 76.3293 3.81036ZM49.5996 25.5444C50.4276 26.568 50.3994 27.0035 49.4429 27.9844C48.0008 29.4635 45.65 28.6609 45.65 26.6901C45.65 25.4111 46.5414 24.5635 48.1003 24.3626C48.3705 24.3281 49.045 24.8599 49.5996 25.5444ZM69.7892 45.7721C69.3294 49.8414 68.1818 49.9836 35.8372 49.9965C3.40483 50.0094 2.56667 49.8977 2.56667 45.544V43.5812H36.3017H70.0375L69.7892 45.7721ZM60.5333 46.7475C60.5333 47.1636 60.8858 47.7268 61.3167 48C61.7475 48.2732 62.1 47.9325 62.1 47.244C62.1 46.5555 61.7475 45.9915 61.3167 45.9915C60.8858 45.9915 60.5333 46.3313 60.5333 46.7475ZM51.0519 52.3497C51.6527 52.7402 51.9284 53.6392 51.6637 54.3462C51.254 55.4405 49.5502 55.6325 40.2356 55.6325C27.1249 55.6325 26.85 55.8157 26.85 64.5601C26.85 72.9976 27.2409 73.2523 40.5583 73.5029L51.525 73.7094L51.9167 79.735L52.3083 85.7607L54.9576 86.0202C58.0134 86.3199 63.6667 89.871 63.6667 91.4915C63.6667 92.376 60.8059 92.6195 48.9792 92.7416C22.9521 93.0115 11.6063 92.9979 10.2042 92.6966C6.4379 91.8876 11.6306 86.9329 17.0176 86.1953L20.1917 85.7607L20.4047 69.7534C20.5395 59.603 20.9327 53.3564 21.4795 52.6807C22.1367 51.8685 25.6241 51.6186 36.1497 51.6274C43.7449 51.6347 50.4503 51.9593 51.0519 52.3497ZM62.7267 58.2034C63.2437 58.7337 63.6667 60.7221 63.6667 62.6222V66.0769L58.7708 66.1179C53.6455 66.1605 47.0569 66.8329 46.4984 67.3696C46.319 67.5424 50.1087 67.6838 54.9192 67.6838C63.8132 67.6838 65.1816 68.2188 62.7267 70.7368C61.3605 72.1379 29.6888 72.1002 28.6454 70.6966C27.5472 69.2183 27.4258 59.6689 28.4887 58.3561C29.7068 56.8505 61.2705 56.7099 62.7267 58.2034ZM56.1153 60.8579C55.4495 62.6383 57.8395 65.1442 59.0348 63.9181C60.2537 62.668 59.5988 60.1212 57.9758 59.8006C57.2261 59.652 56.3887 60.1276 56.1153 60.8579ZM58.9667 61.6581C58.9667 62.3209 58.4379 62.8633 57.7917 62.8633C57.1454 62.8633 56.6167 62.3209 56.6167 61.6581C56.6167 60.9953 57.1454 60.453 57.7917 60.453C58.4379 60.453 58.9667 60.9953 58.9667 61.6581ZM32.1469 61.8244C33.1214 62.0164 34.5314 62.0092 35.2802 61.8084C36.0291 61.6075 35.2317 61.45 33.5083 61.4589C31.785 61.4677 31.1724 61.6324 32.1469 61.8244ZM39.5792 61.81C40.3335 62.0124 41.5665 62.0124 42.3208 61.81C43.0752 61.6083 42.4579 61.4428 40.95 61.4428C39.4421 61.4428 38.8248 61.6083 39.5792 61.81ZM47.8136 61.8244C48.788 62.0164 50.198 62.0092 50.9469 61.8084C51.6958 61.6075 50.8983 61.45 49.175 61.4589C47.4517 61.4677 46.8391 61.6324 47.8136 61.8244ZM38.4535 67.4291C39.0183 67.6613 39.6943 67.6323 39.9544 67.3656C40.2144 67.0989 39.7523 66.9093 38.9267 66.9438C38.0141 66.9824 37.8284 67.1728 38.4535 67.4291ZM42.7274 67.4371C43.4896 67.6412 44.5471 67.6275 45.0774 67.4074C45.6077 67.1873 44.9842 67.0209 43.6917 67.037C42.3992 67.0531 41.9652 67.233 42.7274 67.4371Z" stroke="#00BA6F" stroke-width="1.56667" mask="url(#path-1-outside-1)"/>
</svg>
