<svg width="30" height="31" viewBox="0 0 30 31" fill="none" xmlns="http://www.w3.org/2000/svg">
<path d="M19.6 0H10.4C2 0 0 2.01021 0 10.4531V19.7001C0 28.143 2 30.1532 10.4 30.1532H19.6C28 30.1532 30 28.143 30 19.7001V10.4531C30 2.01021 28 0 19.6 0ZM24.24 21.5495H22.08C21.28 21.5495 20.96 20.9062 19.52 19.3785C18.16 18.0919 17.6 17.9311 17.28 17.9311C16.88 17.9311 16.72 18.0919 16.72 18.6548V20.665C16.72 21.2279 16.56 21.5495 15.12 21.5495C12.8 21.5495 10.24 20.1021 8.4 17.5291C5.68 13.6695 4.96 10.7747 4.96 10.2119C4.96 9.89025 5.04 9.56862 5.68 9.56862H8C8.56 9.56862 8.8 9.80985 8.96 10.4531C10.08 13.589 11.84 16.3229 12.56 16.3229C12.88 16.3229 12.96 16.1621 12.96 15.5189V12.3025C12.88 10.8552 12.08 10.6943 12.08 10.1315C12.08 9.89025 12.32 9.64903 12.64 9.64903H16.08C16.56 9.64903 16.72 9.89025 16.72 10.4531V14.7952C16.72 15.2776 16.88 15.4384 17.04 15.4384C17.28 15.4384 17.52 15.2776 18.08 14.7952C19.68 13.0262 20.8 10.2923 20.8 10.2923C20.96 9.97066 21.2 9.64903 21.76 9.64903H23.92C24.56 9.64903 24.72 9.97066 24.56 10.4531C24.32 11.7397 21.6 15.5189 21.68 15.5189C21.44 15.9209 21.36 16.0817 21.68 16.4838C21.92 16.8054 22.64 17.4487 23.2 18.0919C24.16 19.1372 24.88 20.0217 25.04 20.665C25.2 21.2279 24.88 21.5495 24.24 21.5495Z" fill="url(#paint0_linear)"/>
<defs>
<linearGradient id="paint0_linear" x1="4.56186" y1="49.5374" x2="34.976" y2="47.2499" gradientUnits="userSpaceOnUse">
<stop offset="0.0628396" stop-color="#FF0F00"/>
<stop offset="0.460152" stop-color="#FF9533"/>
<stop offset="1" stop-color="#FF0000"/>
</linearGradient>
</defs>
</svg>
